<?xml version="1.0" encoding="utf-8"?>
<!-- Generator: Adobe Illustrator 21.1.0, SVG Export Plug-In . SVG Version: 6.00 Build 0)  -->
<svg version="1.1" id="Layer_1" xmlns="http://www.w3.org/2000/svg" xmlns:xlink="http://www.w3.org/1999/xlink" x="0px" y="0px"
	 width="55.5px" height="47.8px" viewBox="0 0 55.5 47.8" style="enable-background:new 0 0 55.5 47.8;" xml:space="preserve">
<style type="text/css">
	.st0{fill:#C5CEDF;}
	.st1{fill:#FF001E;}
</style>
<path class="st0" d="M54.4,36.4L36.3,6c-1.4-2.3-3.8-3.7-6.5-3.7c-2.7,0-5.1,1.4-6.5,3.7L5.2,36.4c-1.4,2.4-1.4,5.2-0.1,7.6
	c1.4,2.4,3.8,3.8,6.6,3.8H48c2.7,0,5.2-1.4,6.6-3.8C55.9,41.6,55.8,38.7,54.4,36.4z M29.8,11.6c1.7,0,3,1.4,3,3v12.1
	c0,1.7-1.4,3-3,3c-1.7,0-3-1.4-3-3V14.6l0,0C26.8,12.9,28.1,11.6,29.8,11.6z M29.8,41.7c-2.5,0-4.5-2-4.5-4.5c0-2.5,2-4.5,4.5-4.5
	c2.5,0,4.5,2,4.5,4.5C34.3,39.7,32.3,41.7,29.8,41.7z"/>
<path class="st1" d="M50.3,34.1L32.2,3.7C30.8,1.4,28.4,0,25.7,0c-2.7,0-5.1,1.4-6.5,3.7L1.1,34.1c-1.4,2.4-1.4,5.2-0.1,7.6
	c1.4,2.4,3.8,3.8,6.6,3.8h36.3c2.7,0,5.2-1.4,6.6-3.8C51.8,39.3,51.7,36.5,50.3,34.1z M25.7,9.3c1.7,0,3,1.4,3,3v12.1
	c0,1.7-1.4,3-3,3c-1.7,0-3-1.4-3-3V12.3l0,0C22.7,10.7,24,9.3,25.7,9.3z M25.7,39.5c-2.5,0-4.5-2-4.5-4.5c0-2.5,2-4.5,4.5-4.5
	c2.5,0,4.5,2,4.5,4.5C30.2,37.4,28.2,39.5,25.7,39.5z"/>
</svg>
