<?xml version="1.0" encoding="utf-8"?>
<!-- Generator: Adobe Illustrator 21.1.0, SVG Export Plug-In . SVG Version: 6.00 Build 0)  -->
<svg version="1.1" id="Layer_1" xmlns="http://www.w3.org/2000/svg" xmlns:xlink="http://www.w3.org/1999/xlink" x="0px" y="0px"
	 width="13px" height="13px" viewBox="0 0 19 19" style="enable-background:new 0 0 19 19;" xml:space="preserve">
<style type="text/css">
	.st0{fill:#41436a;}
</style>
<g>
	<g>
		<path class="st0" d="M16.8,1.5h-0.9V0h-1.5v1.5H4.6V0H3.1v1.5H2.2C1,1.5,0,2.5,0,3.7v13.1C0,18,1,19,2.2,19h14.5
			c1.2,0,2.2-1,2.2-2.2V3.7C19,2.5,18,1.5,16.8,1.5z M17.5,16.8c0,0.4-0.3,0.7-0.7,0.7H2.2c-0.4,0-0.7-0.3-0.7-0.7V7h16V16.8z
			 M17.5,5.5h-16V3.7C1.5,3.3,1.8,3,2.2,3h0.9v1.5h1.5V3h9.8v1.5h1.5V3h0.9c0.4,0,0.7,0.3,0.7,0.7V5.5z M4.3,8.5H2.8V10h1.5V8.5z
			 M7.3,8.5H5.8V10h1.5V8.5z M10.2,8.5H8.8V10h1.5V8.5z M13.2,8.5h-1.5V10h1.5V8.5z M16.2,8.5h-1.5V10h1.5V8.5z M4.3,11.5H2.8V13
			h1.5V11.5z M7.3,11.5H5.8V13h1.5V11.5z M10.2,11.5H8.8V13h1.5V11.5z M13.2,11.5h-1.5V13h1.5V11.5z M4.3,14.5H2.8V16h1.5V14.5z
			 M7.3,14.5H5.8V16h1.5V14.5z M10.2,14.5H8.8V16h1.5V14.5z M13.2,14.5h-1.5V16h1.5V14.5z M16.2,11.5h-1.5V13h1.5V11.5z"/>
	</g>
</g>
</svg>
