<?xml version="1.0" encoding="utf-8"?>
<!-- Generator: Adobe Illustrator 21.1.0, SVG Export Plug-In . SVG Version: 6.00 Build 0)  -->
<svg version="1.1" id="Layer_1" xmlns="http://www.w3.org/2000/svg" xmlns:xlink="http://www.w3.org/1999/xlink" x="0px" y="0px"
	 width="25px" height="25px" viewBox="0 0 25 25" style="enable-background:new 0 0 25 25;" xml:space="preserve">
<style type="text/css">
	.st0{fill:#614371;}
</style>
<g transform="translate(0.000000,512.000000) scale(0.100000,-0.100000)">
	<path class="st0" d="M19.1,5119.1c-1.4-0.7-2.4-1.7-3-2.9c-1-1.9-1-3.7-1-116.7v-114.7h-4.6c-3.7,0-5.1-0.2-6.6-1
		c-2.2-1.1-3.9-3.9-3.9-6.3s1.7-5.2,3.9-6.3c1.9-1,2.6-1,121.1-1s119.2,0,121.1,1c2.2,1.1,3.9,3.9,3.9,6.3s-1.7,5.2-3.9,6.3
		c-1.5,0.8-2.9,1-6.6,1h-4.6v62.7c0,68.1,0.1,64.6-2.6,67.1c-1,0.9-11.7,4.7-43.2,15.2l-41.8,14l-0.2,13.7
		c-0.2,13.6-0.2,13.7-1.5,15.4c-0.7,1.1-2.1,2.1-3.4,2.7c-6.5,2.8-117.6,44.1-119.1,44.3C21.8,5120.1,20.6,5119.8,19.1,5119.1z
		 M81.7,5082.8l50.6-19v-89.5v-89.5H125h-7.3v19c0,18.2,0,19.2-1,21c-0.6,1.3-1.7,2.3-2.9,2.9c-1.9,0.9-2.8,1-32.7,1s-30.9,0-32.7-1
		c-1.3-0.6-2.3-1.7-2.9-2.9c-0.9-1.8-1-2.8-1-21v-19h-7.3h-7.3v108.7c0,86.8,0.1,108.6,0.6,108.5
		C30.7,5101.8,53.8,5093.2,81.7,5082.8z M184.3,5016L220,5004l0.1-59.6l0.1-59.7h-7.3h-7.3v19c0,18.2,0,19.2-1,21
		c-0.6,1.3-1.7,2.3-2.9,2.9c-1.8,0.9-2.8,1-18.1,1s-16.3,0-18.1-1c-1.3-0.6-2.3-1.7-2.9-2.9c-0.9-1.8-1-2.8-1-21v-19h-7.3H147v71.8
		c0,68.2,0,71.8,0.9,71.5C148.3,5028,164.7,5022.5,184.3,5016z M73.7,4899.4v-14.6h-7.3h-7.3v14.6v14.6h7.3h7.3V4899.4z M103,4899.4
		v-14.6h-7.3h-7.3v14.6v14.6h7.3h7.3V4899.4z M190.9,4899.4v-14.6h-7.3h-7.3v14.6v14.6h7.3h7.3V4899.4z"/>
	<path class="st0" d="M48.2,5044.9c-2.1-1.1-3.8-4-3.8-6.3c0-2.4,1.7-5.2,3.9-6.3c1.7-0.9,2.9-1,10.7-1s9,0.1,10.7,1
		c2.2,1.1,3.9,3.9,3.9,6.3s-1.7,5.2-3.9,6.3c-1.7,0.9-2.8,1-10.8,1C51.1,5045.8,49.9,5045.7,48.2,5044.9z"/>
	<path class="st0" d="M92.2,5044.9c-2.1-1.1-3.8-4-3.8-6.3c0-2.4,1.7-5.2,3.9-6.3c1.7-0.9,2.9-1,10.7-1s9,0.1,10.7,1
		c2.2,1.1,3.9,3.9,3.9,6.3s-1.7,5.2-3.9,6.3c-1.7,0.9-2.8,1-10.8,1C95,5045.8,93.8,5045.7,92.2,5044.9z"/>
	<path class="st0" d="M48.2,5015.6c-2.1-1.1-3.8-4-3.8-6.3c0-2.4,1.7-5.2,3.9-6.3c1.7-0.9,2.9-1,10.7-1s9,0.1,10.7,1
		c2.2,1.1,3.9,3.9,3.9,6.3s-1.7,5.2-3.9,6.3c-1.7,0.9-2.8,1-10.8,1C51.1,5016.5,49.9,5016.4,48.2,5015.6z"/>
	<path class="st0" d="M92.2,5015.6c-2.1-1.1-3.8-4-3.8-6.3c0-2.4,1.7-5.2,3.9-6.3c1.7-0.9,2.9-1,10.7-1s9,0.1,10.7,1
		c2.2,1.1,3.9,3.9,3.9,6.3s-1.7,5.2-3.9,6.3c-1.7,0.9-2.8,1-10.8,1C95,5016.5,93.8,5016.4,92.2,5015.6z"/>
	<path class="st0" d="M48.2,4986.3c-2.1-1.1-3.8-4-3.8-6.3c0-2.4,1.7-5.2,3.9-6.3c1.7-0.9,2.9-1,10.7-1s9,0.1,10.7,1
		c2.2,1.1,3.9,3.9,3.9,6.3s-1.7,5.2-3.9,6.3c-1.7,0.9-2.8,1-10.8,1C51.1,4987.2,49.9,4987.2,48.2,4986.3z"/>
	<path class="st0" d="M92.2,4986.3c-2.1-1.1-3.8-4-3.8-6.3c0-2.4,1.7-5.2,3.9-6.3c1.7-0.9,2.9-1,10.7-1s9,0.1,10.7,1
		c2.2,1.1,3.9,3.9,3.9,6.3s-1.7,5.2-3.9,6.3c-1.7,0.9-2.8,1-10.8,1C95,4987.2,93.8,4987.2,92.2,4986.3z"/>
	<path class="st0" d="M48.2,4957c-2.1-1.1-3.8-4-3.8-6.3c0-2.4,1.7-5.2,3.9-6.3c1.7-0.9,2.9-1,10.7-1s9,0.1,10.7,1
		c2.2,1.1,3.9,3.9,3.9,6.3s-1.7,5.2-3.9,6.3c-1.7,0.9-2.8,1-10.8,1C51.1,4958,49.9,4957.9,48.2,4957z"/>
	<path class="st0" d="M92.2,4957c-2.1-1.1-3.8-4-3.8-6.3c0-2.4,1.7-5.2,3.9-6.3c1.7-0.9,2.9-1,10.7-1s9,0.1,10.7,1
		c2.2,1.1,3.9,3.9,3.9,6.3s-1.7,5.2-3.9,6.3c-1.7,0.9-2.8,1-10.8,1C95,4958,93.8,4957.9,92.2,4957z"/>
	<path class="st0" d="M165.4,4986.3c-2.1-1.1-3.8-4-3.8-6.3c0-2.4,1.7-5.2,3.9-6.3c1.8-0.9,2.8-1,18.1-1s16.3,0,18.1,1
		c2.2,1.1,3.9,3.9,3.9,6.3s-1.7,5.2-3.9,6.3c-1.8,0.9-2.8,1-18.2,1C168.3,4987.2,167.1,4987.2,165.4,4986.3z"/>
	<path class="st0" d="M165.4,4957c-2.1-1.1-3.8-4-3.8-6.3c0-2.4,1.7-5.2,3.9-6.3c1.8-0.9,2.8-1,18.1-1s16.3,0,18.1,1
		c2.2,1.1,3.9,3.9,3.9,6.3s-1.7,5.2-3.9,6.3c-1.8,0.9-2.8,1-18.2,1C168.3,4958,167.1,4957.9,165.4,4957z"/>
</g>
</svg>
