<?xml version="1.0" encoding="utf-8"?>
<!-- Generator: Adobe Illustrator 21.1.0, SVG Export Plug-In . SVG Version: 6.00 Build 0)  -->
<svg version="1.1" id="Layer_1" xmlns="http://www.w3.org/2000/svg" xmlns:xlink="http://www.w3.org/1999/xlink" x="0px" y="0px"
	 width="22.9px" height="26px" viewBox="0 0 22.9 26" style="enable-background:new 0 0 22.9 26;" xml:space="preserve">
<style type="text/css">
	.st0{fill:#231942;}
</style>
<path class="st0" d="M5.8,0c-0.1,0-0.3,0-0.6,0.1C3.2,0.4,2,1.3,1.6,2.9l0,0.2h5.3h5.3l0-0.2c-0.3-1.5-1.5-2.4-3.5-2.8
	C8.2,0,6.1,0,5.8,0z"/>
<path class="st0" d="M0.5,5.7C0.2,6.4,0,6.8,0,6.9c0,0.3,0.2,0.6,0.4,0.7c0.2,0.1,0.3,0.1,6.5,0.1s6.3,0,6.5-0.1
	c0.2-0.1,0.4-0.4,0.4-0.7c0-0.1-0.2-0.5-0.5-1.2l-0.5-1.1H6.9H1L0.5,5.7z"/>
<path class="st0" d="M1.5,10.7c0,1.6,0,1.7,0.3,2.4c0.3,0.6,0.9,1.4,1.6,1.7c0.2,0.1,0.5,0.2,0.7,0.3l0.4,0.1l0,0.8v0.8H4.4H4.2
	l1.3,2c0.7,1.1,1.3,2,1.3,2c0,0,0.6-0.9,1.3-2l1.3-2H9.3H9.1V16v-0.8l0.3-0.1c1.2-0.3,2.2-1.3,2.6-2.6c0.1-0.3,0.1-0.5,0.1-1.8
	l0-1.5H6.9H1.5L1.5,10.7z"/>
<path class="st0" d="M15.6,12.3c-0.1,0.1-0.2,0.2-0.3,0.3c-0.1,0.2-0.1,0.3-0.1,6.5c0,6.2,0,6.3,0.1,6.5c0.1,0.2,0.4,0.4,0.7,0.4
	c0.3,0,0.5-0.2,0.7-0.4c0.1-0.2,0.1-0.3,0.1-3.1v-2.9l2.9-1.5c2.8-1.4,2.9-1.5,3-1.7c0.1-0.3,0.1-0.5,0-0.8
	c-0.1-0.2-0.2-0.3-3.3-1.8C16,12.1,16,12.1,15.6,12.3z"/>
<path class="st0" d="M2.2,17.2c-0.9,0.4-1.7,1.3-2,2.4C0,19.9,0,20,0,22.7c0,2.7,0,2.7,0.1,2.9c0.1,0.1,0.2,0.2,0.3,0.3
	C0.6,26,0.7,26,2.2,26h1.6v-2c0-2.3,0-2.3,0.4-2.5c0.2-0.1,0.3-0.1,0.7-0.1h0.5L4,19.2c-0.8-1.2-1.5-2.2-1.5-2.2
	C2.5,17.1,2.3,17.1,2.2,17.2z"/>
<path class="st0" d="M9.7,19.2l-1.4,2.2h0.5c0.6,0,0.9,0.1,1,0.4C9.9,22,9.9,22.1,9.9,24v2h1.6c1.5,0,1.6,0,1.8-0.1
	c0.1-0.1,0.2-0.2,0.3-0.3c0.1-0.2,0.1-0.3,0.1-2.9c0-2.7,0-2.7-0.1-3.1c-0.3-0.8-0.8-1.6-1.5-2c-0.3-0.2-0.8-0.5-0.9-0.5
	C11.2,17.1,10.5,18,9.7,19.2z"/>
<path class="st0" d="M5.3,24.5V26h1.5h1.5v-1.5v-1.5H6.9H5.3V24.5z"/>
</svg>
