<?xml version="1.0" encoding="utf-8"?>
<!-- Generator: Adobe Illustrator 21.1.0, SVG Export Plug-In . SVG Version: 6.00 Build 0)  -->
<svg version="1.1" id="Layer_1" xmlns="http://www.w3.org/2000/svg" xmlns:xlink="http://www.w3.org/1999/xlink" x="0px" y="0px"
	 width="124px" height="26.7px" viewBox="0 0 124 26.7" style="enable-background:new 0 0 124 26.7;" xml:space="preserve">
<style type="text/css">
	.st0{fill:#003057;}
	.st1{fill:url(#SVGID_1_);}
	.st2{fill:#41B6E6;}
	.st3{fill:url(#SVGID_2_);}
</style>
<path class="st0" d="M0.2,8.5C0.5,7.9,1,7.7,1.7,7.7c0.3,0,0.6,0.1,0.8,0.2c0.6,0.3,0.8,0.8,0.8,1.4c0,0.3-0.1,0.5-0.2,0.8
	c-0.3,0.6-0.8,0.8-1.5,0.8c-0.3,0-0.6-0.1-0.8-0.2C0.3,10.4,0,10,0,9.3C0,9,0.1,8.7,0.2,8.5z"/>
<path class="st0" d="M57,14.4c0-1.5,0.5-2.7,1.6-3.7c1-0.9,2.2-1.4,3.6-1.4c1.4,0,2.6,0.4,3.6,1.3c0.3,0.2,0.5,0.5,0.6,0.7l-1.3,1.3
	c-0.1,0.1-0.3,0.2-0.4,0.2c-0.2,0-0.3-0.1-0.5-0.2c-0.6-0.5-1.3-0.7-2-0.7c-0.9,0-1.5,0.4-2,1.1c-0.3,0.4-0.4,0.9-0.4,1.4
	c0,0.9,0.3,1.5,1,2c0.4,0.3,0.9,0.5,1.4,0.5c0.7,0,1.3-0.2,1.9-0.7c0.2-0.1,0.4-0.2,0.5-0.2c0.2,0,0.3,0.1,0.4,0.2l1.2,1.3
	c-0.6,0.9-1.6,1.5-2.8,1.8c-0.5,0.1-0.9,0.2-1.4,0.2c-1.6,0-3-0.6-4-1.7C57.4,16.8,57,15.7,57,14.4z"/>
<path class="st0" d="M69.6,19.2h-2.3V6.1c0-0.5,0.3-0.8,0.8-0.8h2.3v13.1C70.4,18.9,70.1,19.2,69.6,19.2z"/>
<path class="st0" d="M71.8,5.9c0.3-0.6,0.8-0.8,1.5-0.8c0.3,0,0.6,0.1,0.8,0.2C74.7,5.6,75,6.1,75,6.7c0,0.3-0.1,0.5-0.2,0.8
	c-0.3,0.6-0.8,0.8-1.5,0.8c-0.3,0-0.6-0.1-0.8-0.2c-0.6-0.3-0.8-0.8-0.8-1.4C71.6,6.4,71.7,6.2,71.8,5.9z M74.8,18.4V9.6h-2.2
	c-0.5,0-0.8,0.3-0.8,0.8v8.8H74C74.5,19.2,74.8,18.9,74.8,18.4z"/>
<path class="st0" d="M75.9,14.4c0-1.5,0.5-2.7,1.6-3.7c1-0.9,2.2-1.4,3.6-1.4c1.4,0,2.6,0.4,3.6,1.3c0.3,0.2,0.5,0.5,0.6,0.7
	l-1.3,1.3c-0.1,0.1-0.3,0.2-0.4,0.2c-0.2,0-0.3-0.1-0.5-0.2c-0.6-0.5-1.3-0.7-2-0.7c-0.9,0-1.5,0.4-2,1.1c-0.3,0.4-0.4,0.9-0.4,1.4
	c0,0.9,0.3,1.5,1,2c0.4,0.3,0.9,0.5,1.4,0.5c0.7,0,1.3-0.2,1.9-0.7c0.2-0.1,0.4-0.2,0.5-0.2c0.2,0,0.3,0.1,0.4,0.2l1.2,1.3
	c-0.6,0.9-1.6,1.5-2.8,1.8c-0.5,0.1-0.9,0.2-1.4,0.2c-1.6,0-3-0.6-4-1.7C76.3,16.8,75.9,15.7,75.9,14.4z"/>
<path class="st0" d="M88.6,19.2h-2.3v-8.8c0-0.5,0.3-0.8,0.8-0.8h2.3v3.3h1l1.9-2.8c0.2-0.3,0.6-0.5,1-0.5H96l-3.2,4.5l3.4,5.1h-3.4
	l-2.3-3.5c-0.1-0.2-0.3-0.3-0.5-0.3h-0.6v3C89.3,18.9,89.1,19.2,88.6,19.2z"/>
<path class="st0" d="M34.8,19.4c-1.4,0-2.6-0.5-3.5-1.6c-0.8-1-1.2-2.1-1.2-3.4c0-1.6,0.5-2.8,1.6-3.8c0.9-0.8,1.9-1.2,3.1-1.2
	c1,0,1.9,0.3,2.6,0.9V6.1c0-0.5,0.3-0.8,0.8-0.8h2.3v13.1c0,0.5-0.3,0.8-0.8,0.8h-2.2l0-0.8C36.8,19.1,35.9,19.4,34.8,19.4z
	 M33.1,14.4c0,1.1,0.4,1.8,1.1,2.2c0.3,0.2,0.7,0.3,1.1,0.3c0,0,0.1,0,0.1,0c1.1,0,1.9-0.9,1.9-2V14c0-1.1-0.9-2-1.9-2c0,0,0,0,0,0
	c-1,0-1.6,0.4-2,1.2C33.2,13.6,33.1,14,33.1,14.4z"/>
<path class="st0" d="M41.8,5.9c0.3-0.6,0.8-0.8,1.5-0.8c0.3,0,0.6,0.1,0.8,0.2C44.7,5.6,45,6.1,45,6.7c0,0.3-0.1,0.5-0.2,0.8
	c-0.3,0.6-0.8,0.8-1.5,0.8c-0.3,0-0.6-0.1-0.8-0.2c-0.6-0.3-0.8-0.8-0.8-1.4C41.6,6.4,41.7,6.2,41.8,5.9z"/>
<path class="st0" d="M44.9,18.4V9.6h-2.2c-0.5,0-0.8,0.3-0.8,0.8v8.8H44C44.5,19.2,44.8,18.9,44.9,18.4z"/>
<path class="st0" d="M45.7,14.4c0-1.6,0.5-2.8,1.6-3.8c0.9-0.8,1.9-1.2,3.1-1.2c1,0,1.8,0.3,2.6,0.9l0-0.7h3v8.8
	c0,0.5-0.3,0.8-0.8,0.8H53l0-0.8c-0.7,0.7-1.5,1.1-2.6,1.1c-1.4,0-2.6-0.5-3.5-1.6C46.1,16.9,45.7,15.8,45.7,14.4z M48.7,14.4
	c0,1.1,0.4,1.8,1.2,2.2c0.3,0.2,0.7,0.2,1.1,0.2c0,0,0,0,0.1,0c1.1,0,1.9-0.9,1.9-2l0-0.9c0-1.1-0.9-1.9-1.9-2l0,0
	c-1,0-1.7,0.4-2,1.2C48.8,13.6,48.7,14,48.7,14.4z"/>
<path class="st0" d="M14.1,9.4c-1.4-0.1-2.7,0.4-3.6,1.2C9.5,9.8,8.2,9.3,6.8,9.4c-2.5,0.2-4.3,2.4-4.3,4.9l0,5h2.5
	c0.3,0,0.6-0.3,0.6-0.6l0-4.4c0-0.8,0.6-1.6,1.5-1.7c1-0.1,1.8,0.7,1.8,1.6v5.1h2.5c0.3,0,0.6-0.3,0.6-0.6l0-4.4
	c0-0.8,0.6-1.6,1.5-1.7c1-0.1,1.8,0.7,1.8,1.6v5.1h2.5c0.3,0,0.6-0.3,0.6-0.6v-4.3C18.4,11.8,16.6,9.6,14.1,9.4z"/>
<path class="st0" d="M28.4,11.4c-0.9-1.3-2.2-2-4-2c-1.3,0-2.4,0.4-3.3,1.1c-1.2,1-1.7,2.3-1.7,3.9c0,1.2,0.4,2.3,1.1,3.1
	c1,1.2,2.4,1.8,4.3,1.8c1.7,0,3-0.5,4-1.4l-1.3-1.5c-0.1-0.1-0.2-0.2-0.4-0.2c-0.1,0-0.2,0-0.3,0.1c-0.6,0.4-1.3,0.6-2,0.6
	c-1.2,0-2-0.6-2.4-1.5h6.5c0.3,0,0.5-0.2,0.5-0.5C29.3,13.6,29.1,12.4,28.4,11.4z M24.4,11.8c0.3,0,0.6,0.1,0.9,0.2
	c0.5,0.2,0.9,0.6,1.1,1.2h-4c0.1-0.1,0.1-0.3,0.2-0.4C23,12.1,23.6,11.8,24.4,11.8z"/>
<g>
	<linearGradient id="SVGID_1_" gradientUnits="userSpaceOnUse" x1="109.2659" y1="14.7327" x2="115.2251" y2="8.7735">
		<stop  offset="0" style="stop-color:#41B6E6"/>
		<stop  offset="1" style="stop-color:#00A3E0"/>
	</linearGradient>
	<path class="st1" d="M124,0.5L114.5,21c-0.1,0.3-0.5,0.3-0.7,0l-2.9-4.6c0-0.1-0.1-0.1-0.2-0.1l-3.7,1.3c-0.2,0.1-0.4-0.2-0.2-0.3
		l6.7-6.7c0.2-0.2,0-0.4-0.2-0.3l-5.7,2.7c-0.1,0-0.1,0-0.2,0l-4.3-2.7c-0.3-0.2-0.2-0.5,0-0.7L123.5,0C123.8-0.1,124.1,0.2,124,0.5
		z"/>
	<path class="st2" d="M124,0.5l-7.5,16.2l-1.5-2.2c-0.3-0.5-0.4-1.2,0-1.7l3.3-5.9c0.5-0.9-0.4-2-1.4-1.7l-6.4,2.2
		c-0.3,0.1-0.6,0-0.8-0.2l-0.7-0.6L123.5,0C123.8-0.1,124.1,0.2,124,0.5z"/>
</g>
<linearGradient id="SVGID_2_" gradientUnits="userSpaceOnUse" x1="97.8665" y1="24.3262" x2="100.3072" y2="21.8856">
	<stop  offset="0" style="stop-color:#41B6E6"/>
	<stop  offset="1" style="stop-color:#00A3E0"/>
</linearGradient>
<path class="st3" d="M97.4,26.6l6.7-6.7c0.2-0.2,0-0.4-0.2-0.3l-5.6,2.7c-0.1,0-0.2,0.1-0.2,0.2l-1,3.9C97,26.6,97.2,26.8,97.4,26.6
	z"/>
<path class="st2" d="M97.4,26.6l6.7-6.7c0.2-0.2,0-0.4-0.2-0.3l-4.3,2l1.2,0c0.5,0,0.7,0.6,0.4,0.9c-1.3,1.4-3.6,3.7-3.7,3.8
	c-0.2,0.2-0.5,0.1-0.3,0.3C97.2,26.7,97.3,26.7,97.4,26.6z"/>
</svg>
