<?xml version="1.0" encoding="utf-8"?>
<!-- Generator: Adobe Illustrator 21.1.0, SVG Export Plug-In . SVG Version: 6.00 Build 0)  -->
<svg version="1.1" id="Layer_1" xmlns="http://www.w3.org/2000/svg" xmlns:xlink="http://www.w3.org/1999/xlink" x="0px" y="0px"
	 width="28px" height="22px" viewBox="0 0 28 22" style="enable-background:new 0 0 28 22;" xml:space="preserve">
<style type="text/css">
	.st0{fill:#614371;}
</style>
<path class="st0" d="M25.5,16.8h-0.1v-2.9c0-2.8-1-5.5-2.8-7.6c-1.6-1.9-3.8-3.2-6.1-3.8C16.5,1.1,15.4,0,14,0
	c-1.4,0-2.5,1.1-2.5,2.5C9.1,3,6.9,4.4,5.3,6.3c-1.8,2.1-2.8,4.8-2.8,7.6v2.9H2.5c-1.4,0-2.5,1.1-2.5,2.5v0.1C0,20.9,1.1,22,2.5,22
	h23.1c1.4,0,2.5-1.1,2.5-2.5v-0.1C28,17.9,26.9,16.8,25.5,16.8L25.5,16.8z M23.8,13.9v2.9H22V8.1C23.2,9.8,23.8,11.8,23.8,13.9
	L23.8,13.9z M16.5,4.2c1.4,0.4,2.7,1.1,3.8,2.1v10.5h-3.8V4.2z M14,1.7c0.5,0,0.9,0.4,0.9,0.9v14.2h-1.8V2.6
	C13.1,2.1,13.5,1.7,14,1.7L14,1.7z M7.6,6.3c1.1-1,2.4-1.7,3.8-2.1v12.6H7.6V6.3z M4.2,13.9c0-2.1,0.6-4.1,1.8-5.8v8.7H4.2V13.9z
	 M26.4,19.5c0,0.5-0.4,0.8-0.8,0.8H2.5c-0.5,0-0.8-0.4-0.8-0.8v-0.1c0-0.5,0.4-0.8,0.8-0.8h23.1c0.5,0,0.8,0.4,0.8,0.8V19.5z
	 M26.4,19.5"/>
</svg>
