<?xml version="1.0" encoding="utf-8"?>
<!-- Generator: Adobe Illustrator 21.1.0, SVG Export Plug-In . SVG Version: 6.00 Build 0)  -->
<svg version="1.1" id="Layer_1" xmlns="http://www.w3.org/2000/svg" xmlns:xlink="http://www.w3.org/1999/xlink" x="0px" y="0px"
	 width="12px" height="12px" viewBox="0 0 12 12" style="enable-background:new 0 0 12 12;" xml:space="preserve">
<style type="text/css">
	.st0{fill:#FFFFFF;}
</style>
<path class="st0" d="M0.2,11.8C0.3,11.9,0.4,12,0.6,12h0.1l3.6-0.8c0.1,0,0.2-0.1,0.3-0.1l7.4-7.4C12,3.6,12,3.5,12,3.3
	C12,3.2,12,3,11.9,2.9L9.1,0.2c-0.2-0.2-0.6-0.2-0.8,0c0,0,0,0,0,0L0.9,7.5C0.9,7.6,0.8,7.7,0.8,7.8L0,11.3C0,11.5,0,11.7,0.2,11.8z
	"/>
</svg>
