<?xml version="1.0" encoding="utf-8"?>
<!-- Generator: Adobe Illustrator 21.1.0, SVG Export Plug-In . SVG Version: 6.00 Build 0)  -->
<svg version="1.1" id="Layer_1" xmlns="http://www.w3.org/2000/svg" xmlns:xlink="http://www.w3.org/1999/xlink" x="0px" y="0px"
	 width="24px" height="28px" viewBox="0 0 24 28" style="enable-background:new 0 0 24 28;" xml:space="preserve">
<style type="text/css">
	.st0{fill:#614371;}
</style>
<g>
	<g>
		<path class="st0" d="M13.1,1.8c-0.9-1-2.5-1-3.4,0C8.9,2.6,8.8,3.9,9.5,4.9l0,0.1c-0.7,3.3-2.2,6.4-4.6,8.8L0.7,18
			c-0.9,1-0.9,2.5,0,3.5L3,23.8c0.9,1,2.5,1,3.4,0l0.6-0.6l4,4.1c0.9,1,2.5,1,3.4,0c0.9-1,0.9-2.5,0-3.5L12.6,22l0.6-0.6
			c0.9-1,0.9-2.5,0-3.5l-0.4-0.4c1.9-1.4,4-2.3,6.3-2.8l0.1,0c0.9,0.6,2.2,0.5,3-0.3c0.9-1,0.9-2.5,0-3.5L13.1,1.8z M5.2,22.6
			c-0.3,0.3-0.8,0.3-1.1,0l-2.3-2.3c-0.3-0.3-0.3-0.8,0-1.2l4-4.1l3.4,3.5C8.8,19,5.6,22.2,5.2,22.6z M13.1,24.9
			c0.3,0.3,0.3,0.8,0,1.2c-0.3,0.3-0.8,0.3-1.1,0l-4-4.1l1.1-1.2L13.1,24.9z M10.3,19.7c0.2-0.2,0.6-0.6,1.2-1.1l0.5,0.5
			c0.3,0.3,0.3,0.8,0,1.2l-0.6,0.6L10.3,19.7z M10.3,17.4l-3.5-3.5c1.9-2.2,3.2-4.8,3.9-7.6l7,7.2C15,14.2,12.5,15.5,10.3,17.4z
			 M21,13.3c-0.3,0.3-0.8,0.3-1.1,0l-9-9.3c-0.3-0.3-0.3-0.8,0-1.2c0.3-0.3,0.8-0.3,1.1,0l9,9.3C21.4,12.5,21.4,13,21,13.3z M6.4,18
			c-0.3-0.3-0.8-0.3-1.1,0l-1.1,1.2c-0.3,0.3-0.3,0.8,0,1.2c0.3,0.3,0.8,0.3,1.1,0l1.1-1.2C6.7,18.8,6.7,18.3,6.4,18z M16.8,3.3
			c0.4,0,0.8-0.4,0.8-0.8V0.8c0-0.5-0.4-0.8-0.8-0.8C16.4,0,16,0.4,16,0.8v1.6C16,2.9,16.4,3.3,16.8,3.3z M23.2,6.6h-1.6
			c-0.4,0-0.8,0.4-0.8,0.8c0,0.5,0.4,0.8,0.8,0.8h1.6c0.4,0,0.8-0.4,0.8-0.8C24,6.9,23.6,6.6,23.2,6.6z M20.6,4.7L22.2,3
			c0.3-0.3,0.3-0.8,0-1.2c-0.3-0.3-0.8-0.3-1.1,0l-1.6,1.6c-0.3,0.3-0.3,0.8,0,1.2C19.8,5,20.3,5,20.6,4.7z"/>
	</g>
</g>
</svg>
