<?xml version="1.0" encoding="utf-8"?>
<!-- Generator: Adobe Illustrator 21.1.0, SVG Export Plug-In . SVG Version: 6.00 Build 0)  -->
<svg version="1.1" id="Layer_1" xmlns="http://www.w3.org/2000/svg" xmlns:xlink="http://www.w3.org/1999/xlink" x="0px" y="0px"
	 width="26.1px" height="21.4px" viewBox="0 0 26.1 21.4" style="enable-background:new 0 0 26.1 21.4;" xml:space="preserve">
<style type="text/css">
	.st0{fill:#614371;}
</style>
<path class="st0" d="M26.1,6.2L26.1,6.2C26.1,5,25,4,23.8,4h-4.3l-1.4-2.7C17.7,0.5,17,0,16.1,0H9.9c-0.9,0-1.6,0.5-2,1.2L6.6,4H2.3
	C1,4,0,5,0,6.2l0,0c0,0,0,0,0,0v12.9c0,1.2,1,2.2,2.3,2.2h21.5c1.2,0,2.3-1,2.3-2.2V6.2C26.1,6.2,26.1,6.2,26.1,6.2z M9.3,1.9
	c0.1-0.3,0.4-0.4,0.7-0.4h6.2c0.3,0,0.5,0.2,0.7,0.4l1,2.1H8.2L9.3,1.9z M2.3,5.5H19c0,0,0,0,0,0c0,0,0,0,0,0h4.8
	c0.4,0,0.8,0.3,0.8,0.7v2l0,0c0,0,0,0,0,0l-8.7,3.7l0,0h-5.7l0,0l0,0c0,0-8.7-3.7-8.7-3.7l0,0v-2C1.5,5.8,1.8,5.5,2.3,5.5z
	 M9.7,13.4c0.1,0,0.2,0.1,0.3,0.1h0.8v1.7c0,0.7,0.6,1.2,1.3,1.2h2c0.7,0,1.3-0.6,1.3-1.2v-1.7H16c0.1,0,0.2,0,0.3-0.1l4-1.7v8.2
	H5.8v-8.2L9.7,13.4z M12.3,13.4h1.5v1.5h-1.5V13.4z M1.5,19.2V9.8L4.3,11v8.9h-2C1.8,19.9,1.5,19.6,1.5,19.2z M23.8,19.9h-2V11
	l2.8-1.2v9.3C24.6,19.6,24.2,19.9,23.8,19.9z"/>
</svg>
