<?xml version="1.0" encoding="utf-8"?>
<!-- Generator: Adobe Illustrator 21.1.0, SVG Export Plug-In . SVG Version: 6.00 Build 0)  -->
<svg version="1.1" id="Layer_1" xmlns="http://www.w3.org/2000/svg" xmlns:xlink="http://www.w3.org/1999/xlink" x="0px" y="0px"
	 width="19.5px" height="26px" viewBox="0 0 19.5 26" style="enable-background:new 0 0 19.5 26;" xml:space="preserve">
<style type="text/css">
	.st0{fill:#F1EEF6;}
</style>
<path class="st0" d="M8.6,0.1C6.8,0.3,5.2,1,3.7,2.1C3.2,2.5,2.3,3.4,2,3.9c-1.8,2.5-2.4,5.5-1.6,8.7c0.8,3.4,3.1,7.2,6.6,11
	c1,1,2.3,2.3,2.5,2.4c0.2,0.1,0.4,0.1,0.7,0c0.2-0.1,2.1-2,3-2.9c3.2-3.6,5.3-7.2,6.1-10.3c0.8-3.2,0.3-6.3-1.6-8.8
	c-0.4-0.5-1.2-1.3-1.7-1.7C13.8,0.5,11.2-0.2,8.6,0.1z M10.3,4.4c0.6,0.1,1.2,0.2,1.7,0.5c1.2,0.6,2.1,1.4,2.6,2.6
	c1,2.1,0.5,4.5-1.1,6.1c-1.6,1.6-4,2-6,1c-0.6-0.3-1-0.6-1.5-1C4.3,12,3.9,9.5,4.8,7.5c0.9-1.9,2.7-3.1,4.8-3.2
	C9.8,4.3,10.1,4.3,10.3,4.4z"/>
</svg>
