<?xml version="1.0" encoding="utf-8"?>
<!-- Generator: Adobe Illustrator 21.1.0, SVG Export Plug-In . SVG Version: 6.00 Build 0)  -->
<svg version="1.1" id="Layer_1" xmlns="http://www.w3.org/2000/svg" xmlns:xlink="http://www.w3.org/1999/xlink" x="0px" y="0px"
	 width="22px" height="22px" viewBox="0 0 22 22" style="enable-background:new 0 0 22 22;" xml:space="preserve">
<style type="text/css">
	.st0{fill:#FFFFFF;}
</style>
<path class="st0" d="M9.8,0.1C8.4,0.2,7.3,0.6,6.1,1.2L5.3,1.6l0.3,0.7C5.8,2.7,6,3,6,3c0,0,0.2-0.1,0.5-0.3
	c2.4-1.4,5.5-1.5,8.1-0.4c0.3,0.1,0.4,0.1,0.4,0c0-0.3,0.3-0.7,0.7-1l0.2-0.1L15.6,1c-0.9-0.4-1.9-0.7-2.8-0.9C12,0,10.5,0,9.8,0.1z
	"/>
<path class="st0" d="M18.5,0.1c-0.2,0.1-0.3,0.3-0.6,0.9c-0.2,0.3-0.3,0.6-0.3,0.6c0,0-0.3,0.1-0.7,0.1c-0.7,0.1-0.9,0.2-1.1,0.4
	c-0.1,0.2-0.2,0.5-0.1,0.7c0,0.1,0.3,0.4,0.6,0.7l0.5,0.5l-0.1,0.7c-0.2,1-0.1,1.2,0.3,1.4c0.3,0.2,0.5,0.1,1.2-0.3l0.6-0.3l0.6,0.3
	c0.5,0.3,0.6,0.3,0.9,0.3c0.3,0,0.6-0.2,0.7-0.5c0.1-0.2,0.1-0.2,0-1l-0.1-0.8l0.5-0.5C21.9,3,22,2.8,22,2.5c0-0.5-0.3-0.7-1.1-0.8
	c-0.3,0-0.6-0.1-0.7-0.1c-0.1,0-0.2-0.1-0.4-0.7c-0.2-0.3-0.3-0.7-0.4-0.8C19.2,0,18.8-0.1,18.5,0.1z"/>
<path class="st0" d="M2.8,0.1c-0.1,0-0.2,0.1-0.2,0.1c0,0-0.7,1.2-1.3,2.6C0,5.2,0,5.3,0,5.6C0,5.8,0.1,6,0.4,6.2
	c0.1,0.1,0.2,0.1,2.8,0.1c2.6,0,2.6,0,2.8-0.1C6.2,6,6.3,5.8,6.3,5.5c0-0.2-0.2-0.6-1.3-2.7C4.1,1,3.7,0.2,3.6,0.2
	C3.5,0.1,3,0,2.8,0.1z"/>
<path class="st0" d="M19.6,7.2c0.5,1.1,0.8,2.2,0.8,3.5c0,0.9,0,1.6-0.3,2.8c0,0.1,0,0.1,0.1,0.1c0.3,0.1,0.7,0.3,1,0.5l0.3,0.2
	l0.1-0.1c0.1-0.2,0.3-1.1,0.4-1.7c0.1-0.8,0.1-2.3,0-3.1c-0.2-1-0.6-2.6-0.8-2.6c0,0-0.2,0.1-0.3,0.1c-0.4,0.1-0.8,0.1-1.1,0
	l-0.2-0.1L19.6,7.2z"/>
<path class="st0" d="M0.6,7.3C0.5,7.5,0.3,8.4,0.2,9c-0.2,1.2-0.3,2.5-0.1,3.6c0.1,0.5,0.3,1.5,0.4,1.7l0,0.1l0.3-0.1
	c0.3-0.1,0.4-0.2,0.8-0.2c0.4,0,0.5,0,0.4-0.1c-0.1-0.3-0.3-1.2-0.4-1.6c-0.1-0.7-0.1-2.3,0-2.9c0.1-0.7,0.3-1.5,0.5-2
	c0.1-0.2,0.2-0.4,0.2-0.5c0,0-0.4,0-0.8,0H0.7L0.6,7.3z"/>
<path class="st0" d="M18.2,14.2c-0.5,0.1-1.1,0.4-1.5,0.9c-1.3,1.3-1.2,3.4,0.2,4.6c1.3,1.1,3.1,1,4.2-0.2c0.6-0.6,0.9-1.2,0.9-2.1
	c0-0.6-0.1-1-0.3-1.6c-0.4-0.7-1.1-1.3-1.9-1.6C19.4,14.2,18.6,14.1,18.2,14.2z"/>
<path class="st0" d="M1.2,15c-0.2,0.1-0.4,0.3-0.4,0.5c0,0.1,0,1.1,0,2.3c0,2.1,0,2.1,0.1,2.3c0.1,0.1,0.2,0.2,0.2,0.2
	c0.1,0.1,0.2,0.1,2.4,0.1s2.3,0,2.4-0.1c0.1-0.1,0.2-0.2,0.2-0.2c0.1-0.1,0.1-0.2,0.1-2.4s0-2.3-0.1-2.4c-0.1-0.1-0.2-0.2-0.2-0.2
	C5.8,15,5.7,15,3.6,15C1.8,14.9,1.4,15,1.2,15z"/>
<path class="st0" d="M15,19.6c-2.3,1.1-5.2,1.2-7.6,0.2c-0.2-0.1-0.3-0.1-0.3-0.1c0,0,0,0.1-0.1,0.2c0,0.3-0.2,0.7-0.5,0.9L6.4,21
	l0.2,0.1c0.6,0.3,1.9,0.7,2.9,0.8c0.8,0.1,2.5,0.1,3.3,0c0.8-0.1,1.4-0.3,2.1-0.5c0.5-0.2,1.8-0.8,1.8-0.9c0,0,0-0.1-0.1-0.1
	c-0.2-0.1-0.7-0.7-0.8-0.9c-0.1-0.1-0.1-0.2-0.1-0.2S15.2,19.4,15,19.6z"/>
</svg>
