<?xml version="1.0" encoding="utf-8"?>
<!-- Generator: Adobe Illustrator 21.1.0, SVG Export Plug-In . SVG Version: 6.00 Build 0)  -->
<svg version="1.1" id="Layer_1" xmlns="http://www.w3.org/2000/svg" xmlns:xlink="http://www.w3.org/1999/xlink" x="0px" y="0px"
	 width="23px" height="21.8px" viewBox="0 0 23 21.8" style="enable-background:new 0 0 23 21.8;" xml:space="preserve">
<style type="text/css">
	.st0{fill:#614371;}
</style>
<path class="st0" d="M11.1,1c-0.3,0.5-0.5,1-0.5,1c0,0-0.5,0.1-1.1,0.2C9,2.2,8.5,2.2,8.5,2.3c0,0,0.3,0.4,0.7,0.8L10,3.8l-0.2,1
	C9.7,5.4,9.6,5.9,9.6,5.9c0,0,0.4-0.2,1-0.5l0.9-0.5l0.9,0.5c0.5,0.3,1,0.5,1,0.5c0,0-0.1-0.5-0.2-1.1l-0.2-1.1L13.9,3l0.8-0.8
	l-0.2,0c-0.1,0-0.6-0.1-1.1-0.2c-0.5-0.1-0.9-0.1-0.9-0.1c0,0-0.2-0.4-0.5-1c-0.3-0.5-0.5-1-0.5-1C11.5,0,11.3,0.4,11.1,1z"/>
<path class="st0" d="M19.2,4.3l-0.5,1l-1.1,0.2l-1.1,0.2l0.8,0.8l0.8,0.8l-0.2,1c-0.1,0.6-0.2,1-0.2,1.1c0,0.1,0.2-0.1,0.9-0.4
	c0.5-0.3,1-0.5,1-0.5c0,0,0.5,0.2,1,0.5c0.5,0.3,0.9,0.5,0.9,0.4c0,0-0.1-0.5-0.2-1.1l-0.2-1L22,6.4c0.4-0.4,0.8-0.8,0.8-0.8
	c0,0-0.5-0.1-1.1-0.2c-0.8-0.1-1.1-0.2-1.1-0.2c0,0-0.2-0.5-0.5-1l-0.5-0.9L19.2,4.3z"/>
<path class="st0" d="M2.8,6.6c-0.3,0.5-0.5,1-0.5,1c0,0-0.5,0.1-1.1,0.2S0.2,7.9,0.2,7.9c0,0,0.3,0.4,0.8,0.8l0.8,0.7l-0.2,1.1
	c-0.1,0.6-0.2,1.1-0.1,1.1c0,0,0.5-0.2,1-0.5l0.9-0.5l0.1,0.1c0.3,0.2,1.7,0.9,1.8,0.9c0,0-0.1-0.5-0.2-1.1l-0.2-1l0.8-0.8
	C6,8.3,6.4,7.9,6.4,7.9c0,0-0.5-0.1-1.1-0.2C4.7,7.7,4.2,7.6,4.2,7.6c0,0-0.2-0.4-0.5-1l-0.5-1L2.8,6.6z"/>
<path class="st0" d="M8.1,14.3l0,7.4h3.4h3.4l0-7.4l0-7.4h-3.4H8.1L8.1,14.3z"/>
<path class="st0" d="M16.2,16v5.8h3.4H23V16v-5.8h-3.4h-3.4V16z"/>
<path class="st0" d="M0,17.2v4.6h3.4h3.4v-4.6v-4.6H3.4H0V17.2z"/>
</svg>
