<?xml version="1.0" encoding="utf-8"?>
<!-- Generator: Adobe Illustrator 21.1.0, SVG Export Plug-In . SVG Version: 6.00 Build 0)  -->
<svg version="1.1" id="Layer_1" xmlns="http://www.w3.org/2000/svg" xmlns:xlink="http://www.w3.org/1999/xlink" x="0px" y="0px"
	 width="43px" height="41px" viewBox="0 0 43 41" style="enable-background:new 0 0 43 41;" xml:space="preserve">
<style type="text/css">
	.st0{fill:#FFFFFF;}
</style>
<g>
	<g>
		<path class="st0" d="M16.1,17.8c4.9,0,9-4,9-8.9c0-4.9-4-8.9-9-8.9c-4.9,0-9,4-9,8.9C7.2,13.8,11.2,17.8,16.1,17.8z M16.1,2.7
			c3.5,0,6.3,2.8,6.3,6.2s-2.8,6.2-6.3,6.2c-3.5,0-6.3-2.8-6.3-6.2S12.7,2.7,16.1,2.7z M39.9,28.5h-0.4v-2.7c0-2.5-2-4.5-4.5-4.5
			c-2.5,0-4.5,2-4.5,4.5v2.7H30c-1.7,0-3.1,1.4-3.1,3.1v6.2c0,1.7,1.4,3.1,3.1,3.1h9.9c1.7,0,3.1-1.4,3.1-3.1v-6.2
			C43,29.9,41.6,28.5,39.9,28.5z M33.1,25.8c0-1,0.8-1.8,1.8-1.8c1,0,1.8,0.8,1.8,1.8v2.7h-3.6V25.8z M40.3,37.9
			c0,0.2-0.2,0.4-0.4,0.4H30c-0.2,0-0.4-0.2-0.4-0.4v-6.2c0-0.2,0.2-0.4,0.4-0.4h1.8h6.3h1.8c0.2,0,0.4,0.2,0.4,0.4V37.9z M8.5,24.1
			h15.7c1,0,2,0.3,2.9,0.8c0.6,0.4,1.5,0.2,1.8-0.5c0.4-0.6,0.2-1.5-0.5-1.8c-1.3-0.7-2.8-1.1-4.3-1.1H8.5c-4.7,0-8.5,3.8-8.5,8.5
			v6.2c0,0.7,0.6,1.3,1.3,1.3h21.1c0.7,0,1.3-0.6,1.3-1.3c0-0.7-0.6-1.3-1.3-1.3H2.7v-4.9C2.7,26.7,5.3,24.1,8.5,24.1z"/>
	</g>
</g>
</svg>
