<?xml version="1.0" encoding="utf-8"?>
<!-- Generator: Adobe Illustrator 21.1.0, SVG Export Plug-In . SVG Version: 6.00 Build 0)  -->
<svg version="1.1" id="Layer_1" xmlns="http://www.w3.org/2000/svg" xmlns:xlink="http://www.w3.org/1999/xlink" x="0px" y="0px"
	 width="30.6px" height="28.9px" viewBox="0 0 30.6 28.9" style="enable-background:new 0 0 30.6 28.9;" xml:space="preserve">
<style type="text/css">
	.st0{fill:#f1eef6;}
</style>
<g>
	<g>
		<path class="st0" d="M15.3,0C6.9,0,0,6.9,0,15.4c0,5.6,3,10.7,7.9,13.4c0.1,0.1,0.3,0.1,0.4,0.1h13.9c0.2,0,0.3,0,0.4-0.1
			c4.9-2.7,7.9-7.9,7.9-13.4C30.6,6.9,23.7,0,15.3,0z M22,27.1H8.6c-4.2-2.4-6.8-6.9-6.8-11.7c0-7.5,6.1-13.5,13.5-13.5
			c7.4,0,13.5,6.1,13.5,13.5C28.8,20.2,26.2,24.7,22,27.1z M23.6,7.1c0,0-0.1-0.1-0.1-0.2c-2.1-2.1-5-3.4-8.2-3.4S9.2,4.9,7.1,7
			C7.1,7,7,7.1,7,7.1c-2.1,2.1-3.3,5-3.3,8.2c0,0.5,0.4,0.9,0.9,0.9h3.6c0.5,0,0.9-0.4,0.9-0.9c0-0.5-0.4-0.9-0.9-0.9H5.5
			c0.2-2.1,1-3.9,2.2-5.5l1.9,1.9c0.2,0.2,0.4,0.3,0.6,0.3c0.2,0,0.5-0.1,0.6-0.3c0.3-0.4,0.3-0.9,0-1.3L9,7.7
			c1.4-1.2,3.2-2,5.2-2.2c-0.5,2.4-1.6,7.2-1.6,8.1c0,1.5,1.2,2.7,2.7,2.7c1.5,0,2.7-1.2,2.7-2.7c0-0.9-1-5.6-1.6-8.1
			c2,0.2,3.7,1,5.2,2.2l-1.9,1.9c-0.4,0.4-0.4,0.9,0,1.3c0.2,0.2,0.4,0.3,0.6,0.3c0.2,0,0.5-0.1,0.6-0.3L22.9,9
			c1.2,1.5,2.1,3.4,2.2,5.5h-2.6c-0.5,0-0.9,0.4-0.9,0.9c0,0.5,0.4,0.9,0.9,0.9h3.6c0.5,0,0.9-0.4,0.9-0.9
			C27,12.2,25.7,9.3,23.6,7.1z M15.3,14.5c-0.5,0-0.9-0.4-0.9-0.9c0-0.4,0.4-2.4,0.9-4.8c0.5,2.4,0.9,4.4,0.9,4.8
			C16.2,14,15.8,14.5,15.3,14.5z M17.1,19.9h-3.6c-1.5,0-2.7,1.2-2.7,2.7s1.2,2.7,2.7,2.7h3.6c1.5,0,2.7-1.2,2.7-2.7
			S18.6,19.9,17.1,19.9z M17.1,23.5h-3.6c-0.5,0-0.9-0.4-0.9-0.9s0.4-0.9,0.9-0.9h3.6c0.5,0,0.9,0.4,0.9,0.9S17.6,23.5,17.1,23.5z"
			/>
	</g>
</g>
</svg>
