<?xml version="1.0" encoding="utf-8"?>
<!-- Generator: Adobe Illustrator 21.1.0, SVG Export Plug-In . SVG Version: 6.00 Build 0)  -->
<svg version="1.1" id="Layer_1" xmlns="http://www.w3.org/2000/svg" xmlns:xlink="http://www.w3.org/1999/xlink" x="0px" y="0px"
	 width="16.7px" height="11.4px" viewBox="0 0 16.7 11.4" style="enable-background:new 0 0 16.7 11.4;" xml:space="preserve">
<style type="text/css">
	.st0{fill:#B3ADAD;}
</style>
<path class="st0" d="M8.3,0C4.6,0,1.3,2.4,0,5.7c1.3,3.3,4.6,5.7,8.3,5.7c3.8,0,7-2.4,8.3-5.7C15.4,2.4,12.1,0,8.3,0z M8.3,9.5
	c-2.1,0-3.8-1.7-3.8-3.8s1.7-3.8,3.8-3.8s3.8,1.7,3.8,3.8S10.4,9.5,8.3,9.5z M8.3,3.4c-1.3,0-2.3,1-2.3,2.3c0,1.3,1,2.3,2.3,2.3
	s2.3-1,2.3-2.3C10.6,4.4,9.6,3.4,8.3,3.4z"/>
</svg>
