<?xml version="1.0" encoding="utf-8"?>
<!-- Generator: Adobe Illustrator 21.1.0, SVG Export Plug-In . SVG Version: 6.00 Build 0)  -->
<svg version="1.1" id="Layer_1" xmlns="http://www.w3.org/2000/svg" xmlns:xlink="http://www.w3.org/1999/xlink" x="0px" y="0px"
	 width="25px" height="19.1px" viewBox="0 0 25 19.1" style="enable-background:new 0 0 25 19.1;" xml:space="preserve">
<style type="text/css">
	.st0{fill:#614371;}
</style>
<g transform="translate(0.000000,512.000000) scale(0.100000,-0.100000)">
	<path class="st0" d="M119.9,5119.5c-12.4-2.5-21.2-13.3-21.2-26.1c0-8.1,2.1-13.2,7.8-18.9c5.5-5.6,11.2-7.9,19-7.9
		c12.5,0,23.5,9.2,25.9,21.5c1.3,6.6-0.3,14.6-4.1,20C141.4,5117,130.2,5121.6,119.9,5119.5z"/>
	<path class="st0" d="M74.2,5112.6c-4.7-1.3-10.4-4.8-13-8.1c-1.8-2.2-3.9-6.1-4.3-8c-0.3-1.1,0-1.5,1.8-2.8
		c6.1-4.2,10.7-11.7,11.9-19.1c0.2-1.1,0.4-2,0.4-2c0,0,1.4,0.4,3,1c3.6,1.3,10.6,1.8,14.4,1c1.5-0.3,4-1.1,5.6-1.8l2.9-1.2l1.4,1.5
		l1.4,1.4l-1.3,2c-3.5,5.3-5,10.6-4.9,17.9c0,4.5,0.2,6,1.3,9l1.3,3.7l-1.3,1.1c-1.9,1.6-5.3,3.3-8.4,4.2
		C83.6,5113.3,77,5113.4,74.2,5112.6z"/>
	<path class="st0" d="M164.6,5112.2c-3.6-1.2-6.2-2.5-8.6-4.6l-2.1-1.8l1-3c2.3-7.3,1.5-15.9-2.1-23l-1.9-3.9l1.4-1.8l1.5-1.9
		l3.3,1.2c4.7,1.8,11.6,2.1,17.1,0.8l4.1-1l0.3,1.8c1.1,6.6,3.6,11.3,8.7,16.4c2.1,2.2,4.6,4.2,5.5,4.6c1.4,0.6,1.6,0.9,1.3,1.9
		c-0.1,0.7-0.8,2.1-1.5,3.3c-3,5-7.6,8.7-13.4,10.8C175.2,5113.5,168.6,5113.6,164.6,5112.2z"/>
	<path class="st0" d="M204.9,5094.8c-4.2-1-5.7-1.5-8.3-2.8c-3.5-1.8-8.4-6.5-10.1-9.9c-1.5-3-2.7-6.6-3-9.4c-0.2-2-0.2-2.1,1.9-3.5
		c3-2.1,6.8-6.5,8.7-10.2c1.7-3.3,3.3-7.9,3.3-9.8c0-2.8,10.8-4.5,17.1-2.7c10.7,3.2,18,12.6,18,23.6c0,10.8-6.6,20-16.9,23.5
		C212.9,5094.6,206.7,5095.2,204.9,5094.8z"/>
	<path class="st0" d="M36.1,5093.3c-16.4-4.3-23.8-23.2-14.6-37.2c6.2-9.4,18-13.6,28.3-10l2.7,0.9l0.6,2.9c0.7,3.3,1.8,6.3,3.6,9.4
		c1.4,2.5,6.2,7.7,8.6,9.4c1.6,1.1,1.7,1.3,1.4,3.1c-0.9,6.3-3.2,11-7.3,15C53.2,5093,44.2,5095.5,36.1,5093.3z"/>
	<path class="st0" d="M77.2,5069.3c-4.7-1.4-8-3.2-11.1-6.3c-4.9-4.9-7.4-10.8-7.4-17.4c0-11,7.3-20.7,17.9-23.7
		c5.6-1.6,11.3-1.1,16.8,1.3c2.7,1.2,2.8,1.3,3.6,4.5c1.4,5.1,3.9,9.4,7.7,13.5l3.5,3.7l-0.3,2.5c-0.8,6.2-3.1,11-7,15.1
		C94.6,5068.8,85.1,5071.6,77.2,5069.3z"/>
	<path class="st0" d="M163.6,5069.9c-10.2-2-17.7-9.1-20.3-19c-1.1-4.5-1.1-4.6,2.6-7.7c5.3-4.3,9.6-11.7,10.6-18.3
		c0.3-1.9,0.4-2.1,2.8-2.9c1.4-0.4,4.4-0.9,6.7-1.1c7.1-0.4,13.3,2,18.6,7.3c6.1,6.1,8.4,14.6,6.4,22.8
		c-2.6,10.7-11.7,18.3-22.7,18.8C166.5,5070,164.3,5070,163.6,5069.9z"/>
	<path class="st0" d="M110.9,5064.5c-4.2-0.5-4.1-0.3-2.2-3.8c1.8-3.2,3.7-9.6,3.7-12.2c0-1.2,0.1-1.4,0.9-1
		c5.3,2.3,7.8,2.8,13.3,2.8c4.2,0,6.3-0.3,8.6-1l3-1l0.3,2.5c0.4,3.2,2.3,8.7,3.9,11c1.1,1.7,1.2,1.9,0.4,2.2
		C141.8,5064.5,113.8,5064.9,110.9,5064.5z"/>
	<path class="st0" d="M123.1,5044.5c-5.5-1.1-10.1-3.5-13.9-7.3c-4.9-4.8-7.2-10.5-7.2-17.1c0-13.7,10.9-24.7,24.6-24.7
		c13.5,0,24.4,10.8,24.4,24.2c0,2.4-0.3,5.4-0.8,6.9c-2.2,7.7-8.4,14.2-15.9,16.7C131.1,5044.3,125.4,5044.9,123.1,5044.5z"/>
	<path class="st0" d="M197.5,5042c-1.1-7.2-3.1-11.9-6.8-16.5l-2.2-2.7l2.3-1c11-4.6,18.5-12.4,22.3-23.3c1.4-3.9,1.5-4.9,1.7-11.6
		c0.1-4,0.3-7.5,0.5-7.7c0.5-0.5,10.1,0.4,16.3,1.6c4.6,0.9,15.1,4.2,17.6,5.4c0.9,0.5,0.9,1.3,0.7,16.2
		c-0.2,14.7-0.2,15.9-1.3,19.1c-3.1,9.7-10.4,17.1-20.2,20.7c-3.5,1.3-3.9,1.3-17.1,1.5l-13.5,0.2L197.5,5042z"/>
	<path class="st0" d="M27.5,5042.8c-10.3-1.3-19.5-7.9-24.1-17.2c-3.1-6.3-3.5-8.6-3.5-25.3v-14.5l3.9-1.5
		c8.5-3.3,17.3-5.2,26.2-5.8l5-0.3l0.2,7.8c0.2,6.3,0.5,8.4,1.4,10.9c3.6,10.5,10.3,18.1,19.9,22.9l4.8,2.3l-2.1,2.6
		c-3.7,4.7-5.6,9.4-6.7,16.8l-0.3,1.8l-10.8,0C35.4,5043.2,29.2,5043,27.5,5042.8z"/>
	<path class="st0" d="M64.6,5017.9c-10.5-2.7-18.7-10.6-22.2-21.2c-1.1-3.2-1.1-4.3-1.3-19.3l-0.1-15.9l6.5-1.8
		c10.5-2.9,23.6-5.2,29.3-5.2h1.9v6c0,3.3,0.3,7.4,0.7,9.2c2.7,12.6,11.9,23,24.6,27.8c1.1,0.4,1,0.5-1.3,3.6
		c-3.8,5-5.5,9.1-6.3,14.6l-0.3,2.9l-13.9,0.1C69.8,5018.9,67.7,5018.8,64.6,5017.9z"/>
	<path class="st0" d="M156.8,5017.4c0-4.7-2.8-11.7-6.7-16.7l-2.1-2.8l2.3-1c10.1-4.2,17.5-11.6,21.3-21.2c2-5,2.7-9.1,2.7-15.8v-6
		l3.1,0.3c12.1,1,20.5,2.8,28.6,6.2l3.6,1.5l-0.2,15.4c-0.2,17-0.4,18-3.5,24.2c-4.1,8.1-11.5,14.2-20.1,16.4c-3.3,0.8-5.4,1-16.5,1
		h-12.6V5017.4z"/>
	<path class="st0" d="M108.9,4992.8c-11.1-2.4-20.6-11.7-23.4-23c-0.9-3.4-1-5.4-1-18.8v-15l3.3-1c27.6-8.3,56.7-8.4,76.4-0.4
		l4.1,1.7v15.6c0,15,0,15.8-1.1,19.3c-3,9.8-10.3,17.3-20.2,20.9c-3.6,1.3-3.6,1.3-19.2,1.4C115.6,4993.5,111.3,4993.3,108.9,4992.8
		z"/>
</g>
</svg>
