<?xml version="1.0" encoding="utf-8"?>
<!-- Generator: Adobe Illustrator 21.1.0, SVG Export Plug-In . SVG Version: 6.00 Build 0)  -->
<svg version="1.1" id="Layer_1" xmlns="http://www.w3.org/2000/svg" xmlns:xlink="http://www.w3.org/1999/xlink" x="0px" y="0px"
	 width="11px" height="11px" viewBox="0 0 11 11" style="enable-background:new 0 0 11 11;" xml:space="preserve">
<style type="text/css">
	.st0{fill:#ACADB9;}
</style>
<path class="st0" d="M5.5,0C2.5,0,0,2.5,0,5.5c0,3,2.5,5.5,5.5,5.5c3,0,5.5-2.5,5.5-5.5C11,2.5,8.5,0,5.5,0L5.5,0z M5.9,8.8
	c-0.3,0-0.8,0.2-1,0.2C4.6,9,4.4,8.8,4.2,8.6C4.1,8.5,4.1,8.2,4.2,8l1-2.9H4.1c0-0.6,0.4-1,1-1.2c0.3-0.1,0.8-0.2,1-0.2
	c0.2,0,0.4,0.1,0.6,0.3c0.1,0.2,0.2,0.4,0.1,0.6l-1,2.9h1.1C6.9,8.2,6.4,8.7,5.9,8.8L5.9,8.8z M6.2,3.4c-0.4,0-0.7-0.3-0.7-0.7
	c0-0.4,0.3-0.7,0.7-0.7c0.4,0,0.7,0.3,0.7,0.7C6.9,3.1,6.6,3.4,6.2,3.4L6.2,3.4z M6.2,3.4"/>
</svg>
