<?xml version="1.0" encoding="utf-8"?>
<!-- Generator: Adobe Illustrator 21.1.0, SVG Export Plug-In . SVG Version: 6.00 Build 0)  -->
<svg version="1.1" id="Layer_1" xmlns="http://www.w3.org/2000/svg" xmlns:xlink="http://www.w3.org/1999/xlink" x="0px" y="0px"
	 width="43px" height="59.3px" viewBox="0 0 43 59.3" style="enable-background:new 0 0 43 59.3;" xml:space="preserve">
<style type="text/css">
	.st0{fill:#BE1E2C;}
	.st1{clip-path:url(#SVGID_2_);fill:url(#SVGID_3_);}
</style>
<rect y="53.6" class="st0" width="1.6" height="5.7"/>
<polygon class="st0" points="10.6,53.6 9.4,57 8.2,53.6 6.3,53.6 8.6,59.3 10.2,59.3 12.5,53.6 "/>
<path class="st0" d="M19.1,55.5l0.6,1.6h-1.3L19.1,55.5z M18.3,53.6l-2.4,5.7h1.7l0.4-0.9h2.2l0.4,0.9h1.5l-2.3-5.7H18.3z"/>
<polygon class="st0" points="30.6,53.6 30.6,56.7 28.4,53.6 26.8,53.6 26.8,59.3 28.4,59.3 28.4,56.1 30.6,59.3 32.2,59.3 
	32.2,53.6 "/>
<path class="st0" d="M40,55.5l0.6,1.6h-1.3L40,55.5z M39.2,53.6l-2.4,5.7h1.7l0.4-0.9h2.2l0.4,0.9H43l-2.3-5.7H39.2z"/>
<path class="st0" d="M12.8,33.9V20l8.7-4.3l8.7,4.3v14L12.8,33.9z M21.5,0L0,10.7v34.7h43V10.7L21.5,0z"/>
<g>
	<g>
		<defs>
			<rect id="SVGID_1_" x="12.8" y="34" width="17.3" height="11.4"/>
		</defs>
		<clipPath id="SVGID_2_">
			<use xlink:href="#SVGID_1_"  style="overflow:visible;"/>
		</clipPath>
		
			<linearGradient id="SVGID_3_" gradientUnits="userSpaceOnUse" x1="-77.689" y1="-768.4518" x2="-77.5932" y2="-768.4518" gradientTransform="matrix(-255.1693 -2.3737 2.3737 -255.1693 -17960.041 -196229.8438)">
			<stop  offset="0" style="stop-color:#73121B"/>
			<stop  offset="1" style="stop-color:#BE1E2C"/>
		</linearGradient>
		<polygon class="st1" points="30.2,45.5 12.7,45.4 12.8,33.8 30.3,34 		"/>
	</g>
</g>
</svg>
