<?xml version="1.0" encoding="utf-8"?>
<!-- Generator: Adobe Illustrator 21.1.0, SVG Export Plug-In . SVG Version: 6.00 Build 0)  -->
<svg version="1.1" id="Layer_1" xmlns="http://www.w3.org/2000/svg" xmlns:xlink="http://www.w3.org/1999/xlink" x="0px" y="0px"
	 width="101px" height="50px" viewBox="0 0 101 50" style="enable-background:new 0 0 101 50;" xml:space="preserve">
<style type="text/css">
	.st0{fill:#FFFFFF;}
</style>
<g>
	<g>
		<path class="st0" d="M27.2,37.4c0,3.6,1.9,5.3,5.9,5.3c4,0,5.9-1.7,5.9-5.3v-8h-4v7.1c0,1.3,0,3-1.9,3c-2,0-2-1.7-2-3v-7.1h-4
			V37.4z M19.4,34C19.4,34,19.4,33.9,19.4,34c0.1-0.2,0.7,0,0.7-0.2c0-0.1-0.1-0.1-0.2-0.1c-0.1,0-0.1,0-0.2,0c0,0-0.1-0.1,0-0.1
			c0.1-0.1,0.6-0.2,0.3-0.5c0,0,0-0.1,0-0.1c0.1,0,0.2,0,0.3,0.1c0.1,0.1,0,0.3,0,0.4c0,0,0,0,0,0c0,0.1,0.2-0.2,0.3-0.2
			c0.1-0.2,0.1-0.2,0-0.4c0-0.2,0-0.3,0.2-0.4c0,0,0,0,0.1,0c0.2,0.5,0,0.8-0.2,1.1c0.1,0,0.1,0,0.2-0.1c0.2,0,0.3-0.1,0.4-0.2
			c0.1-0.1,0.4-0.2,0.2-0.3c0,0,0-0.1,0-0.1c0.1,0,0.1-0.1,0.2-0.1c0.1,0,0.1,0,0.2,0c0,0,0-0.1,0-0.1c0,0,0-0.1,0.1-0.1
			c0,0,0-0.1,0.1-0.1c0,0,0,0,0.1,0c0.1,0.1,0.1,0.2,0.2,0.2c0.1,0.1,0.2,0,0.3-0.1c0.4-0.1,0.8-0.2,1.2-0.2c0,0,0.1,0.1,0,0.1
			c-0.3,0.2-0.5,0.3-0.9,0.3c-0.4,0.1-0.7,0.3-1,0.5c-0.3,0.2-0.6,0.2-0.9,0.3c-0.1,0-0.6,0.2-0.5,0.3c0.1,0.1,0.4,0.1,0.6,0.1
			c0.4,0.1,0.6,0.3,0.9,0.4c0.2,0.1,0.8,0,1-0.2c0.2-0.2,0.3-0.3,0.6-0.3c0.3-0.1,0.5-0.2,0.8-0.2c0,0,0,0,0,0.1
			c-0.1,0.2-0.4,0.3-0.7,0.4c-0.1,0-0.4,0.1-0.5,0.2c-0.1,0.2,0.1,0.1,0.2,0.1c0.1,0,0.3,0,0.4,0c0.2,0,0.3-0.2,0.5-0.2
			c0.2,0,0.3,0.1,0.4,0.2c0.2,0,0.5,0,0.7-0.1c0,0,0.1,0,0.1,0c-0.5-3.3-3-5.6-6.5-5.6c-4,0-6.6,2.8-6.6,6.8c0,3.3,1.8,5.8,4.7,6.6
			c0.1-0.6,0.1-1.1,0.2-1.5c0.2-1.4,0.5-2.7,0.5-4.1c0-0.3,0.1-0.7,0-1c0-0.1-0.2-0.4-0.3-0.4c-0.1,0-0.2,0.2-0.2,0.2
			c-0.3,0.3-0.2,0.5-0.7,0.5c-0.1,0-0.2,0-0.3-0.1c-0.2-0.1-0.4-0.1-0.6-0.1c-0.3,0-0.5,0-0.7,0c-0.2,0-0.4,0-0.5-0.1
			c0,0-0.2-0.2-0.2-0.2c0,0,0,0,0,0c0,0,0,0,0.1,0c0.1,0,0.1,0,0.2,0.1c0,0,0.1,0,0.1,0.1c0.1,0,0.1,0,0.2,0c0.1,0,0.3,0.1,0.4,0
			c0.1-0.1,0.2-0.1,0.3-0.2c0.1,0,0.2,0,0.3,0c0,0,0.1,0.1,0.1,0.1c0.1,0.1,0.2,0,0.3-0.1c0,0,0-0.1,0-0.1c0-0.1,0.1,0,0-0.1
			c-0.1-0.1-0.4-0.1-0.6-0.1c-0.3-0.1-0.4-0.2-0.7-0.1c-0.1,0-0.1,0.1-0.2,0c-0.1,0-0.1-0.1-0.2-0.2c-0.2-0.1-0.4-0.1-0.6-0.1
			c0,0,0-0.1,0-0.1c0.3,0,0.5-0.1,0.8-0.1c0.1,0,0.4,0.1,0.4-0.1c0,0-0.1-0.1-0.1-0.1c-0.1-0.1-0.2-0.2-0.1-0.3
			c0.2-0.1,0.4,0.1,0.5,0.2c0.1,0.2,0.2,0.3,0.4,0.5c0.1,0,0.2,0.1,0.3,0.1c0.1,0.1,0.3,0.2,0.4,0.2c0.2,0,0.4-0.1,0.5-0.3
			c0.2-0.2,0.5-0.4,0.8-0.3c0.2,0.1,0.3,0.2,0.4,0.3c0.4,0.2,0.9-0.4,0.4-0.6c-0.1,0-0.2-0.1-0.3-0.1c-0.1-0.1-0.2-0.1-0.3-0.2
			c-0.2-0.1-0.4-0.1-0.6-0.1c-0.1,0-0.2,0.1-0.3,0.1c-0.2,0-0.4,0-0.6,0c-0.3-0.1-0.5-0.1-0.8-0.2c0,0,0,0,0-0.1
			c0.1-0.3,0.6,0,0.9,0c-0.1,0-0.2-0.1-0.3-0.1c0,0,0-0.1,0-0.1c0.2-0.1,0.3,0,0.4,0c0.2,0.1,0.4,0.1,0.6,0.1c0.2,0,0.3,0,0.5,0
			c0.1,0,0.2,0,0.4,0c0.1,0,0.1,0,0.2,0c-0.3-0.2-0.5-0.6-0.8-0.4c-0.2,0.1-0.3,0.3-0.6,0.2c0,0,0-0.1,0-0.1
			c0.1-0.1,0.2-0.1,0.2-0.2c0.1-0.1,0.2-0.2,0.3-0.2c0.1-0.1,0.2-0.1,0.3,0c-0.1-0.1-0.2-0.2-0.3-0.2c0,0,0-0.1,0-0.1
			c0.2,0,0.5,0.1,0.6,0.2c0.1,0,0.1,0.1,0.1,0.2c0.1,0.2,0.2,0.3,0.4,0.4c0,0,0.2,0.1,0.2,0.1c0.1,0,0.2,0,0.2-0.1
			c0-0.1-0.2-0.1-0.3-0.2c-0.1-0.1-0.1-0.1-0.2-0.2c0,0,0-0.1,0.1-0.1c0.1,0,0.1,0.1,0.2,0.1c0.1,0.1,0.2,0.1,0.2-0.1
			c0,0,0-0.1,0-0.1c0-0.1,0-0.2,0.1-0.3c0,0,0.1,0,0.1,0c0.1,0.1,0.1,0.3,0.2,0.4c0.1,0.1,0.2,0,0.3,0c0.1,0,0.2,0,0.3,0.1
			c0,0,0,0.1,0,0.1c-0.2,0.1-0.9,0.4-0.7,0.6c0.1,0.1,0.5,0.4,0.6,0.3C19.8,34.2,19.5,34,19.4,34z M25.3,34.9
			C25,35.1,24.2,35,23.9,35c-0.6,0-1.1,0.3-1.7,0.4c-0.4,0.1-0.8,0.3-1.2,0.2c-0.3-0.1-0.5-0.6-0.8-0.3c-0.2,0.1-0.5,0.4-0.6,0.6
			c-0.2,0.4,0,1.1,0.1,1.5c0.3,1,0.7,2,0.8,3.1c0.1,0.6,0.2,1,0.2,1.5c0,0.2,0.1,0.3,0.1,0.5c2.8-0.8,4.6-3.3,4.6-6.5
			C25.4,35.6,25.4,35.2,25.3,34.9z M3.6,42.4h4v-9.7h3.6v-3.3H0v3.3h3.6V42.4z M2.2,20.5l3.4,5.7h0.6l3.4-5.8l0,6.9H11l0-9.5H9.9
			L6,24.6l-4-6.7H0.9v9.5h1.3V20.5z M15.2,17.9h-1.4v9.5h1.4V17.9z M19.4,20.3l5.7,7.1h1.1v-9.5h-1.4V25l-5.7-7.1h-1.1v9.5h1.4V20.3
			z M29.1,17.9v9.5h1.4v-9.5H29.1z M39.7,24.8c0-0.6-0.2-1.1-0.5-1.4c-0.3-0.4-0.7-0.6-1.1-0.8c-0.4-0.2-1-0.3-1.7-0.5
			c-0.6-0.1-1-0.2-1.3-0.4c-0.3-0.1-0.6-0.3-0.8-0.5c-0.2-0.2-0.3-0.5-0.3-0.8c0-0.4,0.2-0.8,0.6-1.1c0.4-0.3,1-0.4,1.7-0.4
			c0.4,0,0.9,0.1,1.3,0.2c0.5,0.1,0.9,0.3,1.3,0.6l0.4-1.1c-0.4-0.3-0.9-0.5-1.4-0.6c-0.5-0.1-1.1-0.2-1.7-0.2c-0.8,0-1.5,0.1-2,0.4
			c-0.5,0.2-0.9,0.6-1.2,1c-0.3,0.4-0.4,0.9-0.4,1.4c0,0.6,0.2,1.1,0.5,1.4c0.3,0.4,0.7,0.6,1.1,0.8c0.4,0.2,1,0.3,1.7,0.5
			c0.6,0.1,1,0.3,1.3,0.4c0.3,0.1,0.6,0.3,0.8,0.5c0.2,0.2,0.3,0.5,0.3,0.8c0,0.4-0.2,0.8-0.6,1.1c-0.4,0.3-1,0.4-1.8,0.4
			c-0.6,0-1.2-0.1-1.7-0.3c-0.6-0.2-1-0.5-1.4-0.8l-0.5,1.1c0.4,0.4,0.9,0.6,1.6,0.9c0.7,0.2,1.4,0.3,2.1,0.3c0.8,0,1.5-0.1,2-0.4
			c0.6-0.2,1-0.6,1.2-1C39.6,25.8,39.7,25.3,39.7,24.8z M43.5,27.4h1.3v-8.3h3.3v-1.2h-7.9v1.2h3.3V27.4z M56.2,19.1v-1.2h-6.7v9.5
			h6.9v-1.2h-5.5v-3.1h4.8V22h-4.8v-2.9H56.2z M60,24.5h2.3c0.1,0,0.3,0,0.6,0l2,2.9h1.5l-2.3-3.2c0.7-0.2,1.2-0.6,1.5-1.1
			c0.4-0.5,0.5-1.1,0.5-1.9c0-1-0.4-1.8-1.1-2.4c-0.7-0.6-1.7-0.9-2.9-0.9h-3.7v9.5H60V24.5z M60,19.1h2.3c0.9,0,1.5,0.2,2,0.5
			c0.5,0.4,0.7,0.9,0.7,1.6c0,0.7-0.2,1.2-0.7,1.6c-0.5,0.4-1.1,0.6-2,0.6H60V19.1z M75.4,26.2h-5.5v-3.1h4.8V22h-4.8v-2.9h5.3v-1.2
			h-6.7v9.5h6.9V26.2z M87.9,26.8c0.8-0.4,1.4-1,1.8-1.7c0.4-0.7,0.6-1.5,0.6-2.5c0-0.9-0.2-1.8-0.6-2.5c-0.4-0.7-1-1.3-1.8-1.7
			c-0.8-0.4-1.7-0.6-2.7-0.6h-4v9.5h4C86.2,27.4,87.1,27.2,87.9,26.8z M82.6,26.2v-7.1h2.6c0.8,0,1.4,0.1,2,0.4
			c0.6,0.3,1,0.7,1.3,1.3c0.3,0.5,0.5,1.2,0.5,1.9c0,0.7-0.2,1.3-0.5,1.9c-0.3,0.5-0.8,1-1.3,1.3c-0.6,0.3-1.3,0.4-2,0.4H82.6z
			 M96.4,27.5c1.3,0,2.3-0.4,3-1.1c0.7-0.7,1.1-1.8,1.1-3.1v-5.4h-1.3v5.3c0,1-0.2,1.8-0.7,2.3c-0.5,0.5-1.1,0.8-2,0.8
			c-1.8,0-2.7-1-2.7-3v-5.3h-1.4v5.4c0,1.4,0.4,2.4,1.1,3.1C94.1,27.2,95.1,27.5,96.4,27.5z M4.3,45.4l-1.6,2.7L1,45.4H0.6v3.9h0.5
			v-2.8l1.4,2.4h0.3l1.4-2.4l0,2.8h0.5l0-3.9H4.3z M7.4,45.4l-1.8,3.9h0.6l0.4-1h2.1l0.4,1h0.6l-1.8-3.9H7.4z M6.8,47.9L7.6,46
			l0.8,1.9H6.8z M13.3,45.7c-0.3-0.2-0.7-0.2-1.1-0.2h-1.6v3.9h1.6c0.4,0,0.8-0.1,1.1-0.2c0.3-0.2,0.6-0.4,0.7-0.7
			c0.2-0.3,0.3-0.6,0.3-1c0-0.4-0.1-0.7-0.3-1C13.9,46.1,13.6,45.8,13.3,45.7z M13.5,48.1c-0.1,0.2-0.3,0.4-0.6,0.5
			c-0.2,0.1-0.5,0.2-0.8,0.2h-1.1v-2.9h1.1c0.3,0,0.6,0.1,0.8,0.2c0.2,0.1,0.4,0.3,0.6,0.5c0.1,0.2,0.2,0.5,0.2,0.8
			C13.7,47.7,13.7,47.9,13.5,48.1z M16.5,45.4l-1.8,3.9h0.6l0.4-1h2.1l0.4,1h0.6l-1.8-3.9H16.5z M16,47.9l0.8-1.9l0.8,1.9H16z
			 M20.7,46.1c0.2-0.1,0.5-0.2,0.8-0.2c0.4,0,0.8,0.2,1.1,0.5l0.3-0.3c-0.2-0.2-0.4-0.3-0.6-0.4c-0.3-0.1-0.5-0.2-0.8-0.2
			c-0.4,0-0.8,0.1-1.1,0.3c-0.3,0.2-0.6,0.4-0.7,0.7c-0.2,0.3-0.3,0.6-0.3,1c0,0.4,0.1,0.7,0.3,1c0.2,0.3,0.4,0.5,0.7,0.7
			c0.3,0.2,0.7,0.3,1.1,0.3c0.3,0,0.5,0,0.8-0.1c0.3-0.1,0.5-0.2,0.7-0.4v-1.5h-0.5v1.3c-0.3,0.2-0.6,0.3-0.9,0.3
			c-0.3,0-0.6-0.1-0.8-0.2c-0.2-0.1-0.4-0.3-0.6-0.5c-0.1-0.2-0.2-0.5-0.2-0.8c0-0.3,0.1-0.5,0.2-0.8C20.2,46.4,20.4,46.2,20.7,46.1
			z M25.4,45.4l-1.8,3.9h0.6l0.4-1h2.1l0.4,1h0.6L26,45.4H25.4z M24.9,47.9l0.8-1.9l0.8,1.9H24.9z M30.6,47.3
			c-0.2-0.1-0.4-0.1-0.7-0.2c-0.2-0.1-0.4-0.1-0.5-0.1c-0.1,0-0.2-0.1-0.3-0.2c-0.1-0.1-0.1-0.2-0.1-0.3c0-0.2,0.1-0.3,0.2-0.4
			c0.2-0.1,0.4-0.2,0.7-0.2c0.2,0,0.4,0,0.5,0.1c0.2,0.1,0.4,0.1,0.5,0.2l0.2-0.4c-0.2-0.1-0.4-0.2-0.6-0.3
			c-0.2-0.1-0.4-0.1-0.7-0.1c-0.3,0-0.6,0.1-0.8,0.2c-0.2,0.1-0.4,0.2-0.5,0.4c-0.1,0.2-0.2,0.4-0.2,0.6c0,0.2,0.1,0.4,0.2,0.6
			c0.1,0.1,0.3,0.3,0.5,0.3c0.2,0.1,0.4,0.1,0.7,0.2c0.2,0.1,0.4,0.1,0.5,0.2c0.1,0,0.2,0.1,0.3,0.2c0.1,0.1,0.1,0.2,0.1,0.3
			c0,0.2-0.1,0.3-0.2,0.4c-0.2,0.1-0.4,0.2-0.7,0.2c-0.2,0-0.5,0-0.7-0.1c-0.2-0.1-0.4-0.2-0.6-0.3l-0.2,0.4
			c0.2,0.1,0.4,0.3,0.6,0.4c0.3,0.1,0.6,0.1,0.8,0.1c0.3,0,0.6,0,0.8-0.1c0.2-0.1,0.4-0.2,0.5-0.4c0.1-0.2,0.2-0.4,0.2-0.6
			c0-0.2-0.1-0.4-0.2-0.6C30.9,47.5,30.8,47.4,30.6,47.3z M33.3,46.1c0.2-0.1,0.5-0.2,0.8-0.2c0.4,0,0.8,0.2,1.1,0.5l0.4-0.4
			c-0.2-0.2-0.4-0.4-0.6-0.5c-0.3-0.1-0.5-0.2-0.8-0.2c-0.4,0-0.7,0.1-1.1,0.3c-0.3,0.2-0.6,0.4-0.7,0.7c-0.2,0.3-0.3,0.6-0.3,1
			c0,0.4,0.1,0.7,0.3,1c0.2,0.3,0.4,0.5,0.7,0.7c0.3,0.2,0.7,0.3,1.1,0.3c0.3,0,0.6-0.1,0.8-0.2c0.3-0.1,0.5-0.3,0.6-0.5l-0.4-0.4
			c-0.3,0.3-0.7,0.5-1.1,0.5c-0.3,0-0.6-0.1-0.8-0.2c-0.2-0.1-0.4-0.3-0.5-0.5c-0.1-0.2-0.2-0.5-0.2-0.8c0-0.3,0.1-0.5,0.2-0.8
			C32.9,46.4,33.1,46.2,33.3,46.1z M37.7,45.4L36,49.3h0.6l0.4-1H39l0.4,1h0.6l-1.8-3.9H37.7z M37.2,47.9L38,46l0.8,1.9H37.2z
			 M43.8,47.5c0.1-0.2,0.2-0.5,0.2-0.8c0-0.4-0.1-0.8-0.4-1c-0.3-0.2-0.7-0.4-1.2-0.4h-1.5v3.9h0.6v-1.2h1c0.1,0,0.1,0,0.2,0
			l0.8,1.2h0.6L43.2,48C43.5,47.9,43.7,47.8,43.8,47.5z M42.4,47.7h-0.9v-1.8h0.9c0.4,0,0.6,0.1,0.8,0.2c0.2,0.2,0.3,0.4,0.3,0.6
			c0,0.3-0.1,0.5-0.3,0.7C43,47.6,42.8,47.7,42.4,47.7z M58.6,42V29.4h-4v12.1l0.3,0.1C54.8,41.6,56.2,41.8,58.6,42z M66,39.9
			c-0.7,0-1.6-0.2-1.9-1c-0.1-0.3-0.1-0.6-0.1-0.9h-4c0,2.5,1.5,3.6,3,4.2c0.4,0,0.9,0,1.3,0c1.7,0,3.3-0.1,4.9-0.2
			c1.4-0.7,2.5-1.8,2.5-3.8c0-2.4-1.8-3.2-3.7-3.8c-1.8-0.5-3.7-0.7-3.8-1.6c0-0.7,0.9-0.9,1.4-0.9c0.4,0,0.8,0.1,1.2,0.4
			c0.3,0.2,0.5,0.6,0.5,1.1h3.8c-0.1-3.3-2.6-4.3-5.4-4.3c-2.7,0-5.3,1.3-5.3,4.3c0,2.6,2.4,3.2,4.4,3.8c2.2,0.6,2.8,0.8,2.8,1.5
			C67.6,39.6,66.6,39.9,66,39.9z M72.8,41.6c1.2-0.2,2.6-0.3,3.7-0.4V34h0.2l1.9,7.1c0.9,0,1.8-0.1,2.7-0.1c0.3,0,0.7,0,1,0l1.8-6.7
			v6.9c1.4,0.1,2.6,0.3,3.9,0.5V29.4h-5.7l-1.9,7.7h0l-1.9-7.7h-5.8V41.6z M94,39.1v-1.7h6.2v-3.1H94v-1.5h6.8v-3.4H90v12.8
			c0.3,0.1,0.6,0.2,0.8,0.2H101v-3.3H94z M63.4,47.3c0,0,7,3.8,13.6,2.4c6.5-1.4,7.2-2.8,11.4-4.4c-2.8,0.1-6.8,0.6-11.7,2.1
			C72.6,48.6,67.7,48.2,63.4,47.3z M51.1,36.4c1.3-0.5,2-1.9,2-3.3c0-2.5-2-3.7-4.2-3.7h-7.6v13h4v-4.5h2.1c1.6,0,1.7,1.3,1.8,2.5
			c0.1,0.7,0.1,1.3,0.3,2h4C53,41.9,53,40.3,53,39.6C52.8,38,52.2,36.8,51.1,36.4z M47.2,35.1h-2.1v-2.6H47c1.5,0,2,0.5,2,1.3
			C49,35,48,35.1,47.2,35.1z M26.4,14c0.9,0.1,1.8-0.3,2.5-0.9c0.2-0.2,0.4-0.4,0.6-0.6c-1.1-3.2-4.2-3.6-5.4-3.6
			c-0.2,0.9-0.3,2-0.1,3C24.3,13,25.2,13.9,26.4,14z M31.6,10.1c0,0,0.1-0.1,0.1-0.1c0.9-0.9,1.9-1.8,3-2.6c-0.7-3-3.5-4.9-4.1-5.3
			c-1.7,0.9-3.4,2-4.6,3.4c0.1,0,0.2,0,0.3,0C29.8,5.9,31.3,9.2,31.6,10.1z M37.3,6c1-0.4,2-0.6,3-0.7h0c0,0,0,0,0,0
			c0.4-0.7,1-2.3-0.7-5.2l0,0C39,0,38.3,0,37.7,0c-1,0.1-2.2,0.3-3.4,0.6C36.8,2.5,37.2,5.2,37.3,6z M45.2,6.3
			c0.5-0.2,1.9-1.1,2.2-3.4l0,0C46,2,44.7,1.3,43.2,0.8c0.2,0.3,1.4,2.5-0.3,4.6C43.7,5.6,44.5,5.9,45.2,6.3z M47,7.5
			c0.9,0.8,1.7,1.7,2.4,2.7c2-0.6,2.6-1.5,2.8-2c0,0,0,0,0,0c-0.2-0.5-0.5-0.9-0.8-1.3c-0.6-0.8-1.2-1.6-1.9-2.3
			C49.4,4.8,49.3,6.5,47,7.5C47,7.5,47,7.5,47,7.5z M50.5,12.4c0.3,0.8,0.5,1.5,0.6,2.3c0.1,0.3,0.1,0.8,0.1,0.8
			c1,0.6,2.3,0,2.8-0.3c-0.1-0.4-0.1-0.9-0.2-1.3c-0.1-1-0.3-2.1-0.7-3C52.5,12.4,51.2,12.5,50.5,12.4z M71.7,43.2
			c-9,1.2-17-0.3-17-0.3c4.1,2.5,14.7,5.4,22,3.3c7.3-2.2,12.7-2.3,14.8-2C87.2,42.2,80.6,42,71.7,43.2z"/>
	</g>
</g>
</svg>
