<?xml version="1.0" encoding="utf-8"?>
<!-- Generator: Adobe Illustrator 21.1.0, SVG Export Plug-In . SVG Version: 6.00 Build 0)  -->
<svg version="1.1" id="Layer_1" xmlns="http://www.w3.org/2000/svg" xmlns:xlink="http://www.w3.org/1999/xlink" x="0px" y="0px"
	 width="33px" height="33px" viewBox="0 0 33 33" style="enable-background:new 0 0 33 33;" xml:space="preserve">
<style type="text/css">
	.st0{fill:#3B5998;}
	.st1{fill:#FFFFFF;}
</style>
<g>
	<path class="st0" d="M33,16.5C33,25.6,25.6,33,16.5,33S0,25.6,0,16.5C0,7.4,7.4,0,16.5,0S33,7.4,33,16.5L33,16.5z M33,16.5"/>
	<path class="st1" d="M20.6,17.1h-2.9v10.8h-4.5V17.1h-2.1v-3.8h2.1v-2.5c0-1.8,0.8-4.5,4.5-4.5l3.3,0v3.7h-2.4
		c-0.4,0-0.9,0.2-0.9,1v2.2H21L20.6,17.1z M20.6,17.1"/>
</g>
</svg>
