<?xml version="1.0" encoding="utf-8"?>
<!-- Generator: Adobe Illustrator 21.1.0, SVG Export Plug-In . SVG Version: 6.00 Build 0)  -->
<svg version="1.1" id="Layer_1" xmlns="http://www.w3.org/2000/svg" xmlns:xlink="http://www.w3.org/1999/xlink" x="0px" y="0px"
	 width="33px" height="33px" viewBox="0 0 33 33" style="enable-background:new 0 0 33 33;" xml:space="preserve">
<style type="text/css">
	.st0{fill:#007AB9;}
	.st1{fill:#F1F2F2;}
</style>
<g>
	<path class="st0" d="M33,16.5C33,25.6,25.6,33,16.5,33S0,25.6,0,16.5C0,7.4,7.4,0,16.5,0S33,7.4,33,16.5L33,16.5z M33,16.5"/>
	<path class="st1" d="M26.4,17.8v6.8h-3.9v-6.3c0-1.6-0.6-2.7-2-2.7c-1.1,0-1.7,0.7-2,1.4c-0.1,0.3-0.1,0.6-0.1,1v6.6h-3.9
		c0,0,0.1-10.7,0-11.9h3.9v1.7c0,0,0,0,0,0h0v0c0.5-0.8,1.5-2,3.6-2C24.4,12.5,26.4,14.2,26.4,17.8L26.4,17.8z M10.2,7.1
		C8.8,7.1,8,7.9,8,9.1c0,1.1,0.9,2,2.2,2h0c1.4,0,2.2-0.9,2.2-2C12.4,7.9,11.5,7.1,10.2,7.1L10.2,7.1z M8.2,24.6h3.9V12.8H8.2V24.6z
		 M8.2,24.6"/>
</g>
</svg>
