<?xml version="1.0" encoding="utf-8"?>
<!-- Generator: Adobe Illustrator 21.1.0, SVG Export Plug-In . SVG Version: 6.00 Build 0)  -->
<svg version="1.1" id="Layer_1" xmlns="http://www.w3.org/2000/svg" xmlns:xlink="http://www.w3.org/1999/xlink" x="0px" y="0px"
	 width="33px" height="33px" viewBox="0 0 33 33" style="enable-background:new 0 0 33 33;" xml:space="preserve">
<style type="text/css">
	.st0{fill:#55ACEE;}
	.st1{fill:#F1F2F2;}
</style>
<g>
	<path class="st0" d="M33,16.5C33,25.6,25.6,33,16.5,33S0,25.6,0,16.5C0,7.4,7.4,0,16.5,0S33,7.4,33,16.5L33,16.5z M33,16.5"/>
	<path class="st1" d="M26.6,11.9c-0.7,0.3-1.5,0.5-2.3,0.6c0.8-0.5,1.4-1.3,1.7-2.2c-0.8,0.5-1.6,0.8-2.5,1
		c-0.7-0.8-1.7-1.2-2.9-1.2c-2.2,0-3.9,1.8-3.9,3.9c0,0.3,0,0.6,0.1,0.9c-3.3-0.2-6.2-1.7-8.1-4.1c-0.3,0.6-0.5,1.3-0.5,2
		c0,1.4,0.7,2.6,1.8,3.3c-0.6,0-1.3-0.2-1.8-0.5c0,0,0,0,0,0.1c0,1.9,1.4,3.5,3.2,3.9c-0.3,0.1-0.7,0.1-1,0.1c-0.3,0-0.5,0-0.7-0.1
		c0.5,1.6,2,2.7,3.7,2.7c-1.4,1.1-3.1,1.7-4.9,1.7c-0.3,0-0.6,0-0.9-0.1c1.7,1.1,3.8,1.8,6,1.8c7.3,0,11.2-6,11.2-11.2
		c0-0.2,0-0.3,0-0.5C25.4,13.3,26.1,12.6,26.6,11.9L26.6,11.9z M26.6,11.9"/>
</g>
</svg>
