<?xml version="1.0" encoding="utf-8"?>
<!-- Generator: Adobe Illustrator 23.0.6, SVG Export Plug-In . SVG Version: 6.00 Build 0)  -->
<svg version="1.1" id="Calque_1" xmlns="http://www.w3.org/2000/svg" xmlns:xlink="http://www.w3.org/1999/xlink" x="0px" y="0px"
	 width="250px" height="250px" viewBox="0 0 250 250" style="enable-background:new 0 0 250 250;" xml:space="preserve">
<style type="text/css">
	.st0{fill:#AA9FBC;}
	.st1{fill:#251944;}
</style>
<g transform="translate(0.000000,512.000000) scale(0.100000,-0.100000)">
	<path class="st0" d="M927.6,4733.1c-47-12.6-91.9-44.6-118.1-84c-7.1-10.9-17.4-32.7-23.1-48.7l-10.5-28.9l-1-119.8l-1.4-119.8
		l-49.7-1l-50-1v-51v-51l49.7-1l50-1l1.7-99.4c2-109.2,4.4-126.6,24.2-180c17.7-47.3,40.1-81.3,78.6-120.1
		c18.7-18.7,38.1-37.8,43.6-41.9l9.2-7.5v-56.1v-56.1h-75.5c-49,0-87.4-1.7-108.2-5.1c-71.8-10.9-131.7-40.8-182.4-91.5
		c-40.5-40.8-70.4-92.5-86.8-150c-7.5-26.5-7.8-32-8.8-223.5l-1.4-196.7h667.2h667.6l-1.4,191.6l-1.7,191.2l-8.8,34
		c-5.1,18.7-16.7,49.7-26.2,68.7l-17,34.4v102.4c0,62.9,1.4,102.8,3.4,104.1c1.7,1,103.1,24.2,225.2,51.4
		c122.1,27.2,224.9,50,228.3,51c5.4,1.7,5.8,12.9,5.8,175.2v173.2h-282.4h-282.4v-279.3c0-153.5-1-278.7-2.4-278
		c-1.7,0.7-15,6.8-29.6,14.3c-15,7.1-41.9,17-59.5,21.8c-29.9,7.8-39.8,8.5-123.5,10.2l-91.2,1.4v57.2v57.2l19.1,14.6
		c57.2,43.9,102.8,114.3,123.2,189.9c8.2,31,8.8,37.8,10.2,137.5l1.4,104.5h50.7h50.7v52.7v52.7h-51h-51v115
		c0,126.2-1.7,140.9-20.8,179.3c-18.7,38.4-53.8,73.8-90.5,91.9c-42.5,20.8-33.7,20.1-239.2,21.1
		C963.3,4739.5,951.4,4739.2,927.6,4733.1z M1332.8,4626.6c30.3-15,51.7-43.9,56.1-75.5l2-15.3h-256.9H877.2l2.7,16.7
		c5.8,37.8,35,71.1,70.4,80.6c12.2,3.4,57.5,4.4,189.5,3.7l173.5-0.7L1332.8,4626.6z M1390,4382.6v-51h-256.9H876.2v48.7
		c0,26.9,1,50,2.4,51c1,1.4,116.7,2.4,256.9,2.4H1390V4382.6z M1390,4137.6c0-68-1.4-94.9-5.4-115
		c-25.5-123.5-138.8-211.3-263.4-203.8c-40.5,2.4-65.7,8.8-100.4,25.9c-66,32.7-115.3,93.2-135.1,166.4
		c-5.8,22.5-7.1,39.8-8.5,120.8l-2,94.2h257.6H1390V4137.6z M2107.9,3991.7v-81.3l-7.5-1.7c-23.1-5.8-347.1-77.2-349.8-77.2
		c-2,0-3.4,42.2-3.4,120.8V4073h180.3h180.3V3991.7z M1073.6,3720.8c43.6-8.2,106.5-5.4,154.1,6.8l9.2,2.4v-37.4v-37.4l-13.3-10.5
		c-49.7-39.1-124.2-41.2-172.2-4.4l-17,12.9l-1,38.4l-1,38.8l7.8-2.4C1044.7,3726.6,1059.6,3723.6,1073.6,3720.8z M997.4,3552.1
		c38.8-26.5,85.4-40.5,136.1-40.5c51.7,0,89.1,10.9,133.4,38.4l21.1,13.3l111.6-1.7c124.2-1.7,127.9-2,176.9-26.2
		c49-24.5,91.9-74.2,110.6-129.3c7.1-21.1,7.5-27.9,8.5-164.3l1-141.9h-51.4h-51v127.6v127.6h-51h-51v-127.6v-127.6h-51h-51v127.6
		v127.6h-256.9H876.2v-127.6v-127.6h-51h-51v127.6v127.6h-51h-51v-127.6v-127.6h-51h-51v127.6c0,146,2,162,24.2,208.6
		c30.6,63.3,97.7,112.6,166.7,122.5c11.9,1.7,66.7,3.4,121.5,3.7l99.7,0.3L997.4,3552.1z M1287.9,3176.4v-76.6h-153.1H981.7v76.6
		v76.6h153.1h153.1V3176.4z"/>
</g>
</svg>
