<?xml version="1.0" encoding="utf-8"?>
<!-- Generator: Adobe Illustrator 21.1.0, SVG Export Plug-In . SVG Version: 6.00 Build 0)  -->
<svg version="1.1" id="Layer_1" xmlns="http://www.w3.org/2000/svg" xmlns:xlink="http://www.w3.org/1999/xlink" x="0px" y="0px"
	 width="23px" height="23px" viewBox="0 0 23 23" style="enable-background:new 0 0 23 23;" xml:space="preserve">
<style type="text/css">
	.st0{fill:#41436A;}
</style>
<path class="st0" d="M16.9,14.8c1.1-1.5,1.8-3.4,1.8-5.5c0-5.2-4.2-9.3-9.3-9.3S0,4.2,0,9.3c0,5.2,4.2,9.3,9.3,9.3
	c2.1,0,4-0.7,5.5-1.8L21,23l2-2L16.9,14.8L16.9,14.8z M9.3,15.8c-3.6,0-6.5-2.9-6.5-6.5c0-3.6,2.9-6.5,6.5-6.5
	c3.6,0,6.5,2.9,6.5,6.5C15.8,12.9,12.9,15.8,9.3,15.8L9.3,15.8z M9.3,15.8"/>
</svg>
