<?xml version="1.0" encoding="utf-8"?>
<!-- Generator: Adobe Illustrator 21.1.0, SVG Export Plug-In . SVG Version: 6.00 Build 0)  -->
<svg version="1.1" id="Layer_1" xmlns="http://www.w3.org/2000/svg" xmlns:xlink="http://www.w3.org/1999/xlink" x="0px" y="0px"
	 width="17.5px" height="22.9px" viewBox="0 0 17.5 22.9" style="enable-background:new 0 0 17.5 22.9;" xml:space="preserve">
<style type="text/css">
	.st0{fill:#614371;}
</style>
<g>
	<g>
		<path class="st0" d="M12.1,1.3V0H5.4v1.3H0v21.6h17.5V1.3H12.1z M6.7,1.3h4v1.3h-4V1.3z M16.2,21.6H1.3V2.7h4V4h6.7V2.7h4V21.6z
			 M9.4,6.8h5.4V5.4H9.4V6.8z M12.1,8.1H9.4v1.3h2.7V8.1z M9.4,12.1h5.4v-1.3H9.4V12.1z M12.1,13.5H9.4v1.3h2.7V13.5z M9.4,17.5h5.4
			v-1.3H9.4V17.5z M9.4,20.2h2.7v-1.3H9.4V20.2z M2.7,9.4h4v-4h-4V9.4z M4,6.8h1.3v1.3H4V6.8z M2.7,14.8h4v-4h-4V14.8z M4,12.1h1.3
			v1.3H4V12.1z M2.7,20.2h4v-4h-4V20.2z M4,17.5h1.3v1.3H4V17.5z"/>
	</g>
</g>
</svg>
