<?xml version="1.0" encoding="utf-8"?>
<!-- Generator: Adobe Illustrator 21.1.0, SVG Export Plug-In . SVG Version: 6.00 Build 0)  -->
<svg version="1.1" id="Layer_1" xmlns="http://www.w3.org/2000/svg" xmlns:xlink="http://www.w3.org/1999/xlink" x="0px" y="0px"
	 width="22.1px" height="29.1px" viewBox="0 0 22.1 29.1" style="enable-background:new 0 0 22.1 29.1;" xml:space="preserve">
<style type="text/css">
	.st0{fill:#41436a;}
</style>
<g>
	<g>
		<path class="st0" d="M18.7,15.7l-4.3-1V14c1.4-0.7,2.3-2.2,2.3-3.9V4.9c1-1,1.4-2.3,1.4-4c0-0.5-0.4-0.9-0.8-0.9H9.1
			C6.8,0,4.9,1.9,4.9,4.2c0,0.6,0,5.3,0,5.9c0,1.8,1.1,3.4,2.8,4.1v0.5l-4.3,1C1.4,16.1,0,17.9,0,19.9v8.4c0,0.5,0.4,0.9,0.8,0.9
			c0.5,0,0.8-0.4,0.8-0.9v-8.4c0-1.2,0.8-2.2,2-2.5l3.2-0.7l-0.8,1.7c-0.7,1.4,0.5,2.9,2,2.6l1.8-0.4l-1.4,5.8
			c-0.1,0.3,0,0.6,0.2,0.8l1.7,1.8c0.3,0.3,0.9,0.4,1.2,0l1.8-1.8c0.2-0.2,0.3-0.5,0.2-0.8l-1.5-5.7C14,20.9,14,21,14.4,21
			c1.3,0,2.2-1.4,1.6-2.6l-0.8-1.7l3.2,0.7c1.2,0.3,2,1.3,2,2.5v8.4c0,0.5,0.4,0.9,0.8,0.9c0.5,0,0.8-0.4,0.8-0.9v-8.4
			C22.1,17.9,20.7,16.1,18.7,15.7z M6.6,4.2c0-1.4,1.1-2.5,2.5-2.5h7.4c-0.1,0.9-0.5,1.7-1.2,2.2c-2,1.7-6.2,1.1-7.9,0.8
			c-0.3-0.1-0.6-0.1-0.8,0V4.2z M6.6,10.2c0-0.3,0-3,0-3.3c0,0,0-0.2,0.2-0.4c0.1-0.1,0.2-0.1,0.4-0.1c2.5,0.5,5.7,0.7,8-0.3v4.1
			c0,1.5-1.2,2.7-2.6,2.7H9.2C7.8,12.8,6.6,11.6,6.6,10.2z M7.6,19.2c-0.1-0.1-0.1,0.1,1-2.1l1.1,1.7C7.6,19.3,7.7,19.3,7.6,19.2z
			 M11.1,27.1l-0.8-0.8l0.8-3.3l0.8,3.3L11.1,27.1z M11,17.8l-1.7-2.7v-0.7c3.2,0,3.1,0,3.4,0v0.7L11,17.8z M14.4,19.2
			c-0.1,0.1,0.1,0.1-2-0.4l1.1-1.7C14.5,19.3,14.5,19.2,14.4,19.2z M5.1,21.8c-0.5,0-0.8,0.4-0.8,0.9v5.7c0,0.5,0.4,0.9,0.8,0.9
			c0.5,0,0.8-0.4,0.8-0.9v-5.7C5.9,22.1,5.6,21.8,5.1,21.8z M17,21.8c-0.5,0-0.8,0.4-0.8,0.9v5.7c0,0.5,0.4,0.9,0.8,0.9
			c0.5,0,0.8-0.4,0.8-0.9v-5.7C17.8,22.1,17.4,21.8,17,21.8z"/>
	</g>
</g>
</svg>
