<?xml version="1.0" encoding="utf-8"?>
<!-- Generator: Adobe Illustrator 21.1.0, SVG Export Plug-In . SVG Version: 6.00 Build 0)  -->
<svg version="1.1" id="Layer_1" xmlns="http://www.w3.org/2000/svg" xmlns:xlink="http://www.w3.org/1999/xlink" x="0px" y="0px"
	 width="84px" height="73px" viewBox="0 0 84 73" style="enable-background:new 0 0 84 73;" xml:space="preserve">
<style type="text/css">
	.st0{fill:#F1EEF6;}
</style>
<g>
	<g>
		<path class="st0" d="M64.4,67.5H44.8V45.4V23.3h14h14l0,14.9l0,14.9l2.7,0l2.7,0l0-16.8c0-16.8,0-16.9-0.4-17.3
			c-0.2-0.2-0.6-0.6-0.9-0.8l-0.5-0.4H59H41.6l-0.7,0.4c-0.5,0.3-0.8,0.6-1.1,1.1L39.4,20v23.8v23.8H25.3H11.2V40.7V13.9l0.6-0.2
			c1.3-0.3,27-7.3,27.3-7.4c0.3-0.1,0.3,0.1,0.3,3v3.1h2.7h2.7V7.3c0-5,0-5.1-0.4-5.8C44,0.6,42.9,0,42.1,0c-0.3,0-8.2,2.1-17.7,4.7
			c-10.9,3-17.3,4.8-17.6,5c-0.2,0.2-0.6,0.6-0.7,0.9c-0.3,0.5-0.3,1.6-0.3,28.8v28.2H2.9H0v2.7V73h42h42v-2.7v-2.7H64.4z
			 M31.7,20.6V18h-6.4h-6.4v2.6v2.6h6.4h6.4V20.6z M31.7,32.9v-2.7h-6.4h-6.4v2.7v2.7h6.4h6.4V32.9z M65.1,32.9v-2.7h-6.4h-6.4v2.7
			v2.7h6.4h6.4V32.9z M31.7,45.3v-2.7h-6.4h-6.4v2.7v2.7h6.4h6.4V45.3z M65.1,45.3v-2.7h-6.4h-6.4v2.7v2.7h6.4h6.4V45.3z M18.9,55
			v2.6v2.6h6.4h6.4v-2.6V55h-6.4H18.9z M52.3,55v2.6v2.6h6.4h6.4v-2.6V55h-6.4H52.3z M72.9,58.2c0,0.1,0,1.3,0,2.5l0,2.3l2.7,0
			l2.7,0v-2.6V58h-2.6C73.6,58,73,58,72.9,58.2z"/>
	</g>
</g>
</svg>
