<?xml version="1.0" encoding="utf-8"?>
<!-- Generator: Adobe Illustrator 21.1.0, SVG Export Plug-In . SVG Version: 6.00 Build 0)  -->
<svg version="1.1" id="Layer_1" xmlns="http://www.w3.org/2000/svg" xmlns:xlink="http://www.w3.org/1999/xlink" x="0px" y="0px"
	 width="17px" height="10.9px" viewBox="0 0 17 10.9" style="enable-background:new 0 0 17 10.9;" xml:space="preserve">
<style type="text/css">
	.st0{fill:#fff;}
</style>
<g>
	<g>
		<path class="st0" d="M8.5,2.7C7,2.7,5.8,4,5.8,5.5S7,8.2,8.5,8.2c1.5,0,2.7-1.2,2.7-2.7S10,2.7,8.5,2.7z M8.3,4.7
			c-0.3,0-0.6,0.3-0.6,0.6H6.8c0-0.8,0.7-1.5,1.5-1.5V4.7z M16.8,4.9C15.9,3.8,12.6,0,8.5,0C4.4,0,1.1,3.8,0.2,4.9
			c-0.3,0.3-0.3,0.8,0,1.1c0.9,1.2,4.2,4.9,8.3,4.9c4.1,0,7.4-3.8,8.3-4.9C17.1,5.7,17.1,5.2,16.8,4.9z M8.5,9.4c-2.2,0-4-1.8-4-4
			c0-2.2,1.8-4,4-4c2.2,0,4,1.8,4,4C12.5,7.7,10.7,9.4,8.5,9.4z"/>
	</g>
</g>
</svg>
