<?xml version="1.0" encoding="utf-8"?>
<!-- Generator: Adobe Illustrator 21.1.0, SVG Export Plug-In . SVG Version: 6.00 Build 0)  -->
<svg version="1.1" id="Layer_1" xmlns="http://www.w3.org/2000/svg" xmlns:xlink="http://www.w3.org/1999/xlink" x="0px" y="0px"
	 width="25px" height="25px" viewBox="0 0 25 25" style="enable-background:new 0 0 25 25;" xml:space="preserve">
<style type="text/css">
	.st0{fill:#231942;}
</style>
<g>
	<g>
		<path class="st0" d="M5.5,2.9L5.5,3.3c-0.1,0.6,0,0.8,0.2,0.9c0.2,0.1,0.2,0.1,0.8-0.1L7.1,4l0.5,0.2c0.6,0.2,0.7,0.2,0.9,0.1
			c0.2-0.1,0.3-0.3,0.2-0.9l0-0.5l0.3-0.5c0.4-0.6,0.4-0.8,0.1-1.1C8.9,1.1,8.9,1.1,8.6,1.1C8,1.1,8,1.1,7.7,0.6
			C7.6,0.4,7.4,0.2,7.4,0.1C7.2,0,7,0,6.8,0.1C6.7,0.2,6.5,0.4,6.4,0.6C6.1,1.1,6.1,1.1,5.6,1.1C5.2,1.1,5.1,1.2,5,1.3
			c-0.1,0.3-0.1,0.4,0.2,1L5.5,2.9z M11,2.8l0,0.4C10.8,3.9,10.9,4,11,4.1c0.2,0.2,0.4,0.2,1,0.1L12.5,4L13,4.2
			c0.6,0.2,0.8,0.2,0.9,0c0.2-0.1,0.2-0.3,0.1-0.9L14,2.8l0.2-0.4c0.4-0.6,0.4-0.8,0.4-1c-0.1-0.2-0.3-0.4-0.6-0.4
			c-0.6,0-0.6,0-0.9-0.5c-0.1-0.2-0.3-0.4-0.3-0.5C12.7,0,12.4,0,12.3,0c-0.1,0.1-0.2,0.2-0.5,0.6C11.6,1,11.5,1.1,11,1.1
			c-0.3,0-0.6,0.1-0.6,0.4c-0.1,0.2,0,0.4,0.4,1L11,2.8z M16.4,2.8l0,0.5c0,0.6,0,0.8,0.2,0.9c0.2,0.1,0.3,0.1,0.9-0.1L17.9,4
			l0.5,0.2c0.6,0.2,0.6,0.2,0.8,0.1c0.3-0.1,0.3-0.3,0.2-0.9l-0.1-0.5l0.3-0.5c0.3-0.6,0.4-0.7,0.2-1c-0.1-0.2-0.3-0.3-0.6-0.3
			c-0.5,0-0.6,0-0.8-0.5C18.3,0.1,18.2,0,17.9,0c-0.1,0-0.2,0-0.3,0.1c-0.1,0.1-0.2,0.3-0.4,0.5C17,1.1,17,1.1,16.4,1.1
			c-0.2,0-0.3,0-0.4,0.2c-0.3,0.3-0.2,0.4,0.1,1.1L16.4,2.8z M9.8,21.2l0-1.1c0-1.2,0-1.2,0.3-1.8c0.3-0.6,0.9-1.1,1.6-1.3
			c0.5-0.1,1.2-0.1,1.6,0c0.6,0.2,1.3,0.7,1.6,1.3c0.3,0.5,0.3,0.6,0.3,1.8l0,1.1l4.1,0l4.1,0v-8v-8L23.2,5l-0.1-0.1l-10.8,0
			C5.1,4.9,1.4,4.9,1.3,5C1.3,5,1.2,5.1,1.2,5.2c-0.1,0.1-0.1,0.8-0.1,8.1v8l4.4,0L9.8,21.2z M16.3,6.8l0.1-0.1l0.1-0.1h1.8
			c1.2,0,1.9,0,1.9,0.1c0.1,0,0.2,0.1,0.2,0.2c0.1,0.1,0.1,0.4,0.1,2l0,1.8l-0.1,0.1l-0.1,0.1l-1.8,0c-1.6,0-1.8,0-2-0.1
			c-0.1,0-0.2-0.1-0.2-0.2c0-0.1-0.1-0.7-0.1-1.9V6.8z M16.3,11.7l0.1-0.1l0.1-0.1h1.8c1.2,0,1.9,0,1.9,0.1c0.1,0,0.2,0.1,0.2,0.2
			c0.1,0.1,0.1,0.4,0.1,2l0,1.8l-0.1,0.1l-0.1,0.1l-1.8,0c-1.6,0-1.8,0-2-0.1c-0.1,0-0.2-0.1-0.2-0.2c0-0.1-0.1-0.7-0.1-1.9V11.7z
			 M10.4,6.9c0.1-0.3,0.1-0.3,2.1-0.3c1.6,0,1.8,0,1.9,0.1c0.2,0.2,0.3,0.3,0.3,2.1c0,1.8,0,1.9-0.3,2.1c-0.1,0.1-0.4,0.1-1.9,0.1
			c-1.9,0-2,0-2.1-0.3C10.3,10.3,10.3,7.1,10.4,6.9z M10.4,11.8c0.1-0.3,0.1-0.3,2.1-0.3c1.6,0,1.8,0,1.9,0.1
			c0.2,0.2,0.3,0.3,0.3,2.1c0,1.8,0,1.9-0.3,2.1c-0.1,0.1-0.4,0.1-1.9,0.1c-1.9,0-2,0-2.1-0.3C10.3,15.2,10.3,12,10.4,11.8z
			 M4.4,6.8c0.1-0.1,0.1-0.2,0.2-0.2c0.1,0,0.8-0.1,1.9-0.1l1.8,0l0.1,0.1l0.1,0.1v1.8c0,1.2,0,1.9-0.1,1.9c0,0.1-0.1,0.2-0.2,0.2
			c-0.1,0.1-0.4,0.1-2,0.1l-1.8,0l-0.1-0.1l-0.1-0.1l0-1.8C4.3,7.2,4.3,6.9,4.4,6.8z M4.5,15.6l-0.1-0.1l0-1.8c0-1.6,0-1.8,0.1-2
			c0.1-0.1,0.1-0.2,0.2-0.2c0.1,0,0.8-0.1,1.9-0.1l1.8,0l0.1,0.1l0.1,0.1v1.8c0,1.2,0,1.9-0.1,1.9c0,0.1-0.1,0.2-0.2,0.2
			c-0.1,0.1-0.4,0.1-2,0.1l-1.8,0L4.5,15.6z M24.7,21.8c-0.3-0.1-24.1-0.1-24.3,0C0,21.9,0,22,0,23.4v1.3l0.1,0.1L0.3,25h12.2h12.2
			l0.1-0.1l0.1-0.1v-1.3C25,22,25,21.9,24.7,21.8z"/>
	</g>
</g>
</svg>
