<?xml version="1.0" encoding="utf-8"?>
<!-- Generator: Adobe Illustrator 21.1.0, SVG Export Plug-In . SVG Version: 6.00 Build 0)  -->
<svg version="1.1" id="Layer_1" xmlns="http://www.w3.org/2000/svg" xmlns:xlink="http://www.w3.org/1999/xlink" x="0px" y="0px"
	 width="25px" height="25px" viewBox="0 0 25 25" style="enable-background:new 0 0 25 25;" xml:space="preserve">
<style type="text/css">
	.st0{fill:#614371;}
</style>
<path class="st0" d="M11.3,0C8.9,0.3,6.5,1.2,4.7,2.8C1.6,5.2-0.1,9,0,12.8c0.1,1.9,0.5,3.5,1.3,5.2c1.6,3.3,4.6,5.6,8.1,6.6
	c2.5,0.6,5.2,0.5,7.6-0.5c1.7-0.7,3.1-1.6,4.4-3c1-1,1.7-2,2.3-3.2c0.6-1.2,0.9-2.3,1.1-3.6c0.2-1,0.2-2.7,0-3.7
	c-0.2-1.3-0.6-2.4-1.2-3.7c-0.6-1.2-1.3-2.2-2.2-3.2c-2-2-4.4-3.3-7.2-3.7C13.7,0,12,0,11.3,0z M13.7,0.8c2.6,0.3,5,1.4,6.9,3.2
	c4.3,4.1,4.8,10.7,1.3,15.5C21.6,20,20.6,21,20.6,21c0,0-0.1-0.2-0.1-0.4c-0.4-3-2.5-5.4-5.3-6.4L14.6,14l0.4-0.3
	c1-0.7,1.6-1.6,2-2.8c0.1-0.6,0.1-1.6,0-2.2c-0.5-2.1-2.4-3.5-4.5-3.5c-2.4,0-4.4,1.9-4.6,4.4c-0.1,0.8,0.2,1.8,0.6,2.6
	c0.3,0.5,0.9,1.2,1.4,1.5l0.4,0.3l-0.5,0.2c-2.9,1-4.9,3.5-5.4,6.4c0,0.2-0.1,0.4-0.1,0.4c-0.1,0-1-1-1.3-1.5
	C0.4,15.8,0,10.9,2.2,6.9c1.7-3.2,4.9-5.5,8.6-6c0.3,0,0.6-0.1,0.7-0.1C11.8,0.8,13.3,0.8,13.7,0.8z M13.2,6.1
	c1.5,0.3,2.6,1.3,3,2.8c0.1,0.5,0.2,1.4,0,1.9c-0.3,1.3-1.4,2.5-2.8,2.8c-0.5,0.1-1.4,0.1-1.9,0c-1.1-0.3-2-1-2.5-2
	c-0.3-0.6-0.4-1-0.4-1.7c0-1.1,0.4-2,1.2-2.8C10.8,6.2,12,5.8,13.2,6.1z M13.8,14.5c1.1,0.2,2.2,0.7,3.1,1.3
	c1.7,1.3,2.7,3.2,2.9,5.4l0,0.4L19.4,22c-0.6,0.4-1.1,0.7-1.9,1.1c-1.1,0.5-2.2,0.9-3.4,1.1c-0.8,0.1-2.5,0.1-3.2,0
	c-1.9-0.3-3.8-1-5.3-2.2l-0.4-0.3l0-0.4c0.2-2.2,1.2-4.1,2.9-5.4c1-0.8,2.2-1.3,3.7-1.4C12.2,14.4,13.4,14.4,13.8,14.5z"/>
</svg>
