<?xml version="1.0" encoding="utf-8"?>
<!-- Generator: Adobe Illustrator 21.1.0, SVG Export Plug-In . SVG Version: 6.00 Build 0)  -->
<svg version="1.1" id="Layer_1" xmlns="http://www.w3.org/2000/svg" xmlns:xlink="http://www.w3.org/1999/xlink" x="0px" y="0px"
	 width="12.7px" height="15px" viewBox="0 0 12.7 15" style="enable-background:new 0 0 12.7 15;" xml:space="preserve">
<style type="text/css">
	.st0{fill:#FF3506;}
</style>
<path class="st0" d="M11.2,6.2h-0.5V4.4C10.8,2,8.8,0,6.4,0S2,2,2,4.4v1.8H1.5C0.7,6.2,0,6.9,0,7.7v5.9C0,14.3,0.7,15,1.5,15h9.8
	c0.8,0,1.5-0.7,1.5-1.5V7.7C12.7,6.9,12.1,6.2,11.2,6.2z M8.8,6.2H3.9V4.4C3.9,3.1,5,2,6.4,2c1.3,0,2.4,1.1,2.4,2.4V6.2L8.8,6.2z"/>
</svg>
