<?xml version="1.0" encoding="utf-8"?>
<!-- Generator: Adobe Illustrator 21.1.0, SVG Export Plug-In . SVG Version: 6.00 Build 0)  -->
<svg version="1.1" id="Layer_1" xmlns="http://www.w3.org/2000/svg" xmlns:xlink="http://www.w3.org/1999/xlink" x="0px" y="0px"
	 width="25px" height="25px" viewBox="0 0 25 25" style="enable-background:new 0 0 25 25;" xml:space="preserve">
<style type="text/css">
	.st0{fill:#FFB0BF;}
</style>
<path class="st0" d="M4.7,2.2L2.5,4.4v1.1v1.1l-1,0.6C1,7.5,0.4,7.9,0.3,8C0,8.3,0,7.8,0,16.3c0,5.9,0,7.7,0.1,7.9
	c0.1,0.3,0.5,0.7,0.8,0.8C1,25,3.7,25,12.5,25c12.9,0,11.7,0,12.1-0.4c0.1-0.1,0.3-0.3,0.3-0.5C25,24,25,22,25,16.3
	c0-8.5,0-7.9-0.3-8.3c-0.1-0.1-0.6-0.5-1.2-0.8l-1-0.6V3.4V0.3l-0.1-0.1L22.2,0h-7.7H6.9L4.7,2.2z M21.7,5.7v4.8l-4.2,2.6
	c-2.3,1.4-4.3,2.7-4.4,2.7c-0.3,0.1-0.7,0.2-1,0c-0.1,0-2.1-1.3-4.4-2.7l-4.2-2.6l0-2.7V5h1.6c1.8,0,1.9,0,2.3-0.4
	c0.1-0.1,0.3-0.3,0.3-0.5c0-0.1,0.1-0.7,0.1-1.7V0.8h7.1h7.1V5.7z M6.7,2.7v1.2L6.5,4L6.4,4.2H5.2H3.9l1.4-1.4
	C6,2.1,6.6,1.5,6.7,1.5C6.7,1.5,6.7,2,6.7,2.7z M2.5,9.3l0,0.6L1.7,9.4C0.5,8.7,0.5,8.7,1.7,8l0.7-0.4l0,0.6C2.5,8.5,2.5,9,2.5,9.3z
	 M23.3,8c1.1,0.7,1.1,0.7,0.1,1.4c-0.4,0.3-0.8,0.5-0.8,0.5c-0.1,0-0.1-0.2-0.1-1.2c0-0.7,0-1.2,0-1.2C22.6,7.6,22.9,7.8,23.3,8z
	 M6.2,13.2c2.9,1.8,5.4,3.3,5.5,3.4c0.3,0.2,1.2,0.2,1.6,0c0.1-0.1,2.6-1.6,5.5-3.4s5.3-3.3,5.3-3.3c0,0,0,3.1,0,7v7L24,24l-0.1,0.1
	H12.5H1.1L1,24l-0.1-0.1v-7c0-3.8,0-7,0-7S3.3,11.4,6.2,13.2z"/>
<path class="st0" d="M8.9,3.5C8.8,3.5,8.8,3.7,8.8,3.7S8.8,4,8.9,4C9,4.1,9.1,4.2,9.3,4.2h0.3l0,1c0,0.9,0,1-0.1,1.1
	C9.2,6.6,9.1,6.6,8.8,6.6C8.3,6.6,8,6.4,7.9,5.9C7.8,5.4,7.5,5.3,7.2,5.6C7.1,5.7,7.1,5.7,7.1,6C7.2,6.6,7.5,7,8,7.3
	c0.3,0.2,0.4,0.2,0.8,0.2c0.4,0,0.5,0,0.7-0.1C9.8,7.1,10,7,10.2,6.6l0.2-0.3l0-1.3l0-1.3l-0.1-0.1c-0.1-0.1-0.2-0.1-0.7-0.1
	C9,3.3,9,3.3,8.9,3.5z"/>
<path class="st0" d="M12.5,3.4c-0.5,0.1-0.9,0.5-1.1,0.9c-0.1,0.2-0.1,0.3-0.1,1.1c0,0.8,0,0.9,0.1,1.1c0.2,0.4,0.4,0.6,0.7,0.8
	c0.3,0.2,0.4,0.2,0.8,0.2c0.4,0,0.5,0,0.7-0.1C14,7.1,14.2,7,14.4,6.6l0.2-0.3V5.4V4.6l-0.2-0.3c-0.3-0.5-0.7-0.8-1.4-0.9
	C12.8,3.3,12.6,3.4,12.5,3.4z M13.4,4.3c0.3,0.2,0.3,0.3,0.3,1.1c0,0.6,0,0.7-0.1,0.9c-0.2,0.3-0.4,0.4-0.7,0.4s-0.5-0.1-0.7-0.4
	c-0.1-0.1-0.1-0.2-0.1-0.7c0-0.3,0-0.7,0-0.7c0-0.2,0.3-0.5,0.5-0.6C12.8,4.1,13.2,4.2,13.4,4.3z"/>
<path class="st0" d="M15.5,3.5l-0.1,0.1v1.8v1.8l0.1,0.1c0.1,0.1,0.1,0.1,1.1,0.1c1.2,0,1.3,0,1.7-0.4c0.4-0.4,0.5-0.9,0.2-1.4
	l-0.2-0.3l0.2-0.3c0.3-0.5,0.2-1-0.2-1.4c-0.4-0.4-0.5-0.4-1.7-0.4C15.7,3.3,15.7,3.3,15.5,3.5z M17.8,4.3c0.1,0.1,0.1,0.2,0.1,0.3
	s0,0.2-0.1,0.3C17.7,5,17.6,5,17,5h-0.7V4.6V4.2H17C17.6,4.2,17.7,4.2,17.8,4.3z M17.8,6c0.1,0.1,0.1,0.2,0.1,0.3s0,0.2-0.1,0.3
	c-0.1,0.1-0.2,0.1-0.8,0.1h-0.7V6.2V5.8H17C17.6,5.8,17.7,5.8,17.8,6z"/>
<path class="st0" d="M4.3,8.5C4.2,8.5,4.2,8.7,4.2,8.7c0,0.1,0,0.2,0.1,0.3l0.1,0.1h8.1h8.1L20.7,9c0.2-0.2,0.2-0.4,0-0.6l-0.1-0.1
	h-8.1H4.4L4.3,8.5z"/>
<path class="st0" d="M7.2,10.1c-0.1,0.1-0.1,0.2-0.1,0.3c0,0.1,0,0.2,0.1,0.3l0.1,0.1h5.6h5.6l0.1-0.1c0.1-0.1,0.1-0.2,0.1-0.3
	c0-0.1,0-0.2-0.1-0.3L18.5,10h-5.6H7.3L7.2,10.1z"/>
<path class="st0" d="M8,11.8C8,11.9,7.9,12,7.9,12.1c0,0.1,0,0.2,0.1,0.3l0.1,0.1h4.5h4.5l0.1-0.1c0.1-0.1,0.1-0.2,0.1-0.3
	c0-0.1,0-0.2-0.1-0.3l-0.1-0.1h-4.5H8.2L8,11.8z"/>
<path class="st0" d="M10.1,13.5C10,13.5,10,13.7,10,13.7c0,0.1,0,0.2,0.1,0.3l0.1,0.1h2.2h2.2l0.1-0.1C15,14,15,13.8,15,13.7
	c0-0.1,0-0.2-0.1-0.3l-0.1-0.1h-2.2h-2.2L10.1,13.5z"/>
</svg>
