<?xml version="1.0" encoding="utf-8"?>
<!-- Generator: Adobe Illustrator 21.1.0, SVG Export Plug-In . SVG Version: 6.00 Build 0)  -->
<svg version="1.1" id="Capa_1" xmlns="http://www.w3.org/2000/svg" xmlns:xlink="http://www.w3.org/1999/xlink" x="0px" y="0px"
	 width="14px" height="14px" viewBox="-38.4 151.6 14 14" style="enable-background:new -38.4 151.6 14 14;" xml:space="preserve">
<style type="text/css">
	.st0{fill:#F64668;}
	.st1{fill:#FAFAFA;}
</style>
<path class="st0" d="M-31.4,151.6c-3.9,0-7,3.1-7,7c0,3.9,3.1,7,7,7c3.9,0,7-3.1,7-7C-24.4,154.7-27.6,151.6-31.4,151.6z"/>
<path class="st1" d="M-32.4,161.2c-0.1,0-0.2-0.1-0.2-0.2c0-0.1,0-0.1,0.1-0.1l2.3-2.3l-2.3-2.3c-0.1-0.1-0.1-0.2,0-0.3
	c0.1-0.1,0.2-0.1,0.3,0l2.4,2.4c0.1,0.1,0.1,0.2,0,0.3l-2.4,2.4C-32.3,161.2-32.3,161.2-32.4,161.2z"/>
</svg>
