<?xml version="1.0" encoding="utf-8"?>
<!-- Generator: Adobe Illustrator 21.1.0, SVG Export Plug-In . SVG Version: 6.00 Build 0)  -->
<svg version="1.1" id="Layer_1" xmlns="http://www.w3.org/2000/svg" xmlns:xlink="http://www.w3.org/1999/xlink" x="0px" y="0px"
	 width="4.9px" height="8.4px" viewBox="0 0 4.9 8.4" style="enable-background:new 0 0 4.9 8.4;" xml:space="preserve">
<style type="text/css">
	.st0{fill:#C4C4C4;}
</style>
<path class="st0" d="M1.1,0.1C1,0,0.9,0,0.7,0S0.5,0,0.4,0.1L0.1,0.4C0,0.6,0,0.9,0.1,1.1l3.1,3.1L0.1,7.3C0,7.4,0,7.5,0,7.7
	C0,7.8,0,7.9,0.1,8l0.3,0.3c0.1,0.1,0.2,0.1,0.3,0.1c0.1,0,0.2,0,0.3-0.1l3.7-3.7c0.1-0.1,0.1-0.2,0.1-0.3c0-0.1,0-0.2-0.1-0.3
	L1.1,0.1z"/>
</svg>
