<?xml version="1.0" encoding="utf-8"?>
<!-- Generator: Adobe Illustrator 21.1.0, SVG Export Plug-In . SVG Version: 6.00 Build 0)  -->
<svg version="1.1" id="Layer_1" xmlns="http://www.w3.org/2000/svg" xmlns:xlink="http://www.w3.org/1999/xlink" x="0px" y="0px"
	 width="25px" height="25px" viewBox="0 0 25 25" style="enable-background:new 0 0 25 25;" xml:space="preserve">
<style type="text/css">
	.st0{fill:#41436a;}
</style>
<g>
	<g>
		<path class="st0" d="M20.6,13.5h-9.2V4.3c0-0.4-0.3-0.8-0.8-0.8C4.8,3.6,0,8.4,0,14.3C0,20.2,4.8,25,10.7,25
			c5.9,0,10.7-4.8,10.7-10.7C21.4,13.8,21,13.5,20.6,13.5z M10.7,23.4c-5.1,0-9.2-4.1-9.2-9.2c0-4.8,3.7-8.8,8.4-9.1v9.1
			c0,0.4,0.3,0.8,0.8,0.8h9.1C19.4,19.7,15.5,23.4,10.7,23.4z M14.3,0c-0.4,0-0.8,0.3-0.8,0.8v9.9c0,0.4,0.3,0.8,0.8,0.8h9.9
			c0.4,0,0.8-0.3,0.8-0.8C25,4.8,20.2,0,14.3,0z M15,9.9V1.6c4.5,0.4,8,3.9,8.4,8.4H15z"/>
	</g>
</g>
</svg>
