<?xml version="1.0" encoding="utf-8"?>
<!-- Generator: Adobe Illustrator 21.1.0, SVG Export Plug-In . SVG Version: 6.00 Build 0)  -->
<svg version="1.1" id="Layer_1" xmlns="http://www.w3.org/2000/svg" xmlns:xlink="http://www.w3.org/1999/xlink" x="0px" y="0px"
	 width="25px" height="25px" viewBox="0 0 25 25" style="enable-background:new 0 0 25 25;" xml:space="preserve">
<style type="text/css">
	.st0{fill:#614371;}
</style>
<path class="st0" d="M11.9,0.1c-0.5,0.1-0.9,0.4-1.2,0.7c-0.3,0.3-0.4,0.6-1.6,3.1C8.4,5.4,7.8,6.6,7.8,6.7c0,0-1.3,0.3-3,0.5
	C3.2,7.4,1.7,7.7,1.6,7.7c-1.4,0.5-2,2.4-1.2,3.7c0.1,0.1,1.1,1.3,2.3,2.5l2.2,2.2l-0.5,2.8c-0.4,2.3-0.5,2.9-0.5,3.5
	c0,0.7,0,0.7,0.2,1.2c0.3,0.5,0.7,0.9,1.2,1.2C5.7,25,5.8,25,6.4,25c0.8,0,0.6,0.1,3.8-1.7c1.3-0.7,2.4-1.3,2.4-1.3
	c0,0,1.2,0.6,2.6,1.4c1.4,0.8,2.7,1.5,2.9,1.5c0.2,0.1,0.5,0.1,0.8,0.1c0.9,0,1.7-0.5,2.1-1.4c0.4-0.7,0.3-0.9-0.2-4.4
	c-0.3-1.6-0.5-3-0.5-3c0-0.1,0.7-0.8,2.1-2.3c1.2-1.2,2.2-2.3,2.3-2.4c0.5-0.8,0.5-2-0.1-2.8c-0.3-0.4-0.8-0.8-1.2-0.9
	c-0.2-0.1-1.6-0.3-3.2-0.5l-2.9-0.4L16,3.9c-1.2-2.5-1.3-2.8-1.6-3.1C13.7,0.1,12.8-0.2,11.9,0.1z M13.8,5.3
	c1.1,2.4,1.3,2.8,1.6,3.1c0.3,0.4,0.6,0.6,1,0.7c0.1,0.1,1.5,0.3,3.1,0.6c1.6,0.3,2.9,0.5,2.9,0.5s-0.9,1-2.1,2.2
	c-1.2,1.2-2.2,2.3-2.3,2.4c-0.2,0.3-0.4,0.9-0.4,1.4c0,0.2,0.2,1.7,0.5,3.3c0.3,1.6,0.5,3,0.5,3c0,0-1.1-0.5-2.3-1.2
	c-3.1-1.7-3-1.7-3.8-1.7c-0.8,0-0.5-0.1-3.7,1.6c-1.3,0.7-2.4,1.3-2.4,1.3c0,0,0.2-1.4,0.5-3c0.3-1.6,0.5-3.1,0.5-3.4
	c0-0.5-0.2-1.1-0.4-1.4c-0.1-0.1-1.1-1.3-2.3-2.4c-1.2-1.2-2.1-2.2-2.1-2.2c0,0,1.3-0.2,2.8-0.4c1.6-0.2,3-0.5,3.1-0.5
	C8.9,9,9.2,8.8,9.6,8.4c0.3-0.3,0.4-0.6,1.6-3.1c0.7-1.5,1.3-2.8,1.3-2.8C12.5,2.5,13.1,3.8,13.8,5.3z"/>
</svg>
