<?xml version="1.0" encoding="utf-8"?>
<!-- Generator: Adobe Illustrator 21.1.0, SVG Export Plug-In . SVG Version: 6.00 Build 0)  -->
<svg version="1.1" id="Layer_1" xmlns="http://www.w3.org/2000/svg" xmlns:xlink="http://www.w3.org/1999/xlink" x="0px" y="0px"
	 width="59px" height="44px" viewBox="0 0 59 44" style="enable-background:new 0 0 59 44;" xml:space="preserve">
<style type="text/css">
	.st0{fill:#866298;}
</style>
<g>
	<g>
		<path class="st0" d="M16.7,15v-1.1c0-2,0.6-3.4,1.8-4.6c0.8-0.8,1.8-1.4,2.8-1.7c1-0.3,15.2-0.3,16.2,0c1,0.3,2,0.8,2.8,1.7
			c1.3,1.3,1.8,2.7,1.8,4.6V15H47h4.7l0-4.9c0-4.7-0.1-4.9-0.3-5.7c-0.7-2-2.2-3.5-4.3-4.2C46.4,0,45.6,0,29.9,0
			c-9.1,0-16.8,0-17.1,0.1c-1.3,0.2-2.6,0.9-3.5,1.8C8.7,2.5,8,3.6,7.7,4.4c-0.2,0.7-0.3,1-0.3,5.7l0,4.9H12H16.7z M29.5,10.9
			c-6.7,0-7.2,0-7.7,0.2c-1.1,0.5-1.7,1.4-1.7,2.9v1h9.3h9.3v-1c0-1.1-0.2-1.7-0.8-2.3C37.2,10.8,37.5,10.9,29.5,10.9z M59,29.5
			v-2.7c0-2.3,0-2.8-0.2-3.6c-0.3-1.1-0.7-1.8-1.5-2.7c-0.7-0.8-1.5-1.3-2.6-1.7L54,18.5l-24.2,0c-13.3,0-24.3,0-24.5,0
			c-2.2,0.4-4.1,2-5,4.2c-0.2,0.6-0.3,0.9-0.3,3.7l0,3h29.5H59z M29.5,32.9H0l0,5c0,4.8,0,5,0.3,5.3C0.7,43.8,1.2,44,1.8,44
			c0.6,0,1-0.2,1.4-0.8c0.2-0.3,0.3-0.5,0.3-1.6l0-1.3h26h26l0,1.3c0,1.1,0.1,1.3,0.3,1.6c0.4,0.6,0.8,0.8,1.4,0.8
			c0.6,0,1-0.2,1.4-0.8c0.2-0.3,0.2-0.5,0.3-5.3l0-5H29.5z"/>
	</g>
</g>
</svg>
