<?xml version="1.0" encoding="utf-8"?>
<!-- Generator: Adobe Illustrator 21.1.0, SVG Export Plug-In . SVG Version: 6.00 Build 0)  -->
<svg version="1.1" id="Layer_1" xmlns="http://www.w3.org/2000/svg" xmlns:xlink="http://www.w3.org/1999/xlink" x="0px" y="0px"
	 width="54.1px" height="45.9px" viewBox="0 0 54.1 45.9" style="enable-background:new 0 0 54.1 45.9;" xml:space="preserve">
<style type="text/css">
	.st0{fill:#E9E5EE;}
</style>
<g>
	<g>
		<path class="st0" d="M15.9,24.3L15.5,24h-2h-2l0.1-1.7c0.1-4.1,1.6-7.4,4.5-10.3c2.9-2.9,6.3-4.4,10.4-4.5c1.5,0,1.9,0,3,0.2
			c2.8,0.5,5.1,1.5,7.3,3.3l0.8,0.7l0.4-0.4c0.2-0.2,1.3-1.5,2.4-2.8l2.1-2.4l-0.8-0.6c-1.9-1.6-4.8-3.3-7-4c-1.3-0.5-3.4-1-4.8-1.1
			c-1.6-0.2-4.5-0.2-6.1,0C17.3,1.1,11.2,5.1,7.6,10.9c-2.1,3.4-3.3,7.7-3.3,11.7V24H2.5H0.8l-0.4,0.4c-0.5,0.4-0.6,1.1-0.3,1.6
			c0.3,0.5,7.9,9.2,8,9.2c0.1,0,7.7-8.8,8-9.2C16.5,25.4,16.4,24.8,15.9,24.3z M54,22c-0.1-0.2-7.3-8.5-7.9-9.2c0,0-1.9,2-4,4.5
			c-2.2,2.5-4,4.7-4.1,4.9c-0.2,0.5-0.1,1.1,0.3,1.5l0.4,0.4h2h2l-0.1,0.5c-0.5,3.9-1.9,6.8-4.5,9.4c-2.4,2.4-5.1,3.8-8.4,4.4
			c-1.1,0.2-1.5,0.2-3,0.2c-3.1-0.1-5.6-0.9-8.1-2.6c-0.9-0.6-0.9-0.6-1.1-0.4c-0.1,0.1-1.2,1.4-2.4,2.8c-2.1,2.4-2.2,2.6-2,2.8
			c0.3,0.3,2.5,1.7,3.5,2.3c6.3,3.3,14.2,3.4,20.7,0.2c2.4-1.2,4.3-2.6,6.3-4.6c2.9-3,4.8-6.3,5.8-10.2c0.3-1.3,0.7-3.6,0.7-4.3V24
			h1.7h1.7l0.4-0.4C54.2,23.2,54.3,22.5,54,22z"/>
	</g>
</g>
</svg>
