<?xml version="1.0" encoding="utf-8"?>
<!-- Generator: Adobe Illustrator 21.1.0, SVG Export Plug-In . SVG Version: 6.00 Build 0)  -->
<svg version="1.1" id="Layer_1" xmlns="http://www.w3.org/2000/svg" xmlns:xlink="http://www.w3.org/1999/xlink" x="0px" y="0px"
	 width="59px" height="58.9px" viewBox="0 0 59 58.9" style="enable-background:new 0 0 59 58.9;" xml:space="preserve">
<style type="text/css">
	.Drop_x0020_Shadow{fill:none;}
	.Round_x0020_Corners_x0020_2_x0020_pt{fill:#FFFFFF;stroke:#000000;stroke-miterlimit:10;}
	.Live_x0020_Reflect_x0020_X{fill:none;}
	.Bevel_x0020_Soft{fill:url(#SVGID_1_);}
	.Dusk{fill:#FFFFFF;}
	.Foliage_GS{fill:#FFDD00;}
	.Pompadour_GS{fill-rule:evenodd;clip-rule:evenodd;fill:#44ADE2;}
	.st0{fill:#5E548E;}
</style>
<linearGradient id="SVGID_1_" gradientUnits="userSpaceOnUse" x1="-971.4976" y1="-970.0417" x2="-970.7905" y2="-969.3347">
	<stop  offset="0" style="stop-color:#DEDFE3"/>
	<stop  offset="0.1738" style="stop-color:#D8D9DD"/>
	<stop  offset="0.352" style="stop-color:#C9CACD"/>
	<stop  offset="0.5323" style="stop-color:#B4B5B8"/>
	<stop  offset="0.7139" style="stop-color:#989A9C"/>
	<stop  offset="0.8949" style="stop-color:#797C7E"/>
	<stop  offset="1" style="stop-color:#656B6C"/>
</linearGradient>
<g>
	<g>
		<path class="st0" d="M58.9,25.8c-1-6.7-3.7-12.4-8.3-17c-4.7-4.7-10.4-7.6-17-8.6c-1.4-0.2-5.5-0.3-6.9-0.1C17.5,1,9.4,6,4.5,13.9
			c-5.6,8.9-6,20.5-0.9,29.7c1.3,2.5,2.9,4.6,5,6.6c2.4,2.5,4.9,4.2,8,5.7c3,1.5,5.9,2.3,9.3,2.8c1.4,0.2,5.9,0.2,7.3,0
			c7.2-1,13.3-4.2,18.1-9.4c4-4.4,6.6-10,7.5-16.2C59,31.7,59,27.2,58.9,25.8z M52.9,41c-4.8,9.7-15,15.4-25.7,14.4
			C14.7,54.3,4.7,44.3,3.6,31.9C2.4,19.8,9.9,8.5,21.4,4.7c3.4-1.1,7-1.5,10.6-1.2C41,4.4,48.8,9.8,52.9,18
			C56.5,25.2,56.5,33.7,52.9,41z M39.3,15.6L32.9,22l-6.4,6.4l-3.3-3.3l-3.3-3.3L15.5,26l-4.3,4.3l7.6,7.6l7.6,7.6l10.7-10.7
			l10.7-10.7l-4.3-4.3L39.3,15.6z M34.7,32.4l-8.3,8.3l-5.1-5.1c-2.8-2.8-5.1-5.2-5.1-5.2c0-0.1,0.8-0.9,1.8-1.9l1.8-1.8l3.4,3.4
			l3.4,3.4l6.4-6.4c3.5-3.5,6.4-6.4,6.5-6.4c0,0,0.9,0.8,1.8,1.8l1.8,1.8L34.7,32.4z"/>
	</g>
</g>
</svg>
