<?xml version="1.0" encoding="utf-8"?>
<!-- Generator: Adobe Illustrator 21.1.0, SVG Export Plug-In . SVG Version: 6.00 Build 0)  -->
<svg version="1.1" id="Layer_1" xmlns="http://www.w3.org/2000/svg" xmlns:xlink="http://www.w3.org/1999/xlink" x="0px" y="0px"
	 width="14px" height="9px" viewBox="0 0 14 9" style="enable-background:new 0 0 14 9;" xml:space="preserve">
<style type="text/css">
	.st0{fill:#614371;}
</style>
<g>
	<g>
		<path class="st0" d="M13.5,3.6c-1.1-1.2-2.3-2.2-3.5-2.8C9.2,0.4,8.5,0.1,7.8,0C7.4,0,6.6,0,6.2,0C4.5,0.3,2.8,1.3,1.1,2.9
			c-0.5,0.5-0.9,1-1,1.2C0,4.2,0,4.3,0,4.5c0,0.3,0.1,0.4,0.4,0.8c1.2,1.4,2.8,2.6,4.1,3.2C5.5,8.9,6.2,9,7.2,9
			c0.9,0,1.7-0.2,2.6-0.6c1.1-0.5,2.4-1.5,3.4-2.6C13.9,5,14,4.9,14,4.5C14,4.2,13.9,4.1,13.5,3.6z M8.8,6.9C8.3,7.3,7.7,7.5,7,7.5
			c-1.7,0-3-1.3-3-3C4,3.7,4.3,3,4.8,2.4c0.3-0.3,0.7-0.6,1.1-0.7c0.2-0.1,0.5-0.2,0.7-0.2c0.2,0,0.8,0,1,0C7.9,1.6,8.3,1.8,8.7,2
			c0.2,0.1,0.7,0.6,0.8,0.8C9.8,3.3,10,3.9,10,4.5C10,5.5,9.6,6.3,8.8,6.9z M8.7,3.1C8.4,2.8,7.9,2.5,7.5,2.4
			c-0.2-0.1-0.6-0.1-0.8,0c-0.5,0.1-1,0.4-1.4,0.8C5.2,3.4,5,3.7,4.9,4C4.8,4.3,4.8,4.8,4.9,5c0.2,0.8,0.8,1.3,1.6,1.5
			c0.3,0.1,0.8,0.1,1.1,0C8.7,6.3,9.4,5.1,9.1,4C9,3.7,8.8,3.3,8.7,3.1z"/>
	</g>
</g>
</svg>
