<?xml version="1.0" encoding="utf-8"?>
<!-- Generator: Adobe Illustrator 21.1.0, SVG Export Plug-In . SVG Version: 6.00 Build 0)  -->
<svg version="1.1" id="Layer_1" xmlns="http://www.w3.org/2000/svg" xmlns:xlink="http://www.w3.org/1999/xlink" x="0px" y="0px"
	 width="51px" height="57.9px" viewBox="0 0 51 57.9" style="enable-background:new 0 0 51 57.9;" xml:space="preserve">
<style type="text/css">
	.st0{fill:#231842;}
</style>
<g>
	<g>
		<path class="st0" d="M27.1,6.9L27,6.4C26.2,3,23.7,1,19.2,0.2C18.3,0.1,13.7-0.1,13,0c-0.2,0-0.7,0.1-1.2,0.2
			C7.2,0.8,4.4,3,3.6,6.4L3.5,6.9h11.8H27.1z M28.3,10.3h-13h-13l-1.2,2.3C0.4,14.2,0,15.1,0,15.3c0,0.6,0.4,1.2,0.9,1.5
			c0.4,0.2,0.6,0.2,14.4,0.2c13.8,0,14,0,14.4-0.2c0.5-0.3,0.9-0.9,0.9-1.5c0-0.2-0.4-1.2-1.2-2.7L28.3,10.3z M20.4,33.9l0.6-0.2
			c2.7-0.7,5-3,5.9-5.9c0.2-0.7,0.2-1.1,0.3-4.1l0.1-3.3H15.3H3.4l0.1,3.3c0,3.5,0.1,3.8,0.7,5.2c0.6,1.3,2.1,3.1,3.5,3.8
			c0.4,0.2,1.1,0.6,1.7,0.7l0.9,0.3l0,1.8v1.8H9.8H9.4l2.9,4.4c1.6,2.4,2.9,4.4,3,4.4c0,0,1.4-2,3-4.4l2.9-4.4h-0.4h-0.4v-1.8V33.9z
			 M50.8,34.9c-0.2-0.4-0.5-0.6-7.4-4.1c-7.7-3.9-7.6-3.8-8.4-3.4c-0.3,0.1-0.5,0.4-0.7,0.7C34,28.6,34,28.8,34,42.6
			c0,13.8,0,14,0.2,14.4c0.3,0.5,0.9,0.9,1.5,0.9c0.6,0,1.2-0.4,1.5-0.9c0.2-0.4,0.2-0.7,0.2-6.9v-6.5l6.6-3.3
			c6.3-3.2,6.6-3.3,6.8-3.7C51.1,36,51.1,35.5,50.8,34.9z M8.9,42.8C7.2,40.2,5.7,38,5.6,38c-0.1,0-0.4,0.1-0.7,0.3
			c-2.1,1-3.8,2.9-4.6,5.3c-0.3,0.8-0.3,0.9-0.3,6.9c0,6,0,6.1,0.2,6.5c0.1,0.3,0.4,0.5,0.7,0.7c0.4,0.2,0.7,0.2,4,0.2h3.6v-4.5
			c0-5.1,0-5.1,0.9-5.6c0.4-0.2,0.6-0.2,1.6-0.2h1.1L8.9,42.8z M30.3,43.6c-0.6-1.9-1.8-3.5-3.2-4.5c-0.7-0.5-1.8-1.1-2-1.1
			c-0.1,0-1.6,2.2-3.3,4.8l-3.2,4.8h1.1c1.4,0,1.9,0.2,2.3,0.9c0.2,0.4,0.2,0.7,0.2,4.9v4.5h3.6c3.4,0,3.6,0,4-0.2
			c0.3-0.1,0.5-0.4,0.7-0.7c0.2-0.5,0.2-0.6,0.2-6.5C30.5,44.5,30.5,44.4,30.3,43.6z M11.9,51v3.5v3.5h3.4h3.4v-3.5V51h-3.4H11.9z"
			/>
	</g>
</g>
</svg>
