<?xml version="1.0" encoding="utf-8"?>
<!-- Generator: Adobe Illustrator 21.1.0, SVG Export Plug-In . SVG Version: 6.00 Build 0)  -->
<svg version="1.1" id="Layer_1" xmlns="http://www.w3.org/2000/svg" xmlns:xlink="http://www.w3.org/1999/xlink" x="0px" y="0px"
	 width="55px" height="52px" viewBox="0 0 55 52" style="enable-background:new 0 0 55 52;" xml:space="preserve">
<style type="text/css">
	.Drop_x0020_Shadow{fill:none;}
	.Round_x0020_Corners_x0020_2_x0020_pt{fill:#FFFFFF;stroke:#000000;stroke-miterlimit:10;}
	.Live_x0020_Reflect_x0020_X{fill:none;}
	.Bevel_x0020_Soft{fill:url(#SVGID_1_);}
	.Dusk{fill:#FFFFFF;}
	.Foliage_GS{fill:#FFDD00;}
	.Pompadour_GS{fill-rule:evenodd;clip-rule:evenodd;fill:#44ADE2;}
	.st0{fill:#231842;}
</style>
<linearGradient id="SVGID_1_" gradientUnits="userSpaceOnUse" x1="-972.4979" y1="-974.0013" x2="-971.7908" y2="-973.2942">
	<stop  offset="0" style="stop-color:#DEDFE3"/>
	<stop  offset="0.1738" style="stop-color:#D8D9DD"/>
	<stop  offset="0.352" style="stop-color:#C9CACD"/>
	<stop  offset="0.5323" style="stop-color:#B4B5B8"/>
	<stop  offset="0.7139" style="stop-color:#989A9C"/>
	<stop  offset="0.8949" style="stop-color:#797C7E"/>
	<stop  offset="1" style="stop-color:#656B6C"/>
</linearGradient>
<g>
	<g>
		<path class="st0" d="M2.4,20c0.3,0,2.3-1.3,12.5-8.3c10.4-7.1,12.2-8.3,12.6-8.3c0.4,0,2.2,1.2,12.5,8.2
			c9.3,6.3,12.2,8.2,12.5,8.3c1.1,0.2,1.9-1,1.4-1.9c-0.1-0.2-4-2.9-13.2-9.2C33.5,4,27.6,0,27.6,0c-0.1,0-6,3.9-13.1,8.8
			c-7.9,5.4-13.1,9-13.2,9.2C0.6,18.8,1.2,20,2.4,20z M41.8,7.3l1.3,0.9c0.7,0.5,1.4,0.9,1.4,0.9c0,0,0-1.3,0-2.9V3.5h-1.4h-1.4
			l0,1.9L41.8,7.3z M54.7,46.7l-0.3-0.3h-3h-3l0-13.4l0-13.4l-10.4-7c-5.7-3.9-10.4-7-10.4-7S22.8,8.7,17,12.6L6.6,19.7V33v13.3h-3
			h-3l-0.3,0.3c-0.4,0.4-0.4,0.9,0,1.3l0.3,0.3h5.9h5.9V36.9V25.5l0.3-0.3l0.3-0.3h14.6h14.6l0.3,0.3l0.3,0.3v11.4v11.4h5.9h5.9
			l0.3-0.3C55.1,47.6,55.1,47.1,54.7,46.7z M33.1,15.4c-0.4,2.5-2.3,4.4-4.8,4.7c-3.9,0.6-7.3-3.1-6.3-6.8c0.8-3,3.9-4.9,6.9-4.1
			C31.7,10,33.5,12.6,33.1,15.4z M26.5,13.7c0,0,0-0.6,0-1.3l0-1.3l-0.6,0.3c-0.8,0.4-1.4,1-1.8,1.8l-0.3,0.6l1.3,0
			C25.9,13.7,26.5,13.7,26.5,13.7z M28.7,11.2L28.4,11v1.3v1.3h1.4h1.4l-0.1-0.3C30.6,12.3,29.9,11.6,28.7,11.2z M23.8,15.6l0.1,0.3
			c0.4,1.1,1.2,1.9,2.3,2.3l0.3,0.1v-1.3v-1.3h-1.4H23.8z M28.4,15.6v1.3v1.3l0.3-0.1c1.1-0.4,1.9-1.2,2.3-2.3l0.1-0.3h-1.4H28.4z
			 M14.2,26.8v12.6V52h13.3h13.3V39.4V26.8H27.5H14.2z M28.4,27.9c0.7,0.2,1.6,1.2,1.8,1.8c0.2,0.6,0.2,1.2,0,1.7L30,31.8l0.7,0.3
			c2.4,0.8,4.6,3,5.6,5.4c0.4,0.9,0.7,2.3,0.7,3.1c0,0.4,0,0.5,0.2,0.5c0.1,0,0.5,0.3,0.8,0.6c0.9,0.9,1.1,1.7,0.8,2.8
			c-0.2,0.6-1.2,1.6-1.7,1.8c-0.3,0.1-0.5,0.3-1.2,1.8c-0.5,1-1,1.8-1.1,1.9c-0.3,0.2-14,0.2-14.3,0c-0.1-0.1-0.6-1-1.1-1.9
			c-0.8-1.6-0.9-1.8-1.2-1.8c-0.5-0.1-1.5-1.2-1.7-1.8c-0.3-1.1-0.1-2,0.8-2.8c0.3-0.3,0.7-0.6,0.8-0.6c0.1,0,0.2-0.1,0.2-0.5
			c0-0.8,0.3-2.2,0.7-3.1c0.9-2.4,3.1-4.5,5.6-5.4l0.7-0.2l-0.2-0.4c-0.4-0.9-0.1-2,0.7-2.8C26.4,27.8,27.3,27.6,28.4,27.9z
			 M27.5,31.5c0.5,0,0.9-0.5,0.9-0.9c0-0.5-0.5-0.9-0.9-0.9c-0.2,0-0.5,0.1-0.7,0.3C26.3,30.5,26.7,31.5,27.5,31.5z M20.8,37.4
			c-0.5,1-0.8,2.2-0.9,3v0.4h7.6h7.6L35,40c-0.4-3.7-3.8-6.7-7.6-6.7c-0.5,0-1.2,0.1-1.6,0.2C23.8,34,21.7,35.5,20.8,37.4z
			 M26.9,34.5c0.3-0.3,0.4-0.3,1.2-0.2c0.5,0,1.2,0.2,1.6,0.4c1.7,0.6,3,1.7,3.7,3.1c0.5,1,0.5,1.4,0.1,1.8
			c-0.6,0.6-1.1,0.3-1.8-0.9c-0.8-1.4-2.2-2.4-3.8-2.5c-0.6-0.1-0.9-0.1-1.1-0.3C26.5,35.5,26.5,34.9,26.9,34.5z M18.6,42.7L18.3,43
			c-0.2,0.2-0.3,0.4-0.3,0.6s0.1,0.5,0.3,0.6l0.3,0.3h8.9h8.9l0.3-0.3c0.4-0.4,0.4-0.9,0-1.3l-0.3-0.3h-8.9H18.6z M20.5,46.4
			l0.5,0.9l0.5,0.9h6h6l0.5-0.9l0.5-0.9h-7H20.5z"/>
	</g>
</g>
</svg>
