<?xml version="1.0" encoding="utf-8"?>
<!-- Generator: Adobe Illustrator 21.1.0, SVG Export Plug-In . SVG Version: 6.00 Build 0)  -->
<svg version="1.1" id="Layer_1" xmlns="http://www.w3.org/2000/svg" xmlns:xlink="http://www.w3.org/1999/xlink" x="0px" y="0px"
	 width="53px" height="53px" viewBox="0 0 53 53" style="enable-background:new 0 0 53 53;" xml:space="preserve">
<style type="text/css">
	.Drop_x0020_Shadow{fill:none;}
	.Round_x0020_Corners_x0020_2_x0020_pt{fill:#FFFFFF;stroke:#000000;stroke-miterlimit:10;}
	.Live_x0020_Reflect_x0020_X{fill:none;}
	.Bevel_x0020_Soft{fill:url(#SVGID_1_);}
	.Dusk{fill:#FFFFFF;}
	.Foliage_GS{fill:#FFDD00;}
	.Pompadour_GS{fill-rule:evenodd;clip-rule:evenodd;fill:#44ADE2;}
	.st0{fill:#231842;}
</style>
<linearGradient id="SVGID_1_" gradientUnits="userSpaceOnUse" x1="-986.5" y1="-971.0004" x2="-985.7929" y2="-970.2933">
	<stop  offset="0" style="stop-color:#DEDFE3"/>
	<stop  offset="0.1738" style="stop-color:#D8D9DD"/>
	<stop  offset="0.352" style="stop-color:#C9CACD"/>
	<stop  offset="0.5323" style="stop-color:#B4B5B8"/>
	<stop  offset="0.7139" style="stop-color:#989A9C"/>
	<stop  offset="0.8949" style="stop-color:#797C7E"/>
	<stop  offset="1" style="stop-color:#656B6C"/>
</linearGradient>
<g>
	<g>
		<path class="st0" d="M11.7,6.1l-0.1,1c-0.1,1.2,0,1.7,0.5,1.9c0.4,0.2,0.5,0.2,1.8-0.2L15,8.5l1,0.3c1.2,0.4,1.4,0.4,1.8,0.2
			c0.5-0.3,0.6-0.6,0.5-1.9L18.3,6l0.7-1.1c0.8-1.4,0.8-1.7,0.3-2.2c-0.3-0.3-0.4-0.4-0.9-0.4c-1.2,0-1.3,0-1.9-1
			c-0.3-0.5-0.6-1-0.8-1.1c-0.3-0.3-0.9-0.3-1.3,0c-0.2,0.1-0.5,0.6-0.8,1.1c-0.5,1-0.6,1-1.8,1c-0.6,0-1,0.2-1.2,0.6
			c-0.3,0.5-0.2,0.9,0.5,2.1L11.7,6.1z M23.2,6l-0.1,0.8C23,8.2,23,8.4,23.3,8.8c0.4,0.5,0.8,0.5,2.1,0.1l1.1-0.4l1.1,0.4
			c1.2,0.4,1.6,0.4,2,0C29.9,8.5,30,8.1,29.9,7l-0.1-1l0.5-0.8c0.8-1.4,0.9-1.7,0.8-2.1c-0.2-0.5-0.7-0.8-1.3-0.8
			c-1.2,0-1.3-0.1-1.8-1c-0.3-0.5-0.6-0.9-0.7-1C27,0.1,26.3,0,26,0.1c-0.3,0.1-0.5,0.4-1,1.3c-0.5,0.8-0.6,0.9-1.7,0.9
			c-0.7,0-1.2,0.3-1.4,0.8c-0.1,0.4,0,0.8,0.8,2.1L23.2,6z M34.7,6l-0.1,1.1c-0.1,1.3,0,1.6,0.5,1.9c0.4,0.2,0.7,0.2,1.8-0.2l1-0.3
			l1.1,0.3c1.3,0.4,1.4,0.4,1.8,0.2c0.5-0.3,0.6-0.7,0.5-1.9l-0.1-1L42,4.9c0.7-1.2,0.8-1.6,0.5-2.1c-0.2-0.4-0.6-0.6-1.2-0.6
			c-1.2,0-1.2,0-1.8-1C38.9,0.3,38.6,0,38,0c-0.2,0-0.4,0.1-0.6,0.2c-0.2,0.1-0.5,0.6-0.8,1.1c-0.6,0.9-0.6,1-1.8,1
			c-0.5,0-0.6,0-1,0.4c-0.5,0.5-0.5,0.9,0.3,2.2L34.7,6z M20.7,44.9l0.1-2.4c0.1-2.5,0.1-2.6,0.7-3.8c0.6-1.2,2-2.3,3.3-2.8
			c1-0.3,2.5-0.3,3.5,0c1.4,0.4,2.7,1.5,3.3,2.8c0.6,1.1,0.6,1.3,0.7,3.8l0.1,2.4l8.6,0l8.6,0V28V11l-0.3-0.3l-0.3-0.3l-22.9,0
			c-15.2,0-23,0-23.1,0.1c-0.1,0.1-0.3,0.2-0.4,0.4c-0.2,0.3-0.2,1.6-0.2,17.2V45l9.2,0L20.7,44.9z M34.6,14.5l0.3-0.3l0.3-0.3h3.9
			c2.6,0,3.9,0,4.1,0.1c0.1,0.1,0.3,0.3,0.4,0.5c0.2,0.3,0.2,0.8,0.1,4.1l0,3.8l-0.3,0.3L43.2,23l-3.8,0c-3.4,0-3.9,0-4.1-0.1
			c-0.2-0.1-0.4-0.3-0.5-0.4c-0.1-0.2-0.1-1.5-0.1-4.1V14.5z M34.6,24.9l0.3-0.3l0.3-0.3h3.9c2.6,0,3.9,0,4.1,0.1
			c0.1,0.1,0.3,0.3,0.4,0.5c0.2,0.3,0.2,0.8,0.1,4.1l0,3.8l-0.3,0.3l-0.3,0.3l-3.8,0c-3.4,0-3.9,0-4.1-0.1c-0.2-0.1-0.4-0.3-0.5-0.4
			c-0.1-0.2-0.1-1.5-0.1-4.1V24.9z M22,14.6c0.3-0.7,0.2-0.7,4.5-0.7c3.4,0,3.9,0,4.1,0.2c0.5,0.4,0.6,0.6,0.6,4.4
			c0,3.9,0,4.1-0.6,4.4c-0.3,0.2-0.9,0.2-4,0.2c-4.1,0-4.2,0-4.5-0.7C21.8,21.8,21.8,15.1,22,14.6z M22,24.9
			c0.3-0.7,0.2-0.7,4.5-0.7c3.4,0,3.9,0,4.1,0.2c0.5,0.4,0.6,0.6,0.6,4.4c0,3.9,0,4.1-0.6,4.4c-0.3,0.2-0.9,0.2-4,0.2
			c-4.1,0-4.2,0-4.5-0.7C21.8,32.2,21.8,25.5,22,24.9z M9.4,14.4C9.5,14.2,9.6,14,9.8,14c0.2-0.1,1.7-0.1,4.1-0.1l3.9,0l0.3,0.3
			l0.3,0.3v3.9c0,2.6,0,3.9-0.1,4.1c-0.1,0.1-0.3,0.3-0.5,0.4C17.5,23,17,23,13.7,23l-3.8,0l-0.3-0.3l-0.3-0.3l0-3.8
			C9.2,15.2,9.2,14.7,9.4,14.4z M9.6,33.1l-0.3-0.3l0-3.8c0-3.4,0-3.9,0.1-4.1c0.1-0.2,0.3-0.4,0.4-0.5c0.2-0.1,1.7-0.1,4.1-0.1
			l3.9,0l0.3,0.3l0.3,0.3v3.9c0,2.6,0,3.9-0.1,4.1c-0.1,0.1-0.3,0.3-0.5,0.4c-0.3,0.2-0.8,0.2-4.1,0.1l-3.8,0L9.6,33.1z M52.3,46.2
			C51.8,46,1.2,46,0.7,46.2C0,46.5,0,46.6,0,49.6v2.7l0.3,0.3L0.6,53h25.9h25.9l0.3-0.3l0.3-0.3v-2.7C53,46.6,53,46.5,52.3,46.2z"/>
	</g>
</g>
</svg>
