<?xml version="1.0" encoding="utf-8"?>
<!-- Generator: Adobe Illustrator 21.1.0, SVG Export Plug-In . SVG Version: 6.00 Build 0)  -->
<svg version="1.1" id="Layer_1" xmlns="http://www.w3.org/2000/svg" xmlns:xlink="http://www.w3.org/1999/xlink" x="0px" y="0px"
	 width="12.6px" height="12.6px" viewBox="0 0 12.6 12.6" style="enable-background:new 0 0 12.6 12.6;" xml:space="preserve">
<style type="text/css">
	.st0{fill:#614371;}
</style>
<g>
	<g>
		<path class="st0" d="M12.6,2.7c0-0.1-0.5-0.5-1.3-1.4C10.1,0.2,9.9,0.1,9.8,0C9.7,0,9.5,0,9.4,0c-0.1,0-0.2,0.1-0.7,0.6L8.2,1.1
			l1.6,1.6l1.6,1.6L12,3.9c0.3-0.3,0.5-0.6,0.6-0.6C12.6,3.2,12.6,2.9,12.6,2.7z M8,1.4c0,0-1.5,1.5-3.4,3.4L1.2,8.1l1.6,1.6
			l1.6,1.6L7.9,8l3.4-3.4L9.6,3C8.7,2.1,8,1.4,8,1.4z M1.1,8.5c0,0-0.3,0.8-0.6,1.9c-0.3,1-0.6,1.9-0.6,1.9c0,0,0,0.1,0,0.2
			c0.1,0.1,0.2,0.2,0.3,0.2c0,0,0.3-0.1,0.5-0.1c2.2-0.7,3.2-1,3.3-1C4.1,11.5,1.2,8.5,1.1,8.5z"/>
	</g>
</g>
</svg>
