<?xml version="1.0" encoding="utf-8"?>
<!-- Generator: Adobe Illustrator 21.1.0, SVG Export Plug-In . SVG Version: 6.00 Build 0)  -->
<svg version="1.1" id="Layer_1" xmlns="http://www.w3.org/2000/svg" xmlns:xlink="http://www.w3.org/1999/xlink" x="0px" y="0px"
	 width="9px" height="12px" viewBox="0 0 9 12" style="enable-background:new 0 0 9 12;" xml:space="preserve">
<style type="text/css">
	.st0{fill:#614371;}
</style>
<g>
	<g>
		<path class="st0" d="M7.9,0.7H6.8L6.4,0.3L6.1,0H4.5H2.9L2.6,0.3L2.3,0.7H1.1H0v0.7V2h4.5H9V1.3V0.7H7.9z M0.6,2.7l0,4.1l0,4.1
			l0.1,0.2c0.2,0.4,0.4,0.7,0.9,0.9c0.1,0,0.2,0,2.9,0c2.7,0,2.8,0,2.9,0c0.4-0.2,0.7-0.4,0.9-0.9l0.1-0.2l0-4.1l0-4.1H4.5H0.6z"/>
	</g>
</g>
</svg>
