<?xml version="1.0" encoding="utf-8"?>
<!-- Generator: Adobe Illustrator 21.1.0, SVG Export Plug-In . SVG Version: 6.00 Build 0)  -->
<svg version="1.1" id="Layer_1" xmlns="http://www.w3.org/2000/svg" xmlns:xlink="http://www.w3.org/1999/xlink" x="0px" y="0px"
	 width="13.1px" height="17.5px" viewBox="0 0 13.1 17.5" style="enable-background:new 0 0 13.1 17.5;" xml:space="preserve">
<style type="text/css">
	.Drop_x0020_Shadow{fill:none;}
	.Round_x0020_Corners_x0020_2_x0020_pt{fill:#FFFFFF;stroke:#000000;stroke-miterlimit:10;}
	.Live_x0020_Reflect_x0020_X{fill:none;}
	.Bevel_x0020_Soft{fill:url(#SVGID_1_);}
	.Dusk{fill:#FFFFFF;}
	.Foliage_GS{fill:#FFDD00;}
	.Pompadour_GS{fill-rule:evenodd;clip-rule:evenodd;fill:#44ADE2;}
	.st0{fill:#5E548E;}
</style>
<linearGradient id="SVGID_1_" gradientUnits="userSpaceOnUse" x1="-993.9446" y1="-991.7554" x2="-993.2375" y2="-991.0483">
	<stop  offset="0" style="stop-color:#DEDFE3"/>
	<stop  offset="0.1738" style="stop-color:#D8D9DD"/>
	<stop  offset="0.352" style="stop-color:#C9CACD"/>
	<stop  offset="0.5323" style="stop-color:#B4B5B8"/>
	<stop  offset="0.7139" style="stop-color:#989A9C"/>
	<stop  offset="0.8949" style="stop-color:#797C7E"/>
	<stop  offset="1" style="stop-color:#656B6C"/>
</linearGradient>
<path class="st0" d="M5.8,0C4.6,0.2,3.5,0.7,2.5,1.4C2.2,1.7,1.6,2.3,1.3,2.6C0.1,4.3-0.3,6.3,0.2,8.5c0.6,2.3,2.1,4.9,4.5,7.4
	c0.6,0.7,1.5,1.5,1.7,1.6c0.1,0.1,0.3,0.1,0.4,0c0.1-0.1,1.4-1.3,2-2c2.2-2.4,3.5-4.8,4.1-6.9c0.6-2.2,0.2-4.2-1.1-5.9
	c-0.2-0.3-0.8-0.9-1.1-1.2C9.3,0.3,7.5-0.2,5.8,0z M6.9,2.9c0.4,0,0.8,0.2,1.1,0.3c0.8,0.4,1.4,1,1.8,1.8c0.7,1.4,0.3,3.1-0.8,4.1
	C8,10.2,6.4,10.5,5,9.9C4.6,9.7,4.3,9.5,4,9.2C2.9,8.1,2.6,6.4,3.3,5c0.6-1.3,1.8-2.1,3.2-2.1C6.6,2.9,6.8,2.9,6.9,2.9z"/>
</svg>
