<?xml version="1.0" encoding="utf-8"?>
<!-- Generator: Adobe Illustrator 21.1.0, SVG Export Plug-In . SVG Version: 6.00 Build 0)  -->
<svg version="1.1" id="Layer_1" xmlns="http://www.w3.org/2000/svg" xmlns:xlink="http://www.w3.org/1999/xlink" x="0px" y="0px"
	 width="50.1px" height="50.1px" viewBox="0 0 50.1 50.1" style="enable-background:new 0 0 50.1 50.1;" xml:space="preserve">
<style type="text/css">
	.Drop_x0020_Shadow{fill:none;}
	.Round_x0020_Corners_x0020_2_x0020_pt{fill:#FFFFFF;stroke:#000000;stroke-miterlimit:10;}
	.Live_x0020_Reflect_x0020_X{fill:none;}
	.Bevel_x0020_Soft{fill:url(#SVGID_1_);}
	.Dusk{fill:#FFFFFF;}
	.Foliage_GS{fill:#FFDD00;}
	.Pompadour_GS{fill-rule:evenodd;clip-rule:evenodd;fill:#44ADE2;}
	.st0{fill:#231842;}
</style>
<linearGradient id="SVGID_1_" gradientUnits="userSpaceOnUse" x1="-975.43" y1="-974.9277" x2="-974.7229" y2="-974.2206">
	<stop  offset="0" style="stop-color:#DEDFE3"/>
	<stop  offset="0.1738" style="stop-color:#D8D9DD"/>
	<stop  offset="0.352" style="stop-color:#C9CACD"/>
	<stop  offset="0.5323" style="stop-color:#B4B5B8"/>
	<stop  offset="0.7139" style="stop-color:#989A9C"/>
	<stop  offset="0.8949" style="stop-color:#797C7E"/>
	<stop  offset="1" style="stop-color:#656B6C"/>
</linearGradient>
<g>
	<g>
		<path class="st0" d="M12.9,18.9c1.3,0.3,3.4,0.3,4.6,0c0.5-0.1,1-0.3,1.2-0.3c0.1,0,1.5,0.8,3.1,1.8c3.3,2,3.5,2.1,4.1,1.3
			c0.2-0.3,0.4-0.5,0.4-0.6c0-0.1,1,0.5,2.3,1.2l2.2,1.4l1-0.2c0.6-0.1,1.1-0.2,1.1-0.1c0,0,0.2,0.5,0.3,0.9
			c0.1,0.5,0.3,0.9,0.4,1.1c0.4,0.4,2,1.3,2.3,1.3c0.2,0,0.7-0.1,1.1-0.2c0.9-0.2,0.9-0.2,1.1,0.9c0.1,0.5,0.2,0.9,0.4,1
			c0.1,0.1,1.1,0.7,2,1.3l1.8,1.1l0.6-0.1c3.4-0.8,5.3-1.3,5.5-1.5c0.4-0.4,0.3-0.9-1-2.9c-0.7-1.1-1.3-2-1.4-2.1
			c-0.1-0.1-1.1-0.7-2.2-1.4c-1.1-0.7-4-2.5-6.5-4c-2.5-1.6-5.1-3.2-5.8-3.5c-0.7-0.4-1.2-0.7-1.2-0.8c0,0,0.1-0.3,0.3-0.6
			c0.3-0.6,0.3-1.1,0-1.4c-0.1-0.1-1.4-0.9-2.8-1.8c-1.4-0.9-2.7-1.7-2.8-1.8c-0.1-0.1-0.4-0.7-0.5-1.4c-0.9-3.5-3.3-6.1-6.7-7.1
			c-1.1-0.3-3.3-0.4-4.4-0.2c-3.1,0.7-5.6,2.5-6.8,5.1C5.8,6.7,5.6,7.6,5.6,9.5c0,1.1,0.1,1.7,0.3,2.5C6.8,15.4,9.5,18.1,12.9,18.9z
			 M11.7,9.6c0-0.9,0-1.1,0.3-1.7c0.4-0.8,1-1.4,1.7-1.7c0.8-0.4,1.1-0.5,2-0.4c0.7,0,1,0.1,1.6,0.4c1.3,0.7,2,1.9,2,3.4
			c0,0.8,0,1-0.4,1.7c-0.4,0.9-1,1.4-1.9,1.8c-0.8,0.4-2.3,0.4-3.1,0c-0.9-0.5-1.4-0.9-1.8-1.7C11.7,10.7,11.6,10.6,11.7,9.6z
			 M49.8,37.3c-0.5-1-1.2-1.7-2.2-2.1l-0.7-0.3l-7,0l-7,0l-0.1,0.7c-0.3,2.8-3.5,4.7-6.1,3.6c-0.8-0.4-7.4-4.3-7.7-4.6
			c-0.5-0.5,0-1.5,0.7-1.5c0.2,0,1.7,0.8,3.9,2.1c3.6,2.2,4.1,2.4,4.7,2.4c1,0,2-0.7,2.4-1.6c0.4-1.2-0.1-3-1.1-4.1
			c-0.3-0.3-3.1-2.1-7-4.5l-6.4-4H8.4H0.6l-0.3,0.3L0,23.7v9.1v9.1l0.3,0.3l0.3,0.3h3.7h3.7l4.4,2.7c2.4,1.5,4.8,2.9,5.4,3.1
			c3.9,1.9,8.6,2.4,12.8,1.3c1.4-0.4,16.4-6,17.5-6.6c0.7-0.4,1.5-1.2,1.9-2.1c0.3-0.6,0.3-0.8,0.3-1.8C50.2,38.1,50.1,38,49.8,37.3
			z"/>
	</g>
</g>
</svg>
