<?xml version="1.0" encoding="utf-8"?>
<!-- Generator: Adobe Illustrator 21.1.0, SVG Export Plug-In . SVG Version: 6.00 Build 0)  -->
<svg version="1.1" id="Layer_1" xmlns="http://www.w3.org/2000/svg" xmlns:xlink="http://www.w3.org/1999/xlink" x="0px" y="0px"
	 width="12.6px" height="12.6px" viewBox="0 0 12.6 12.6" style="enable-background:new 0 0 12.6 12.6;" xml:space="preserve">
<style type="text/css">
	.st0{fill:#FFFFFF;}
</style>
<path class="st0" d="M6,0c0,0-0.2,0-0.3,0C5.1,0.1,4.4,0.5,3.9,0.9C3.3,1.5,2.8,2.2,2.7,3.1c0,0.3,0,1,0,1.2C2.9,5.2,3.4,6,4.1,6.5
	l0.2,0.1H4.2C3.9,6.8,3.7,6.8,3.5,7c-1.1,0.5-2,1.4-2.6,2.4c-0.5,0.9-0.8,1.8-0.9,2.9v0.3h0.5H1v-0.1c0-0.8,0.3-2,0.8-2.7
	C2.5,8.7,3.5,8,4.6,7.6c1.1-0.4,2.2-0.4,3.3,0C9.1,8,10,8.7,10.7,9.8c0.5,0.7,0.8,1.9,0.8,2.7v0.1H12h0.5v-0.3
	c-0.1-1.1-0.3-2-0.9-2.9C11.1,8.3,10.2,7.5,9.1,7C8.9,6.8,8.7,6.8,8.4,6.7H8.3l0.2-0.1C9.2,6,9.7,5.2,9.9,4.3C10,4,10,3.4,9.9,3.1
	C9.8,2.4,9.5,1.7,9,1.2C8.5,0.6,7.7,0.2,6.9,0C6.8,0,6.1,0,6,0z M6.7,1c1.4,0.2,2.4,1.6,2.2,3c-0.2,1.4-1.6,2.4-3,2.2
	C4.4,6,3.5,4.7,3.7,3.2C3.9,1.8,5.3,0.8,6.7,1z"/>
</svg>
