<?xml version="1.0" encoding="utf-8"?>
<!-- Generator: Adobe Illustrator 21.1.0, SVG Export Plug-In . SVG Version: 6.00 Build 0)  -->
<svg version="1.1" id="Layer_1" xmlns="http://www.w3.org/2000/svg" xmlns:xlink="http://www.w3.org/1999/xlink" x="0px" y="0px"
	 width="4.9px" height="8.4px" viewBox="0 0 4.9 8.4" style="enable-background:new 0 0 4.9 8.4;" xml:space="preserve">
<style type="text/css">
	.st0{fill:#C4C4C4;}
</style>
<path class="st0" d="M3.8,8.3C3.9,8.4,4,8.4,4.2,8.4s0.2,0,0.3-0.1L4.8,8c0.2-0.2,0.2-0.5,0-0.7L1.6,4.2l3.1-3.1
	C4.9,1,4.9,0.9,4.9,0.7s0-0.2-0.1-0.3L4.5,0.1C4.4,0,4.3,0,4.2,0C4,0,3.9,0,3.8,0.1L0.1,3.9C0,4,0,4.1,0,4.2c0,0.1,0,0.2,0.1,0.3
	L3.8,8.3z"/>
</svg>
