<?xml version="1.0" encoding="utf-8"?>
<!-- Generator: Adobe Illustrator 21.1.0, SVG Export Plug-In . SVG Version: 6.00 Build 0)  -->
<svg version="1.1" id="Layer_1" xmlns="http://www.w3.org/2000/svg" xmlns:xlink="http://www.w3.org/1999/xlink" x="0px" y="0px"
	 width="37px" height="54.1px" viewBox="0 0 37 54.1" style="enable-background:new 0 0 37 54.1;" xml:space="preserve">
<style type="text/css">
	.Drop_x0020_Shadow{fill:none;}
	.Round_x0020_Corners_x0020_2_x0020_pt{fill:#FFFFFF;stroke:#000000;stroke-miterlimit:10;}
	.Live_x0020_Reflect_x0020_X{fill:none;}
	.Bevel_x0020_Soft{fill:url(#SVGID_1_);}
	.Dusk{fill:#FFFFFF;}
	.Foliage_GS{fill:#FFDD00;}
	.Pompadour_GS{fill-rule:evenodd;clip-rule:evenodd;fill:#44ADE2;}
	.st0{fill:#231842;}
</style>
<linearGradient id="SVGID_1_" gradientUnits="userSpaceOnUse" x1="-981.5005" y1="-972.8965" x2="-980.7933" y2="-972.1895">
	<stop  offset="0" style="stop-color:#DEDFE3"/>
	<stop  offset="0.1738" style="stop-color:#D8D9DD"/>
	<stop  offset="0.352" style="stop-color:#C9CACD"/>
	<stop  offset="0.5323" style="stop-color:#B4B5B8"/>
	<stop  offset="0.7139" style="stop-color:#989A9C"/>
	<stop  offset="0.8949" style="stop-color:#797C7E"/>
	<stop  offset="1" style="stop-color:#656B6C"/>
</linearGradient>
<g>
	<g>
		<path class="st0" d="M15.9,0.1c-0.6-0.2-1.3,0-1.5,0.5c-0.1,0.2-0.3,2.2-0.7,6.3c-0.3,3.3-0.6,6.1-0.6,6.2c-0.1,0.3-0.6,0.4-1,0.3
			c-0.2-0.1-0.3-0.2-0.4-0.5c0-0.2-0.3-3-0.6-6.2c-0.3-3.2-0.5-5.9-0.6-6C10.4,0.3,10,0,9.4,0C9,0,8.9,0.1,8.6,0.4
			C8.4,0.6,8.3,0.8,8.3,0.9C8.3,0.9,8,3.7,7.7,7c-0.6,6.5-0.6,6.4-1.3,6.4c-0.3,0-0.8-0.3-0.8-0.5c0-0.7-1-11.8-1.1-12.1
			c-0.2-0.7-1-1-1.6-0.7C2.8,0.2,2.6,0.4,2.5,0.5C2.4,0.6,1.9,3.1,1.2,7.7c-0.6,3.8-1.1,7.3-1.2,7.6c-0.2,1.5,0.4,3.6,1.3,5.1
			c0.8,1.3,2.4,2.7,3.8,3.4C5.6,24,5.7,24,5.6,24.4c0,0.2-0.5,5.8-1,12.4c-1,13.5-1,12.9-0.3,14.4c0.8,1.6,2.4,2.7,4.3,2.9
			c2.4,0.3,4.8-0.9,5.8-2.9c0.7-1.4,0.8-0.9-0.3-14.1c-0.5-6.5-0.9-12.1-1-12.4L13.2,24l0.9-0.5c2.2-1.1,3.8-3.2,4.5-5.6
			c0.4-1.6,0.4-2.3-0.9-10.2C16.6,0.6,16.5,0.3,15.9,0.1z M36.3,0.2c-0.5-0.3-0.8-0.2-2.1,0.4c-4.9,2.4-8.1,6.5-9,11.4
			c-0.2,1.2-0.2,4.9,0.1,6.5c0.5,3.6,1.7,6.6,3.3,8.8l0.7,0.8L28.3,29c-0.7,0.7-0.9,0.9-0.9,1.3c0,0.3-0.5,4.5-1,9.4
			c-1,9.6-1,9.6-0.5,10.8c1,2.3,3.5,3.8,6.1,3.4c2.4-0.3,4.5-2.2,4.9-4.5C37,49.1,37,40.6,37,25C37-1.2,37,0.5,36.3,0.2z"/>
	</g>
</g>
</svg>
