<?xml version="1.0" encoding="utf-8"?>
<!-- Generator: Adobe Illustrator 21.1.0, SVG Export Plug-In . SVG Version: 6.00 Build 0)  -->
<svg version="1.1" id="Layer_1" xmlns="http://www.w3.org/2000/svg" xmlns:xlink="http://www.w3.org/1999/xlink" x="0px" y="0px"
	 width="45.4px" height="45.3px" viewBox="0 0 45.4 45.3" style="enable-background:new 0 0 45.4 45.3;" xml:space="preserve">
<style type="text/css">
	.st0{fill:#866298;}
</style>
<path class="st0" d="M7.3,0.1C5,0.5,2.8,1.9,1.6,3.8C1,4.6,0.4,5.8,0.2,6.8L0,7.6v15.1v15.1l0.2,0.8c0.2,0.9,0.8,2.2,1.3,2.9
	c1.2,1.8,3.2,3.1,5.3,3.7l0.8,0.2h15.1c14.4,0,15.1,0,15.8-0.2c3.5-0.8,6.2-3.6,6.8-7.2c0.1-0.7,0.1-2.7,0.1-15.6l0-14.8l-0.2-0.8
	c-0.2-0.9-0.8-2.2-1.4-2.9c-1.1-1.7-3.1-3-5.2-3.6L37.9,0L23,0C10.4,0,7.9,0,7.3,0.1z M34.8,9.5c0.4,0.1,1,0.7,1.1,1.1
	c0.1,0.2,0.1,2.2,0.1,4.9c0,4.3,0,4.6-0.2,5c-0.2,0.5-0.7,0.9-1.3,0.9c-0.6,0.1-0.9,0-1.2-0.4c-0.6-0.5-0.6-0.5-0.6-3.3
	c0-1.4,0-2.5-0.1-2.5c0,0-1.5,1.4-3.2,3.1c-1.7,1.7-3.3,3.2-3.4,3.3c-0.7,0.4-1.5,0.2-2.1-0.5c-0.3-0.4-0.4-1.2-0.2-1.7
	c0.1-0.2,1.6-1.7,3.3-3.5l3.2-3.2l-2.5,0c-2.4,0-2.5,0-2.9-0.2c-1.2-0.6-1.2-2.4,0.1-3c0.3-0.2,0.7-0.2,5-0.2
	C32.7,9.4,34.7,9.4,34.8,9.5z M20.8,23.8c0.8,0.4,1.1,1.4,0.7,2.2c-0.1,0.2-1.5,1.7-3.3,3.4c-1.7,1.7-3.1,3.1-3.1,3.2
	c0,0,1.1,0.1,2.5,0.1c2.4,0,2.6,0,2.9,0.2c0.7,0.3,1,1.2,0.8,1.9c-0.1,0.4-0.5,0.8-0.9,1c-0.3,0.2-0.7,0.2-5,0.2
	c-2.8,0-4.7,0-4.9-0.1c-0.4-0.1-0.9-0.6-1.1-1C9.4,34.7,9.4,33,9.4,30c0-4.4,0-4.7,0.2-5c0.2-0.5,0.7-0.9,1.3-0.9
	c0.6-0.1,0.9,0,1.2,0.4c0.6,0.5,0.6,0.5,0.6,3.3c0,1.4,0,2.5,0.1,2.5c0,0,1.5-1.4,3.2-3.1c1.7-1.7,3.3-3.2,3.4-3.3
	C19.7,23.6,20.4,23.6,20.8,23.8z"/>
</svg>
