<?xml version="1.0" encoding="utf-8"?>
<!-- Generator: Adobe Illustrator 21.1.0, SVG Export Plug-In . SVG Version: 6.00 Build 0)  -->
<svg version="1.1" id="Layer_1" xmlns="http://www.w3.org/2000/svg" xmlns:xlink="http://www.w3.org/1999/xlink" x="0px" y="0px"
	 width="23.1px" height="23.1px" viewBox="0 0 23.1 23.1" style="enable-background:new 0 0 23.1 23.1;" xml:space="preserve">
<style type="text/css">
	.st0{fill:#604270;}
</style>
<path class="st0" d="M8.7,0.1C6.5,0.3,4.4,1.3,2.8,2.9C1.7,4,1,5.2,0.5,6.6c-0.6,1.9-0.6,3.9,0,5.9C1,14,1.7,15.2,2.8,16.3
	c2.2,2.2,5.2,3.2,8.3,2.7c1.6-0.2,3.2-0.9,4.5-1.8c0.1-0.1,0.3-0.2,0.3-0.2c0,0,1.4,1.3,3,3c1.9,1.9,3.1,3,3.2,3
	c0.4,0.2,0.9-0.1,1-0.5c0.1-0.4,0.3-0.1-4.6-5L16.9,16l0.3-0.3c1.1-1.3,1.9-3,2.2-4.8c0.1-0.7,0.1-2,0-2.7c-0.3-2.1-1.2-3.9-2.7-5.4
	C14.5,0.8,11.6-0.2,8.7,0.1z M10.9,1.6c1.8,0.3,3.4,1.1,4.7,2.3c1.6,1.6,2.4,3.5,2.4,5.7c0,0.8-0.1,1.4-0.3,2.1c-1,3.6-4.2,6-7.9,6
	c-2.2,0-4.3-0.8-5.8-2.4c-1-1-1.7-2.3-2.1-3.7c-0.3-1.3-0.3-2.8,0-4.1c0.8-2.8,3-5.1,5.8-5.8C8.6,1.5,9.9,1.4,10.9,1.6z"/>
</svg>
