<?xml version="1.0" encoding="utf-8"?>
<!-- Generator: Adobe Illustrator 21.1.0, SVG Export Plug-In . SVG Version: 6.00 Build 0)  -->
<svg version="1.1" id="Layer_1" xmlns="http://www.w3.org/2000/svg" xmlns:xlink="http://www.w3.org/1999/xlink" x="0px" y="0px"
	 width="23.3px" height="23.3px" viewBox="0 0 23.3 23.3" style="enable-background:new 0 0 23.3 23.3;" xml:space="preserve">
<style type="text/css">
	.st0{fill-rule:evenodd;clip-rule:evenodd;fill:#866298;}
	.st1{fill:#FFFFFF;}
</style>
<path class="st0" d="M11.6,0C18,0,23.3,5.2,23.3,11.6S18,23.3,11.6,23.3C5.2,23.3,0,18,0,11.6S5.2,0,11.6,0z"/>
<path class="st1" d="M10.2,15.1c-0.2,0-0.3-0.1-0.4-0.2c-0.2-0.2-0.2-0.6,0-0.8l2.4-2.4L9.8,9.2C9.6,9,9.6,8.6,9.8,8.4
	s0.6-0.2,0.8,0l2.8,2.8c0.1,0.1,0.2,0.3,0.2,0.4c0,0.2-0.1,0.3-0.2,0.4l-2.8,2.8C10.5,15,10.4,15.1,10.2,15.1z"/>
</svg>
