<?xml version="1.0" encoding="utf-8"?>
<!-- Generator: Adobe Illustrator 21.1.0, SVG Export Plug-In . SVG Version: 6.00 Build 0)  -->
<svg version="1.1" id="Layer_1" xmlns="http://www.w3.org/2000/svg" xmlns:xlink="http://www.w3.org/1999/xlink" x="0px" y="0px"
	 width="50px" height="53.3px" viewBox="0 0 50 53.3" style="enable-background:new 0 0 50 53.3;" xml:space="preserve">
<style type="text/css">
	.st0{fill:#231942;}
</style>
<g transform="translate(0.000000,512.000000) scale(0.100000,-0.100000)">
	<path class="st0" d="M305.5,5117.8c-3.1-1.6-5-3.4-6.5-6.6c-2.2-4.3-2.2-5.9-2.2-77v-72.6h-32.5c-30.6,0-32.7-0.1-36.9-2.2
		c-3.2-1.6-5-3.3-6.6-6.6c-2.1-4.3-2.2-6-2.2-60.3v-55.9h26.4c20.3,0,27.7-0.4,32.5-1.6c15.8-4.2,29.2-17.5,33.2-33.3
		c1.4-5.1,1.7-13.5,1.7-48.1v-42h93.8H500v118.4v118.4l-2.2,4.6c-4.1,8.2-5.5,8.5-43.3,8.5h-32.6v72.6c0,72.1,0,72.6-2.2,77.2
		c-1.7,3.4-3.3,5.1-6.6,6.6c-4,1.8-7.7,2-53.8,2C311.4,5120,309.8,5119.9,305.5,5117.8z M390.6,5025.2v-63.5h-31.3h-31.3v63.5v63.5
		h31.3h31.3V5025.2z M428.8,4897.5c5.5-2.6,8.2-7.2,8.2-14c0-11.1-6-15.6-21.3-15.6h-9.5v-9.5c0-15.2-4.5-21.3-15.6-21.3
		s-15.6,6-15.6,21.3v9.5h-40.7c-45,0-45.5,0.1-50.2,6.7c-3.2,4.5-3.2,13.4,0,17.9c4.9,6.9,2.3,6.7,75.1,6.7
		C418,4899.2,425.6,4899,428.8,4897.5z"/>
	<path class="st0" d="M102.4,4865.7c-3.1-1.6-5-3.4-6.5-6.6c-2-4.1-2.2-6.4-2.2-29.1v-24.7h-7.8h-7.8V4696v-109.4h62.5h62.5V4696
		v109.4h-7.8h-7.8v24.7c0,23.1-0.1,25-2.2,29.3c-4.1,8.2-5.3,8.5-44.7,8.5C108.4,4867.9,106.6,4867.8,102.4,4865.7z M156.3,4821
		v-15.6h-15.6H125v15.6v15.6h15.6h15.6V4821z"/>
	<path class="st0" d="M8.6,4803.2c-3.1-1.6-5-3.4-6.5-6.6C0,4792.3,0,4790.9,0,4696c0-95,0-96.3,2.2-100.6c3.5-7.5,7.6-8.8,27.8-8.8
		h16.9V4696v109.4H30C14.9,4805.4,12.5,4805.2,8.6,4803.2z"/>
	<path class="st0" d="M234.4,4696v-109.4h16.9c20.2,0,24.3,1.3,27.8,8.8c2.2,4.4,2.2,5.6,2.2,100.6v96.3l-2.2,4.6
		c-3.6,7.4-7.2,8.5-27.7,8.5h-17V4696z"/>
	<path class="st0" d="M312.5,4649.2v-31.3H375h62.5v-9.1c0-11.7,2.3-16.9,8.8-20c5.5-2.7,8.2-2.7,13.8,0c6.5,3.1,8.8,8.3,8.8,20v9.1
		h9.1c11.7,0,16.9,2.3,20,8.8c2,4.1,2.2,6.3,2.2,29.1v24.7h-93.8h-93.8V4649.2z"/>
</g>
</svg>
