<?xml version="1.0" encoding="utf-8"?>
<!-- Generator: Adobe Illustrator 21.1.0, SVG Export Plug-In . SVG Version: 6.00 Build 0)  -->
<svg version="1.1" id="Layer_1" xmlns="http://www.w3.org/2000/svg" xmlns:xlink="http://www.w3.org/1999/xlink" x="0px" y="0px"
	 width="15px" height="14px" viewBox="0 0 15 14" style="enable-background:new 0 0 15 14;" xml:space="preserve">
<style type="text/css">
	.Drop_x0020_Shadow{fill:none;}
	.Round_x0020_Corners_x0020_2_x0020_pt{fill:#FFFFFF;stroke:#000000;stroke-miterlimit:10;}
	.Live_x0020_Reflect_x0020_X{fill:none;}
	.Bevel_x0020_Soft{fill:url(#SVGID_1_);}
	.Dusk{fill:#FFFFFF;}
	.Foliage_GS{fill:#FFDD00;}
	.Pompadour_GS{fill-rule:evenodd;clip-rule:evenodd;fill:#44ADE2;}
	.st0{fill:#5E548E;}
</style>
<linearGradient id="SVGID_1_" gradientUnits="userSpaceOnUse" x1="-992.4998" y1="-992.9999" x2="-991.7927" y2="-992.2928">
	<stop  offset="0" style="stop-color:#DEDFE3"/>
	<stop  offset="0.1738" style="stop-color:#D8D9DD"/>
	<stop  offset="0.352" style="stop-color:#C9CACD"/>
	<stop  offset="0.5323" style="stop-color:#B4B5B8"/>
	<stop  offset="0.7139" style="stop-color:#989A9C"/>
	<stop  offset="0.8949" style="stop-color:#797C7E"/>
	<stop  offset="1" style="stop-color:#656B6C"/>
</linearGradient>
<g>
	<g>
		<path class="st0" d="M3.8,4.1L3.8,4.1c0.4-1.7,1-3.1,1.8-3.9C5.7,0.1,5.8,0,5.8,0c0,0-0.2,0.1-0.4,0.1C4.2,0.5,3.1,1.1,2.3,1.9
			C1.6,2.5,1.2,3.1,0.8,3.8L0.6,4.1h1.6H3.8z M11.2,4.1L11.2,4.1l1.6,0.1h1.6l-0.2-0.3c-0.6-1.1-1.5-2.1-2.6-2.8
			C11,0.6,10.3,0.3,9.6,0.1C9.4,0,9.2,0,9.2,0s0.1,0.1,0.3,0.3C10.2,1.1,10.9,2.4,11.2,4.1z M4.8,4.1c0,0,1.2,0,2.7,0
			c1.5,0,2.7,0,2.7,0c0,0-0.1-0.2-0.1-0.5c-0.5-2-1.6-3.3-2.6-3.3c-0.1,0-0.3,0-0.4,0.1C6.3,0.6,5.4,1.9,4.9,3.6
			C4.9,3.9,4.8,4.1,4.8,4.1z M3.6,8.9L3.6,8.9c-0.1-0.8-0.1-3,0-3.7l0-0.1H1.9c-0.9,0-1.7,0-1.7,0c0,0-0.2,0.7-0.2,1
			C0,6.3,0,6.7,0,7c0,0.7,0,1.1,0.2,1.6l0.1,0.3l1.7,0L3.6,8.9z M7.5,5.1H4.6l0,0.3C4.5,5.9,4.5,6.5,4.5,7s0,1.1,0.1,1.6l0,0.3h2.9
			h2.9l0-0.3c0.1-1.1,0.1-2.2,0-3.2l0-0.3H7.5z M14.8,5.4l-0.1-0.3l-1.7,0l-1.7,0l0,0.1c0.1,0.7,0.1,2.8,0,3.6l0,0.1l1.7,0l1.7,0
			l0.1-0.3C15,8.1,15,7.7,15,7C15,6.3,15,5.9,14.8,5.4z M3.8,9.9L3.8,9.9L2.2,9.9H0.6l0.2,0.3c0.4,0.7,0.8,1.3,1.4,1.8
			c0.4,0.4,0.7,0.7,1.2,1c0.6,0.4,1.3,0.7,2,0.9c0.2,0,0.4,0.1,0.4,0.1c0,0-0.1-0.1-0.2-0.3C4.8,12.9,4.2,11.6,3.8,9.9z M10.2,9.9
			c0,0-1.2,0-2.7,0c-1.5,0-2.7,0-2.7,0c0,0,0.1,0.2,0.1,0.5c0.5,2,1.6,3.3,2.6,3.3c1,0,2.1-1.4,2.6-3.5C10.2,10,10.2,9.9,10.2,9.9z
			 M11.2,9.9L11.2,9.9c-0.4,1.7-1,3.1-1.8,3.9C9.3,13.9,9.2,14,9.2,14s0.2,0,0.4-0.1c0.9-0.2,1.7-0.6,2.5-1.2
			c0.3-0.2,0.9-0.8,1.2-1.1c0.3-0.3,0.7-0.9,0.9-1.3l0.2-0.4h-1.6H11.2z"/>
	</g>
</g>
</svg>
