<?xml version="1.0" encoding="utf-8"?>
<!-- Generator: Adobe Illustrator 21.1.0, SVG Export Plug-In . SVG Version: 6.00 Build 0)  -->
<svg version="1.1" id="Layer_1" xmlns="http://www.w3.org/2000/svg" xmlns:xlink="http://www.w3.org/1999/xlink" x="0px" y="0px"
	 width="64.8px" height="58px" viewBox="0 0 64.8 58" style="enable-background:new 0 0 64.8 58;" xml:space="preserve">
<style type="text/css">
	.st0{fill:#866298;}
</style>
<g>
	<g>
		<path class="st0" d="M16.5,9c1.4-0.2,2.7-1.2,3.3-2.6c0.3-0.7,0.4-1,0.4-1.9s-0.1-1.2-0.4-1.9c-0.6-1.4-1.8-2.3-3.3-2.6
			C15.7,0,15.7,0,15,0.1c-1.4,0.3-2.7,1.3-3.3,2.5c-0.3,0.6-0.4,0.9-0.4,1.9c0,1.1,0,1.3,0.4,1.9C12.6,8.2,14.5,9.3,16.5,9z
			 M36.8,5.2c0.5-3-2.2-5.6-5.2-5.1c-3.5,0.6-4.9,5.1-2.4,7.6C31.8,10.3,36.3,8.8,36.8,5.2z M49.7,9c1.4-0.2,2.6-1.2,3.3-2.5
			c0.3-0.7,0.4-0.9,0.4-1.9c0-1.1,0-1.3-0.4-1.9c-0.4-0.8-1.3-1.7-2.1-2.1c-0.3-0.1-0.8-0.3-1.3-0.4c-0.8-0.2-0.8-0.2-1.5,0
			c-1.4,0.3-2.7,1.2-3.3,2.6c-0.3,0.7-0.4,1-0.4,1.9c0,0.9,0.1,1.2,0.4,1.9C45.7,8.3,47.7,9.3,49.7,9z M22.4,23.6l0-4.5l0-4.5
			L22,13.9c-0.2-0.3-0.6-0.6-0.8-0.8c-0.5-0.2-0.7-0.3-5.4-0.3c-4.2,0-5,0-5.3,0.2c-0.6,0.3-0.8,0.6-1.1,1.1
			c-0.2,0.5-0.2,0.9-0.2,4.9v4.4h6.6H22.4z M39,27.9v-6.7c0-5.5,0-6.7-0.2-7c-0.2-0.5-0.8-1-1.3-1.2c-0.5-0.2-9.9-0.2-10.3,0
			c-0.4,0.2-1,0.7-1.2,1.2c-0.2,0.3-0.2,1.5-0.2,7v6.7h6.6H39z M55.6,23.6v-4.4c0-3.7,0-4.5-0.2-4.8c-0.3-0.6-0.5-0.9-1.1-1.2
			c-0.4-0.2-0.8-0.2-5.4-0.2c-4.6,0-4.9,0-5.4,0.3c-0.3,0.1-0.6,0.5-0.8,0.8l-0.3,0.5l0,4.5l0,4.5h6.7H55.6z M64.7,40.8
			c-0.5-1.7-2.6-3-4.4-2.6c-0.3,0.1-3.2,1.2-6.2,2.6l-5.6,2.5h-9.6h-9.6v-1.9v-1.9h8.5h8.5l-0.1-1.1c-0.1-1.8-0.9-2.9-2.4-3.7
			l-0.6-0.3l-13.9,0c-13.3,0-13.9,0-14.8,0.2c-1.6,0.4-2,0.7-5.3,4l-3,3l5.1,5.1l5.1,5.1l1.7-1.7l1.7-1.7h14.7h14.7L57,45
			c4.3-1.9,7.8-3.4,7.8-3.5C64.8,41.5,64.8,41.1,64.7,40.8z M3.6,44.2L1.8,46L0,47.8l5.1,5.1l5.1,5.1l1.8-1.8l1.8-1.8l-5.1-5.1
			L3.6,44.2z"/>
	</g>
</g>
</svg>
