<?xml version="1.0" encoding="utf-8"?>
<!-- Generator: Adobe Illustrator 21.1.0, SVG Export Plug-In . SVG Version: 6.00 Build 0)  -->
<svg version="1.1" id="Layer_1" xmlns="http://www.w3.org/2000/svg" xmlns:xlink="http://www.w3.org/1999/xlink" x="0px" y="0px"
	 width="16.6px" height="22.4px" viewBox="0 0 16.6 22.4" style="enable-background:new 0 0 16.6 22.4;" xml:space="preserve">
<style type="text/css">
	.st0{fill:#614371;}
</style>
<path class="st0" d="M8.4,0C3.8,0,0,3.8,0,8.4C0,14.6,7.7,22,8,22.2c0.1,0.1,0.3,0.1,0.4,0.1c0.1,0,0.3,0,0.3-0.1
	c0.4-0.3,8-7.6,8-13.8C16.7,3.8,12.9,0,8.4,0z M8.4,13c-2.6,0-4.6-2.1-4.6-4.6c0-2.5,2.1-4.6,4.6-4.6c2.5,0,4.6,2.1,4.6,4.6
	C12.9,10.9,10.8,13,8.4,13z"/>
</svg>
