<?xml version="1.0" encoding="utf-8"?>
<!-- Generator: Adobe Illustrator 21.1.0, SVG Export Plug-In . SVG Version: 6.00 Build 0)  -->
<svg version="1.1" id="Calque_1" xmlns="http://www.w3.org/2000/svg" xmlns:xlink="http://www.w3.org/1999/xlink" x="0px" y="0px"
	 width="43.7px" height="50px" viewBox="0 0 43.7 50" style="enable-background:new 0 0 43.7 50;" xml:space="preserve">
<style type="text/css">
	.st0{fill:#866298;}
</style>
<path class="st0" d="M7.7,0.2C7.2,0.3,6.5,1.1,6.4,1.6c-0.1,0.5-0.2,12.8,0,13.1c0.1,0.1,1.1-1.1,4.5-5.4c2.5-3,4.7-5.7,4.9-5.9
	c0.6-0.6,1.4-0.8,2.5-0.8c0.8,0,1,0,1.6,0.3c0.9,0.4,1.1,0.6,3.8,4c1.2,1.5,2.2,2.7,2.3,2.7c0.1,0,0.6-0.7,1.3-1.6
	c0.6-0.9,1.3-1.8,1.6-1.9c1.4-1,3.4-1,4.7,0c0.2,0.2,1.3,1.4,2.2,2.7l1.8,2.4V6.6c0-3.3,0-4.7-0.1-5c-0.2-0.6-0.9-1.4-1.5-1.5
	C35.6,0,31.4,0,21.8,0C10.3,0,8.1,0,7.7,0.2z"/>
<path class="st0" d="M17.5,4.3c-0.2,0.1-0.5,0.2-0.6,0.3c-0.4,0.3-9.4,11.4-9.3,11.5c0.3,0.3,1.6,0.3,11.4,0.3
	c9.1,0,10.2,0,10.1-0.2C29,16,20,5.1,19.6,4.7C19,4.2,18.2,4,17.5,4.3z"/>
<path class="st0" d="M30,7.1c-0.4,0.2-0.7,0.6-1.8,2.1L26.9,11l0.4,0.6c0.3,0.3,1.2,1.5,2.2,2.7l1.8,2.1l1.8,0c2,0,2.8-0.1,3.4-0.4
	c0.5-0.3,0.9-1.1,1-1.7l0-0.5l-2.4-3.2c-1.6-2.1-2.6-3.3-2.8-3.4C31.7,6.8,30.6,6.8,30,7.1z"/>
<path class="st0" d="M6,24.4c-0.3,0.1-0.7,0.4-1.1,0.8c-0.7,0.7-0.9,1.3-1,2.3l0,0.6l0.6,0.2c2,0.7,3.3,2.5,3.3,4.7v0.6l6,0l6,0
	l0.6,0.3c0.3,0.2,0.6,0.3,0.7,0.3c0,0,0.1-1.7,0-3.7c-0.1-4.3-0.1-4.3-1.1-5.3c-1-1-0.7-1-7.6-1C7.3,24.3,6.4,24.3,6,24.4z"/>
<path class="st0" d="M24.8,24.4c-0.6,0.2-1.7,1.3-1.9,2c-0.2,0.5-0.2,0.9-0.2,4.2c0,2,0,3.7,0,3.7s0.3-0.1,0.7-0.3l0.6-0.3l6,0l6,0
	V33c0-2.2,1.3-4,3.3-4.7l0.6-0.2l0-0.6c-0.1-1-0.3-1.6-1-2.3c-1-1-0.7-1-7.6-1C26,24.3,25.2,24.3,24.8,24.4z"/>
<path class="st0" d="M2.1,29.9c-1.1,0.4-1.8,1.2-2,2.3C0,32.5,0,34,0,36.8c0,3.9,0.1,4.2,0.3,4.8c0.6,1.7,1.9,2.9,3.6,3.5
	c0.6,0.2,1.3,0.2,18,0.2s17.5,0,18-0.2c1.8-0.6,3-1.9,3.6-3.6c0.2-0.5,0.2-0.9,0.2-5V32l-0.3-0.6c-0.6-1.1-1.5-1.7-2.8-1.7
	c-0.6,0-0.9,0.1-1.4,0.3c-0.7,0.3-1.2,0.8-1.5,1.5c-0.2,0.4-0.2,0.8-0.3,2.9c-0.1,2.7-0.1,2.9-0.8,3.8c-0.4,0.6-1,1-1.8,1.3
	l-0.6,0.2H21.9H9.4l-0.6-0.2c-0.8-0.3-1.4-0.8-1.9-1.4c-0.6-0.9-0.7-1.1-0.7-3.7c-0.1-2.6-0.1-2.9-0.8-3.7
	C4.7,29.9,3.2,29.5,2.1,29.9z"/>
<path class="st0" d="M7.8,35.8c0,1.2,0.8,2.2,2,2.4c0.4,0.1,2.7,0.1,5.9,0.1l5.4,0l0-0.7c0-1-0.5-1.7-1.3-2.2
	c-0.4-0.2-0.7-0.2-6.2-0.2H7.8V35.8z"/>
<path class="st0" d="M24,35.4c-0.9,0.4-1.3,1.1-1.3,2.2l0,0.7l5.4,0c3.3,0,5.6,0,5.9-0.1c1.2-0.2,2-1.2,2-2.4v-0.6h-5.8
	C25,35.2,24.3,35.2,24,35.4z"/>
<path class="st0" d="M7,47.8c0,0.5,0.1,1.1,0.1,1.3C7.2,49.6,7.7,50,8.1,50c0.6,0,0.9-0.2,1.6-1.7c0.4-0.7,0.7-1.4,0.7-1.4
	c0,0-0.8-0.1-1.7-0.1H7L7,47.8L7,47.8z"/>
<path class="st0" d="M33.3,46.9c0,0,0.3,0.7,0.7,1.4c0.7,1.4,0.9,1.7,1.6,1.7c0.4,0,0.9-0.4,1.1-0.9c0.1-0.2,0.1-0.8,0.1-1.3v-0.9
	H35C34.1,46.9,33.3,46.9,33.3,46.9z"/>
</svg>
