<?xml version="1.0" encoding="utf-8"?>
<!-- Generator: Adobe Illustrator 21.1.0, SVG Export Plug-In . SVG Version: 6.00 Build 0)  -->
<svg version="1.1" id="Layer_1" xmlns="http://www.w3.org/2000/svg" xmlns:xlink="http://www.w3.org/1999/xlink" x="0px" y="0px"
	 width="59px" height="58.9px" viewBox="0 0 59 58.9" style="enable-background:new 0 0 59 58.9;" xml:space="preserve">
<style type="text/css">
	.st0{fill:#59A63B;}
</style>
<path class="st0" d="M58.9,25.8c-1-6.7-3.7-12.4-8.3-17c-4.7-4.7-10.4-7.6-17-8.6c-1.4-0.2-5.5-0.3-6.9-0.1C17.5,1,9.4,6,4.5,13.9
	c-5.6,8.9-6,20.5-0.9,29.7c1.3,2.5,2.9,4.6,5,6.6c2.4,2.5,4.9,4.2,8,5.7c3,1.5,5.9,2.3,9.3,2.8c1.4,0.2,5.9,0.2,7.3,0
	c7.2-1,13.3-4.2,18.1-9.4c4-4.4,6.6-10,7.5-16.2C59,31.7,59,27.2,58.9,25.8z M34.7,32.4l-8.3,8.3l-5.1-5.1c-2.8-2.8-5.1-5.2-5.1-5.2
	c0-0.1,0.8-0.9,1.8-1.9l1.8-1.8l3.4,3.4l3.4,3.4l6.4-6.4c3.5-3.5,6.4-6.4,6.5-6.4c0,0,0.9,0.8,1.8,1.8l1.8,1.8L34.7,32.4z"/>
</svg>
