<?xml version="1.0" encoding="utf-8"?>
<!-- Generator: Adobe Illustrator 23.0.6, SVG Export Plug-In . SVG Version: 6.00 Build 0)  -->
<svg version="1.1" id="Calque_1" xmlns="http://www.w3.org/2000/svg" xmlns:xlink="http://www.w3.org/1999/xlink" x="0px" y="0px"
	 width="45px" height="45px" viewBox="0 0 45 45" style="enable-background:new 0 0 45 45;" xml:space="preserve">
<style type="text/css">
	.st0{fill:#856298;}
</style>
<path class="st0" d="M42.6,4.5c-0.3,0.3-1.3,1.9-1.8,3c-0.8,1.8-1.3,3.4-1.6,5.5c-0.1,0.6-0.1,2.1-0.1,5c0,4.2,0,4.2,0.2,4.5
	c0.3,0.4,0.6,0.6,1.2,0.7C41,23.3,41,23,40.8,26c-0.4,4.4-0.8,11.8-0.7,12.8c0.1,0.7,0.5,1.6,0.9,2c1,0.8,2.3,0.4,2.9-0.8
	c0.1-0.3,0.3-0.8,0.3-1.1c0.1-0.8-0.3-8.2-0.7-13.3c-0.2-2.6-0.2-2.9-0.2-11.9c0-9,0-9.2-0.2-9.3C42.9,4.3,42.8,4.3,42.6,4.5z"/>
<path class="st0" d="M1.5,6.2C1.3,6.4,1.3,6.5,1,11.8c-0.3,4.5-0.3,4.7-0.1,5.3c0.3,1,0.7,1.6,2.1,2.7c0.5,0.4,0.8,0.9,0.8,1.4
	c0,0.2-0.1,1.5-0.2,2.9c-0.4,4.7-0.9,12.5-0.8,14.2c0,1.2,0.2,1.6,0.7,2.2c0.7,0.8,1.8,0.9,2.6,0.1c0.7-0.6,0.9-1.6,0.9-2.9
	c0-0.4-0.1-1.6-0.1-2.7C6.6,31.7,6.3,27.6,6,24.4c-0.1-1.7-0.2-3.1-0.2-3.3c0.1-0.7,0.4-1.1,1.4-1.8c0.9-0.7,1.5-1.7,1.6-2.8
	c0-0.5-0.5-9.2-0.6-9.9C8.1,6.2,7.9,6,7.5,6.1C7.2,6.1,7.1,6.1,7,6.4C6.9,6.6,6.9,7,7.1,10.5c0.1,2.6,0.2,3.9,0.1,4.1
	C7,14.9,6.6,15.1,6.2,15c-0.2-0.1-0.4-0.2-0.4-0.3c-0.1-0.1-0.1-1.4-0.2-4.2l-0.1-4L5.3,6.3C5,6,4.5,6,4.2,6.3C4.1,6.5,4,6.9,4,10.3
	c-0.1,2.1-0.1,4-0.2,4.1c-0.1,0.4-0.5,0.7-0.9,0.5c-0.6-0.2-0.6-0.2-0.3-5.2c0.1-1.8,0.1-3.3,0.1-3.4C2.5,6,1.8,5.9,1.5,6.2z"/>
<path class="st0" d="M22.1,6.8c-0.1,0-0.6,0.1-1,0.1c-1.4,0.2-3.3,0.8-4.7,1.5c-1.4,0.7-3.1,2-4.3,3.3c-4.2,4.5-5.1,11.4-2.4,17
	c2.2,4.4,6.4,7.4,11.4,8.2c1,0.2,3.5,0.2,4.4,0C32,35.9,37,31.2,38.3,25c1.1-5.3-0.8-10.9-4.8-14.4c-2.8-2.5-6.5-3.8-10.2-3.8
	C22.8,6.8,22.3,6.8,22.1,6.8z M25.1,10.6c2.1,0.3,3.8,1.1,5.4,2.4c2.2,1.7,3.8,4.4,4.2,7.2c0.1,0.8,0.1,2.8,0,3.6
	c-0.7,4.2-3.7,7.8-7.9,9.1c-0.9,0.3-1.9,0.5-3,0.5c-4.6,0.2-8.8-2.3-10.8-6.4c-0.8-1.6-1.2-3.2-1.2-5.1c0-2.3,0.6-4.4,1.8-6.2
	c1.9-2.9,4.6-4.6,8.3-5.2C22.6,10.4,24.4,10.4,25.1,10.6z"/>
<path class="st0" d="M22.8,13.5c-1.4,0.2-2.3,0.4-3.4,1c-2,1.1-3.5,3-4.1,5.3c-0.3,1-0.3,3.1,0,4.1c0.3,1,1,2.4,1.6,3.2
	c2.1,2.6,5.5,3.7,8.7,2.9c2.8-0.7,5.1-3,5.9-5.8c0.2-0.7,0.3-0.9,0.3-2.3c0-1.4,0-1.6-0.3-2.3c-0.9-3-3.4-5.3-6.3-5.9
	C24.4,13.6,23.3,13.5,22.8,13.5z"/>
</svg>
