<?xml version="1.0" encoding="utf-8"?>
<!-- Generator: Adobe Illustrator 21.1.0, SVG Export Plug-In . SVG Version: 6.00 Build 0)  -->
<svg version="1.1" id="Layer_1" xmlns="http://www.w3.org/2000/svg" xmlns:xlink="http://www.w3.org/1999/xlink" x="0px" y="0px"
	 width="18.8px" height="17.6px" viewBox="0 0 18.8 17.6" style="enable-background:new 0 0 18.8 17.6;" xml:space="preserve">
<style type="text/css">
	.st0{fill:#614371;}
</style>
<g>
	<g>
		<path class="st0" d="M18.8,3.9l0-1.2l0-1.2l-0.1-0.3c-0.2-0.5-0.8-1-1.4-1.1C17,0,16.6,0,16,0H15v0.9c0,0.5,0,1,0,1
			c0,0.1-0.1,0.2-0.2,0.3c-0.1,0.1-0.2,0.1-0.3,0.1c-0.2,0-0.2,0-0.3-0.1C13.8,2,13.8,2.1,13.8,1l0-1H9.1H4.5v0.8c0,1,0,1.1-0.2,1.3
			C4,2.4,3.6,2.4,3.4,2.1C3.3,1.9,3.3,1.9,3.3,1l0-1l-1,0c-0.6,0-1,0-1.1,0.1C0.8,0.2,0.4,0.5,0.2,0.9C0,1.2,0,1.5,0,2.7v1.2h9.4
			H18.8z M9.4,5.1H0l0,5.6l0,5.6l0.1,0.3c0.2,0.5,0.5,0.8,0.9,1c0.2,0.1,0.6,0.1,8.2,0.1h8l0.3-0.1c0.5-0.2,1-0.6,1.2-1l0.1-0.3
			l0-5.6l0-5.6H9.4z M4.5,7.3c0.6,0,0.9,0,0.9,0c0.1,0,0.1,0.1,0.2,0.2c0.1,0.1,0.1,0.2,0.1,0.9c0,0.7,0,0.8-0.1,1
			C5.6,9.7,5.5,9.7,4.5,9.7c-1.2,0-1.2,0-1.2-1.2C3.3,7.2,3.3,7.3,4.5,7.3z M5.5,14.8c-0.1,0.1-0.1,0.1-1,0.1c-0.8,0-0.9,0-1-0.1
			c-0.2-0.1-0.2-0.2-0.2-1.2c0-0.9,0-0.9,0.1-1c0.1-0.1,0.2-0.1,0.2-0.1c0.1,0,0.5,0,0.9,0c0.8,0,0.8,0,0.9,0.1
			c0.2,0.1,0.2,0.3,0.2,1.1C5.8,14.6,5.7,14.7,5.5,14.8z M10.3,14.7c0,0.1-0.1,0.1-0.2,0.2C10.1,15,10,15,9.2,15C7.9,15,8,15,8,13.7
			c0-0.9,0-0.9,0.1-1c0.1-0.1,0.2-0.1,0.2-0.1c0.1,0,0.5,0,0.9,0c0.7,0,0.8,0,0.9,0.1c0.2,0.1,0.2,0.2,0.2,1.1
			C10.4,14.2,10.4,14.6,10.3,14.7z M10.2,9.6c-0.1,0.1-0.2,0.1-1,0.1C7.9,9.7,8,9.7,8,8.5c0-1.2-0.1-1.2,1.2-1.2c0.6,0,0.9,0,0.9,0
			c0.1,0,0.1,0.1,0.2,0.2c0.1,0.1,0.1,0.2,0.1,0.9C10.4,9.3,10.4,9.5,10.2,9.6z M15,13.8v1l-0.1,0.1l-0.1,0.1h-0.9h-0.9l-0.1-0.1
			c-0.2-0.2-0.2-0.3-0.2-1.2c0-1.1,0-1.1,1.2-1.1c0.4,0,0.8,0,0.9,0c0.1,0,0.2,0.1,0.2,0.1l0.1,0.1V13.8z M13.9,9.7
			c-0.9,0-0.9,0-1-0.1c-0.2-0.1-0.2-0.3-0.2-1.1c0-0.8,0-0.9,0.2-1.1c0.1-0.1,0.1-0.1,1-0.1c0.7,0,0.9,0,1,0.1
			c0.2,0.1,0.2,0.2,0.2,1.1C15.1,9.7,15.1,9.7,13.9,9.7z"/>
	</g>
</g>
</svg>
