<?xml version="1.0" encoding="utf-8"?>
<!-- Generator: Adobe Illustrator 21.1.0, SVG Export Plug-In . SVG Version: 6.00 Build 0)  -->
<svg version="1.1" id="Layer_1" xmlns="http://www.w3.org/2000/svg" xmlns:xlink="http://www.w3.org/1999/xlink" x="0px" y="0px"
	 width="19.2px" height="20.8px" viewBox="0 0 19.2 20.8" style="enable-background:new 0 0 19.2 20.8;" xml:space="preserve">
<style type="text/css">
	.st0{fill:#614371;}
</style>
<g>
	<g>
		<path class="st0" d="M8.8,9l0.1,0.2c0.4,0.5,1.1,0.5,1.4,0L10.5,9l0-4.1c0-4.6,0-4.3-0.3-4.6C9.9,0,9.6-0.1,9.3,0.1
			C9.2,0.1,9.1,0.2,9,0.2c-0.3,0.3-0.3,0-0.3,4.6L8.8,9z M19.2,10.7c-0.1-1.3-0.4-2.4-1-3.6c-0.9-1.9-2.4-3.4-4.3-4.4
			c-0.6-0.3-0.8-0.3-1.1-0.2c-0.3,0.1-0.5,0.5-0.5,0.8c0,0.4,0.2,0.7,0.8,1c1.3,0.7,2.3,1.6,3.1,2.8c1.5,2.3,1.7,5.3,0.4,7.7
			c-0.4,0.8-0.8,1.4-1.5,2c-1.5,1.5-3.4,2.3-5.6,2.3c-1.7,0-3.3-0.5-4.8-1.6c-0.4-0.3-1.2-1.1-1.5-1.5c-1.8-2.4-2.1-5.5-0.8-8.2
			c0.8-1.6,2-2.8,3.6-3.6C6.5,4.1,6.7,4,6.8,3.9c0.3-0.4,0.2-1-0.2-1.3C6.4,2.5,6.1,2.5,5.9,2.5c-0.1,0-0.4,0.1-0.7,0.3
			C3.3,3.8,1.9,5.2,1,7.1c-0.6,1.2-0.9,2.3-1,3.6c-0.2,2.7,0.8,5.3,2.7,7.2c1.5,1.5,3.4,2.5,5.5,2.8c0.7,0.1,2,0.1,2.7,0
			c2.8-0.4,5.1-1.9,6.7-4.2c0.3-0.5,0.8-1.4,1-1.9C19.1,13.4,19.3,12,19.2,10.7z"/>
	</g>
</g>
</svg>
