<?xml version="1.0" encoding="utf-8"?>
<!-- Generator: Adobe Illustrator 21.1.0, SVG Export Plug-In . SVG Version: 6.00 Build 0)  -->
<svg version="1.1" id="Layer_1" xmlns="http://www.w3.org/2000/svg" xmlns:xlink="http://www.w3.org/1999/xlink" x="0px" y="0px"
	 width="20.3px" height="16.3px" viewBox="0 0 20.3 16.3" style="enable-background:new 0 0 20.3 16.3;" xml:space="preserve">
<style type="text/css">
	.st0{fill:#614371;}
</style>
<g>
	<g>
		<path class="st0" d="M10.2,7L15,4.2c2.6-1.5,4.8-2.8,4.8-2.8c0,0-0.2-0.2-0.4-0.4c-0.3-0.3-0.5-0.4-0.8-0.6C17.9,0,18.6,0,10.3,0
			C6.2,0,2.7,0,2.6,0C1.9,0.1,1.2,0.5,0.8,1C0.6,1.2,0.5,1.3,0.5,1.3c0,0,2.2,1.3,4.8,2.9L10.2,7z M20.3,3.4c0,0-2.1,1.2-4.6,2.7
			c-2.9,1.7-4.7,2.7-4.9,2.8C10.4,9,9.8,9,9.5,8.9c-0.1,0-2.3-1.3-4.9-2.8C2.1,4.6,0,3.4,0,3.4c0,0,0,2.3,0,5.1c0,5.7,0,5.4,0.3,6.1
			c0.5,0.9,1.3,1.5,2.3,1.6c0.4,0.1,14.6,0.1,15.1,0c0.7-0.1,1.4-0.5,1.9-1c0.3-0.3,0.6-1,0.7-1.4c0-0.2,0.1-1.9,0.1-5.4
			C20.3,5.7,20.3,3.4,20.3,3.4z"/>
	</g>
</g>
</svg>
