<?xml version="1.0" encoding="utf-8"?>
<!-- Generator: Adobe Illustrator 21.1.0, SVG Export Plug-In . SVG Version: 6.00 Build 0)  -->
<svg version="1.1" id="Layer_1" xmlns="http://www.w3.org/2000/svg" xmlns:xlink="http://www.w3.org/1999/xlink" x="0px" y="0px"
	 width="22px" height="18.3px" viewBox="0 0 22 18.3" style="enable-background:new 0 0 22 18.3;" xml:space="preserve">
<style type="text/css">
	.st0{fill:#614371;}
</style>
<path class="st0" d="M22,5.3L22,5.3c0-1.1-0.9-1.9-1.9-1.9h-3.6l-1.2-2.3C15,0.4,14.3,0,13.6,0H8.4C7.7,0,7,0.4,6.7,1.1L5.5,3.4H1.9
	C0.9,3.4,0,4.3,0,5.3l0,0c0,0,0,0,0,0v11.1c0,1.1,0.9,1.9,1.9,1.9h18.2c1,0,1.9-0.9,1.9-1.9V5.3C22,5.3,22,5.3,22,5.3z M7.8,1.6
	c0.1-0.2,0.3-0.4,0.6-0.4h5.2c0.2,0,0.5,0.1,0.6,0.4L15,3.4H6.9L7.8,1.6z M1.9,4.7h14.2c0,0,0,0,0,0c0,0,0,0,0,0h4
	c0.3,0,0.6,0.3,0.6,0.6V7l0,0c0,0,0,0,0,0l-7.3,3.2l0,0H8.6l0,0l0,0c0,0-7.3-3.2-7.3-3.2l0,0V5.3C1.3,5,1.6,4.7,1.9,4.7z M8.2,11.4
	c0.1,0,0.2,0.1,0.3,0.1h0.6V13c0,0.6,0.5,1.1,1.1,1.1h1.7c0.6,0,1.1-0.5,1.1-1.1v-1.5h0.6c0.1,0,0.2,0,0.3-0.1l3.3-1.5v7H4.9v-7
	L8.2,11.4z M10.4,11.5h1.3v1.3h-1.3V11.5z M1.3,16.4v-8l2.3,1V17H1.9C1.6,17,1.3,16.7,1.3,16.4z M20.1,17h-1.7V9.4l2.3-1v8
	C20.7,16.7,20.4,17,20.1,17z"/>
</svg>
