<?xml version="1.0" encoding="utf-8"?>
<!-- Generator: Adobe Illustrator 21.1.0, SVG Export Plug-In . SVG Version: 6.00 Build 0)  -->
<svg version="1.1" id="Layer_1" xmlns="http://www.w3.org/2000/svg" xmlns:xlink="http://www.w3.org/1999/xlink" x="0px" y="0px"
	 width="15.1px" height="15.8px" viewBox="0 0 15.1 15.8" style="enable-background:new 0 0 15.1 15.8;" xml:space="preserve">
<style type="text/css">
	.st0{fill:#5E548E;}
</style>
<g>
	<g>
		<path class="st0" d="M8.2,1.2C8.6,1,8.7,1,11.4,1.1c1.4,0,2.6,0,2.6,0c0,0,0-0.1-0.1-0.2c-0.1-0.2-0.4-0.5-0.6-0.6
			C12.8,0,12.8,0,10.2,0C8.8,0,7.7,0,7.6,0c-0.2,0-0.4,0.1-0.6,0.2C7,0.3,5.4,1.8,3.6,3.6C0,7.1,0.2,6.9,0,7.4C0,7.6,0,7.9,0,8.1
			c0,0.2,0.2,0.6,0.2,0.6c0,0,0.1-0.1,0.2-0.2c0.1-0.2,0.9-1,3.6-3.5C7.8,1.2,7.6,1.4,8.2,1.2z M15.1,3.3c-0.1-0.6-0.7-1.1-1.2-1.2
			c-0.3,0-5,0-5.2,0c-0.4,0.1-0.3,0-3.9,3.5C2.9,7.4,1.4,8.9,1.3,9C1.1,9.3,1,9.8,1.1,10.2c0.1,0.5,0,0.4,2.7,2.9
			c2.6,2.6,2.5,2.5,3,2.6c0.4,0.1,0.9,0,1.2-0.2c0.1,0,1.6-1.6,3.5-3.3c3.6-3.5,3.4-3.3,3.6-3.8C15.1,8.1,15.1,3.6,15.1,3.3z
			 M12.9,6.1c-0.1,0.3-0.2,0.5-0.5,0.8c-0.3,0.2-0.5,0.4-0.8,0.4c-1,0.2-2-0.6-1.9-1.6c0.1-1,1-1.7,2-1.4
			C12.6,4.4,13.1,5.3,12.9,6.1z"/>
	</g>
</g>
</svg>
