<?xml version="1.0" encoding="utf-8"?>
<!-- Generator: Adobe Illustrator 21.1.0, SVG Export Plug-In . SVG Version: 6.00 Build 0)  -->
<svg version="1.1" id="Layer_1" xmlns="http://www.w3.org/2000/svg" xmlns:xlink="http://www.w3.org/1999/xlink" x="0px" y="0px"
	 width="13.7px" height="20.6px" viewBox="0 0 13.7 20.6" style="enable-background:new 0 0 13.7 20.6;" xml:space="preserve">
<style type="text/css">
	.st0{fill:#5E548E;}
</style>
<g>
	<g>
		<path class="st0" d="M13.6,0.3c0-0.1-0.2-0.2-0.2-0.2C13.3,0,12.9,0,6.9,0S0.5,0,0.3,0.1c-0.1,0-0.2,0.1-0.2,0.2L0,0.4V9v8.6
			l0.1,0.1C0.3,18,0.1,18,3.2,18h2.7v-0.8v-0.8l-0.1-0.2c-0.3-0.4-0.5-1-0.6-1.5c-0.1-0.4,0-1.2,0.1-1.6c0.2-0.7,0.5-1.2,1-1.7
			c1.1-1.1,2.8-1.4,4.2-0.7c0.8,0.4,1.4,1,1.8,1.7c0.3,0.5,0.4,1.3,0.4,1.9c-0.1,0.7-0.3,1.4-0.6,1.9l-0.1,0.2v0.8V18h0.7
			c0.8,0,0.9,0,1.1-0.3l0.1-0.1V9V0.4L13.6,0.3z M2.4,2.9c0.2-0.3,0.2-0.3,1.7-0.3c1.2,0,1.3,0,1.4,0.1c0.4,0.2,0.4,0.8,0,1
			C5.5,3.8,5.3,3.8,4.1,3.8c-1.2,0-1.3,0-1.5-0.1C2.5,3.6,2.4,3.4,2.4,3.2C2.3,3,2.4,3,2.4,2.9z M2.4,7.4C2.4,7.3,2.3,7.3,2.4,7.1
			c0-0.3,0.2-0.5,0.5-0.5c0.1,0,1.9,0,4.1,0c3.8,0,4,0,4.1,0.1c0.2,0.1,0.3,0.3,0.3,0.5c0,0.2,0,0.2-0.1,0.3
			c-0.2,0.3,0.1,0.3-4.4,0.3C2.3,7.7,2.6,7.7,2.4,7.4z M11.1,9.6C11,9.7,10.9,9.7,9.6,9.7c-1.4,0-1.4,0-1.6-0.2
			C7.9,9.4,7.9,9.3,7.9,9.1c0-0.3,0-0.4,0.3-0.5c0.1-0.1,0.2-0.1,1.5-0.1c1.3,0,1.3,0,1.5,0.1C11.5,8.8,11.5,9.4,11.1,9.6z M11,5.7
			l-0.2,0.1h-4h-4L2.7,5.7c-0.4-0.2-0.4-0.8,0-1l0.2-0.1h4h4L11,4.6C11.5,4.9,11.5,5.4,11,5.7z M9.7,11.6c-0.3-0.1-1.1-0.2-1.5-0.1
			c-0.7,0.2-1.3,0.7-1.6,1.3c-0.2,0.4-0.3,0.7-0.3,1.1c0,0.5,0.1,0.7,0.3,1.1c0.3,0.6,1,1.2,1.6,1.4c0.3,0.1,0.9,0.1,1.3,0
			c0.8-0.2,1.5-0.9,1.8-1.7c0.1-0.2,0.1-0.4,0.1-0.8s0-0.5-0.1-0.8C11,12.5,10.4,11.9,9.7,11.6z M10.3,17.5
			c-0.5,0.2-0.8,0.3-1.5,0.3c-0.6,0-0.9-0.1-1.5-0.3l-0.3-0.1v1.4c0,1.5,0,1.6,0.2,1.7c0.1,0.1,0.2,0.1,0.3,0.1c0.2,0,0.2,0,0.7-0.3
			c0.3-0.2,0.5-0.3,0.5-0.3c0,0,0.3,0.1,0.5,0.3c0.4,0.2,0.5,0.3,0.6,0.3c0.2,0,0.4-0.1,0.5-0.3c0.1-0.1,0.1-0.2,0.1-1.5
			c0-0.8,0-1.4,0-1.4C10.6,17.4,10.5,17.4,10.3,17.5z"/>
	</g>
</g>
</svg>
