<?xml version="1.0" encoding="utf-8"?>
<!-- Generator: Adobe Illustrator 21.1.0, SVG Export Plug-In . SVG Version: 6.00 Build 0)  -->
<svg version="1.1" id="Capa_1" xmlns="http://www.w3.org/2000/svg" xmlns:xlink="http://www.w3.org/1999/xlink" x="0px" y="0px"
	 width="18px" height="17.2px" viewBox="0 0 18 17.2" style="enable-background:new 0 0 18 17.2;" xml:space="preserve">
<style type="text/css">
	.st0{fill:#5E548E;}
</style>
<path class="st0" d="M9.9,0.5l2,4.1c0.1,0.3,0.4,0.5,0.7,0.5l4.5,0.7C18,6,18.3,6.9,17.7,7.5l-3.3,3.2c-0.2,0.2-0.3,0.5-0.3,0.9
	l0.8,4.5c0.1,0.8-0.7,1.4-1.4,1L9.5,15c-0.3-0.1-0.6-0.1-0.9,0l-4.1,2.1c-0.7,0.4-1.5-0.2-1.4-1l0.8-4.5c0.1-0.3-0.1-0.6-0.3-0.9
	L0.3,7.5C-0.3,6.9,0,6,0.8,5.8l4.5-0.7c0.3,0,0.6-0.2,0.7-0.5l2-4.1C8.5-0.2,9.5-0.2,9.9,0.5z"/>
</svg>
