<?xml version="1.0" encoding="utf-8"?>
<!-- Generator: Adobe Illustrator 23.0.6, SVG Export Plug-In . SVG Version: 6.00 Build 0)  -->
<svg version="1.1" id="Capa_1" xmlns="http://www.w3.org/2000/svg" xmlns:xlink="http://www.w3.org/1999/xlink" x="0px" y="0px"
	 width="100px" height="18px" viewBox="0 0 100 18" style="enable-background:new 0 0 100 18;" xml:space="preserve">
<style type="text/css">
	.st0{fill:#5E548E;}
</style>
<path class="st0" d="M9.9,0.9l2,4.1c0.1,0.3,0.4,0.5,0.7,0.5l4.5,0.7c0.9,0.2,1.2,1.1,0.6,1.7l-3.3,3.2c-0.2,0.2-0.3,0.5-0.3,0.9
	l0.8,4.5c0.1,0.8-0.7,1.4-1.4,1l-4-2.1c-0.3-0.1-0.6-0.1-0.9,0l-4.1,2.1c-0.7,0.4-1.5-0.2-1.4-1l0.8-4.5c0.1-0.3-0.1-0.6-0.3-0.9
	L0.3,7.9C-0.3,7.3,0,6.4,0.8,6.2l4.5-0.7C5.6,5.5,5.9,5.3,6,5l2-4.1C8.5,0.2,9.5,0.2,9.9,0.9z"/>
<path class="st0" d="M30.4,0.9l2,4.1c0.1,0.3,0.4,0.5,0.7,0.5l4.5,0.7c0.9,0.2,1.2,1.1,0.6,1.7l-3.3,3.2c-0.2,0.2-0.3,0.5-0.3,0.9
	l0.8,4.5c0.1,0.8-0.7,1.4-1.4,1l-4-2.1c-0.3-0.1-0.6-0.1-0.9,0L25,17.4c-0.7,0.4-1.5-0.2-1.4-1l0.8-4.5c0.1-0.3-0.1-0.6-0.3-0.9
	l-3.3-3.2c-0.6-0.6-0.3-1.5,0.5-1.7l4.5-0.7c0.3,0,0.6-0.2,0.7-0.5l2-4.1C29,0.2,30,0.2,30.4,0.9z"/>
<path class="st0" d="M50.9,0.9l2,4.1c0.1,0.3,0.4,0.5,0.7,0.5l4.5,0.7c0.9,0.2,1.2,1.1,0.6,1.7l-3.3,3.2c-0.2,0.2-0.3,0.5-0.3,0.9
	l0.8,4.5c0.1,0.8-0.7,1.4-1.4,1l-4-2.1c-0.3-0.1-0.6-0.1-0.9,0l-4.1,2.1c-0.7,0.4-1.5-0.2-1.4-1l0.8-4.5c0.1-0.3-0.1-0.6-0.3-0.9
	l-3.3-3.2c-0.6-0.6-0.3-1.5,0.5-1.7l4.5-0.7c0.3,0,0.6-0.2,0.7-0.5l2-4.1C49.5,0.2,50.5,0.2,50.9,0.9z"/>
<path class="st0" d="M71.4,0.9l2,4.1c0.1,0.3,0.4,0.5,0.7,0.5l4.5,0.7c0.9,0.2,1.2,1.1,0.6,1.7l-3.3,3.2c-0.2,0.2-0.3,0.5-0.3,0.9
	l0.8,4.5c0.1,0.8-0.7,1.4-1.4,1l-4-2.1c-0.3-0.1-0.6-0.1-0.9,0L66,17.4c-0.7,0.4-1.5-0.2-1.4-1l0.8-4.5c0.1-0.3-0.1-0.6-0.3-0.9
	l-3.3-3.2c-0.6-0.6-0.3-1.5,0.5-1.7l4.5-0.7c0.3,0,0.6-0.2,0.7-0.5l2-4.1C70,0.2,71,0.2,71.4,0.9z"/>
<path class="st0" d="M91.9,0.9l2,4.1c0.1,0.3,0.4,0.5,0.7,0.5l4.5,0.7c0.9,0.2,1.2,1.1,0.6,1.7l-3.3,3.2c-0.2,0.2-0.3,0.5-0.3,0.9
	l0.8,4.5c0.1,0.8-0.7,1.4-1.4,1l-4-2.1c-0.3-0.1-0.6-0.1-0.9,0l-4.1,2.1c-0.7,0.4-1.5-0.2-1.4-1l0.8-4.5c0.1-0.3-0.1-0.6-0.3-0.9
	l-3.3-3.2c-0.6-0.6-0.3-1.5,0.5-1.7l4.5-0.7c0.3,0,0.6-0.2,0.7-0.5l2-4.1C90.5,0.2,91.5,0.2,91.9,0.9z"/>
</svg>
