<?xml version="1.0" encoding="utf-8"?>
<!-- Generator: Adobe Illustrator 21.1.0, SVG Export Plug-In . SVG Version: 6.00 Build 0)  -->
<svg version="1.1" id="Layer_1" xmlns="http://www.w3.org/2000/svg" xmlns:xlink="http://www.w3.org/1999/xlink" x="0px" y="0px"
	 width="14px" height="14px" viewBox="0 0 14 14" style="enable-background:new 0 0 14 14;" xml:space="preserve">
<style type="text/css">
	.st0{fill:#5E548E;}
</style>
<path class="st0" d="M6.7,0C6.3,0.1,6.4,0,3.3,3.2c-1.6,1.6-3,3-3.1,3.1c-0.3,0.5-0.3,1.2,0.2,1.6c0.3,0.2,0.6,0.4,0.9,0.4h0.2v2.2
	c0,1.5,0,2.2,0,2.3c0.1,0.5,0.5,1,1,1.1C2.7,14,2.7,14,4.1,14c1.3,0,1.3,0,1.4-0.1c0,0,0.1-0.1,0.1-0.1c0.1-0.1,0.1-0.1,0.1-1.9
	l0-1.8l0.1-0.1c0.1-0.2,0.3-0.3,0.5-0.3c0.1,0,0.5,0,0.9,0l0.7,0L8,9.7C8.1,9.8,8.2,9.9,8.3,10c0,0.1,0,0.4,0.1,1.9
	c0,1.8,0,1.8,0.1,1.9c0,0,0.1,0.1,0.1,0.1C8.6,14,8.6,14,10,14c1.3,0,1.3,0,1.5-0.1c0.5-0.2,0.9-0.6,1-1.1c0-0.1,0-0.9,0-2.3V8.3
	h0.2c0.7,0,1.2-0.4,1.3-1.1c0-0.3,0-0.5-0.1-0.8c-0.1-0.2-0.3-0.4-3.1-3.2c-1.6-1.6-3-3-3.1-3.1c-0.1,0-0.2-0.1-0.3-0.1
	C7.2,0,6.9,0,6.7,0z"/>
</svg>
