<?xml version="1.0" encoding="utf-8"?>
<!-- Generator: Adobe Illustrator 21.1.0, SVG Export Plug-In . SVG Version: 6.00 Build 0)  -->
<svg version="1.1" id="Layer_1" xmlns="http://www.w3.org/2000/svg" xmlns:xlink="http://www.w3.org/1999/xlink" x="0px" y="0px"
	 width="4.7px" height="10.7px" viewBox="0 0 4.7 10.7" style="enable-background:new 0 0 4.7 10.7;" xml:space="preserve">
<style type="text/css">
	.st0{fill:#614371;}
</style>
<g>
	<g>
		<path class="st0" d="M2.9,2.4c0.2,0.1,0.5,0.1,0.8,0c0.6-0.1,1-0.6,1-1.2c0-0.3-0.1-0.6-0.4-0.9C4.2,0.2,4.1,0.1,3.8,0.1
			C3.7,0,3.3,0,3.1,0c-0.5,0.1-0.9,0.4-1,0.9c-0.1,0.2-0.1,0.5,0,0.6C2.2,1.9,2.5,2.3,2.9,2.4z M3.3,9.7C3.2,9.7,3.1,9.6,3,9.5
			c0-0.1,0-0.1,0-0.4c0-0.4,0-0.6,0.4-1.9C3.7,6,3.8,5.8,3.8,5.5c0.1-0.7,0-1.1-0.4-1.4C3.3,4,3.2,3.9,3.1,3.8
			C2.8,3.7,2.4,3.6,1.9,3.6c-0.3,0-0.8,0.2-1.4,0.4L0.1,4.2L0.1,4.5C0,4.6,0,4.8,0,4.8c0,0,0.1,0,0.2-0.1c0.4-0.1,0.8-0.1,1.1,0
			C1.5,4.8,1.6,5,1.6,5.3c0,0.3-0.1,0.6-0.5,2C0.8,8.3,0.8,8.6,0.7,9c-0.1,0.6,0.1,1,0.4,1.3c0.3,0.3,0.7,0.5,1.4,0.4
			c0.4,0,0.6,0,0.9-0.1c0.3-0.1,1-0.4,1-0.4c0,0,0.2-0.6,0.1-0.6c0,0-0.1,0-0.1,0C4,9.8,3.6,9.8,3.3,9.7z"/>
	</g>
</g>
</svg>
