<?xml version="1.0" encoding="utf-8"?>
<!-- Generator: Adobe Illustrator 21.1.0, SVG Export Plug-In . SVG Version: 6.00 Build 0)  -->
<svg version="1.1" id="Layer_1" xmlns="http://www.w3.org/2000/svg" xmlns:xlink="http://www.w3.org/1999/xlink" x="0px" y="0px"
	 width="20.2px" height="20.2px" viewBox="0 0 20.2 20.2" style="enable-background:new 0 0 20.2 20.2;" xml:space="preserve">
<style type="text/css">
	.st0{fill:#614371;}
</style>
<g>
	<g>
		<path class="st0" d="M20.2,12V5.8h-1.9c-2.1,0-2.2,0-2.7-0.3c-0.3-0.2-0.7-0.6-0.9-0.9c-0.3-0.5-0.3-0.6-0.3-2.7V0l-4.1,0
			C6.9,0,6.2,0,5.9,0.1C5.2,0.3,4.6,0.9,4.4,1.7C4.3,1.9,4.3,2.2,4.3,3.1v1.2h0.2c0.6,0,1.6,0.3,2.4,0.6c3.2,1.6,4.2,5.7,2,8.7
			l-0.2,0.3l0,3c0,2.3,0,3.1-0.1,3.1l-0.1,0.1h4.9c5.4,0,5.1,0,5.7-0.3c0.3-0.2,0.7-0.6,0.9-0.9C20.2,18.5,20.2,18.9,20.2,12z
			 M9.9,5.7C9.4,5.6,9.2,5,9.5,4.6c0.2-0.3,0.3-0.3,1.7-0.3c1.2,0,1.3,0,1.4,0.1C12.9,4.6,13,4.8,13,5.1s-0.1,0.4-0.3,0.6
			c-0.1,0.1-0.2,0.1-1.4,0.1C10.5,5.8,10,5.8,9.9,5.7z M17,16.5c-0.1,0.1-0.2,0.1-3.2,0.1c-2.1,0-3.1,0-3.2,0
			c-0.5-0.1-0.6-0.8-0.3-1.1c0.2-0.3,0.1-0.3,3.5-0.3c3,0,3.1,0,3.2,0.1c0.2,0.2,0.3,0.3,0.3,0.6C17.3,16.2,17.2,16.3,17,16.5z
			 M17,12.9C16.9,13,16.8,13,14.5,13c-1.6,0-2.4,0-2.5,0c-0.5-0.1-0.6-0.8-0.3-1.1c0.2-0.3,0.2-0.3,2.8-0.3c2.3,0,2.4,0,2.5,0.1
			c0.2,0.2,0.3,0.3,0.3,0.6S17.2,12.7,17,12.9z M17,9.3c-0.1,0.1-0.2,0.1-2.5,0.1c-1.6,0-2.4,0-2.5,0c-0.5-0.1-0.6-0.8-0.3-1.1
			c0.2-0.3,0.2-0.3,2.8-0.3c2.3,0,2.4,0,2.5,0.1c0.2,0.2,0.3,0.3,0.3,0.6C17.3,9,17.2,9.1,17,9.3z M16.4,4.3c0.1,0,0.9,0,1.7,0
			l1.6,0l-1.9-1.9l-1.9-1.9v1.7c0,1.3,0,1.7,0.1,1.8C16,4.1,16.2,4.3,16.4,4.3z M8.5,9.1C8.1,7.4,6.7,6.1,5.1,5.8
			c-0.5-0.1-1-0.1-1.5,0C2.7,6,1.8,6.5,1.2,7.1c-1.6,1.7-1.6,4.3,0,6C2,13.9,3,14.4,4.1,14.4c2.1,0.1,3.8-1.2,4.4-3.3
			C8.7,10.7,8.7,9.6,8.5,9.1z M4.3,15.9c-1.1,0-1.8-0.2-2.8-0.7c0,0,0,1,0,2.2c0,2.5,0,2.5,0.3,2.7c0.2,0.1,0.4,0.2,0.6,0.1
			c0.1,0,0.3-0.2,1.1-0.9l0.9-0.9l0.9,0.9C6,20,6.2,20.2,6.3,20.2c0.2,0,0.4,0,0.6-0.1c0.3-0.2,0.3-0.2,0.3-2.7v-2.3l-0.4,0.2
			C5.9,15.7,5.3,15.9,4.3,15.9z"/>
	</g>
</g>
</svg>
