<?xml version="1.0" encoding="utf-8"?>
<!-- Generator: Adobe Illustrator 21.1.0, SVG Export Plug-In . SVG Version: 6.00 Build 0)  -->
<svg version="1.1" id="Layer_1" xmlns="http://www.w3.org/2000/svg" xmlns:xlink="http://www.w3.org/1999/xlink" x="0px" y="0px"
	 width="15px" height="15px" viewBox="0 0 15 15" style="enable-background:new 0 0 15 15;" xml:space="preserve">
<style type="text/css">
	.st0{fill:#FFFFFF;}
</style>
<path class="st0" d="M15,9.2V15h-3.2V9.6c0-1.4-0.5-2.3-1.6-2.3C9.3,7.3,8.8,8,8.5,8.5C8.4,8.8,8.4,9,8.4,9.3V15H5.2
	c0,0,0.1-9.2,0-10.1h3.2v1.4l0,0l0,0l0,0c0.4-0.7,1.1-1.6,2.9-1.6C13.4,4.6,15,6.1,15,9.2z M1.8,0C0.7,0,0,0.7,0,1.7
	s0.7,1.7,1.8,1.7l0,0c1.1,0,1.8-0.7,1.8-1.7S3,0,1.8,0z M0.2,15h3.2V4.8H0.2V15z"/>
</svg>
