<?xml version="1.0" encoding="utf-8"?>
<!-- Generator: Adobe Illustrator 21.1.0, SVG Export Plug-In . SVG Version: 6.00 Build 0)  -->
<svg version="1.1" id="Layer_1" xmlns="http://www.w3.org/2000/svg" xmlns:xlink="http://www.w3.org/1999/xlink" x="0px" y="0px"
	 width="42px" height="42px" viewBox="0 0 42 42" style="enable-background:new 0 0 42 42;" xml:space="preserve">
<style type="text/css">
	.Drop_x0020_Shadow{fill:none;}
	.Round_x0020_Corners_x0020_2_x0020_pt{fill:#FFFFFF;stroke:#000000;stroke-miterlimit:10;}
	.Live_x0020_Reflect_x0020_X{fill:none;}
	.Bevel_x0020_Soft{fill:url(#SVGID_1_);}
	.Dusk{fill:#FFFFFF;}
	.Foliage_GS{fill:#FFDD00;}
	.Pompadour_GS{fill-rule:evenodd;clip-rule:evenodd;fill:#44ADE2;}
	.st0{fill:#624471;}
</style>
<linearGradient id="SVGID_1_" gradientUnits="userSpaceOnUse" x1="-979.5" y1="-978.9986" x2="-978.7928" y2="-978.2914">
	<stop  offset="0" style="stop-color:#DEDFE3"/>
	<stop  offset="0.1738" style="stop-color:#D8D9DD"/>
	<stop  offset="0.352" style="stop-color:#C9CACD"/>
	<stop  offset="0.5323" style="stop-color:#B4B5B8"/>
	<stop  offset="0.7139" style="stop-color:#989A9C"/>
	<stop  offset="0.8949" style="stop-color:#797C7E"/>
	<stop  offset="1" style="stop-color:#656B6C"/>
</linearGradient>
<g>
	<g>
		<path class="st0" d="M31.1,22.3c1.1,1.3,1.5,1.5,2.3,1.2c0.7-0.3,4.3-5,6-7.6c2.2-3.5,2.9-5.8,2.5-8c-0.6-3.9-3.4-6.8-7.2-7.7
			C34,0,32.3,0,31.8,0c-1.7,0.3-2.3,0.5-3.3,1.1c-2.8,1.5-4.6,4.3-4.8,7.5c-0.1,1.4,0.3,2.8,1.3,4.9C26.2,16,28.4,19.1,31.1,22.3z
			 M27.8,5c1.7-2,4.4-2.8,6.9-2.1C37,3.6,38.7,5.5,39.3,8c0.1,0.3,0.1,0.8,0.1,1.1c0,1.6-1.5,4.6-4.3,8.4c-0.9,1.2-2.2,2.8-2.2,2.8
			c-0.1,0-2.7-3.4-3.7-4.9c-1.3-2-2.4-4-2.7-5.2C26,8.5,26.6,6.5,27.8,5z M33.4,13c2.1-0.3,3.6-2.4,3.3-4.5
			c-0.1-0.8-0.5-1.6-1.1-2.2c-0.6-0.6-1.2-0.9-1.9-1.1c-0.7-0.1-1.1-0.1-1.7,0c-2,0.4-3.3,2.4-3,4.4C29.3,11.9,31.3,13.4,33.4,13z
			 M33.3,8c0.1,0.1,0.4,0.2,0.5,0.4c0.4,0.6,0.4,1.2-0.1,1.7c-0.5,0.5-1.2,0.5-1.8,0C30.9,9.1,32,7.4,33.3,8z M42,27.4
			c0-8.1,0-8.2-0.2-8.4c-0.3-0.4-0.6-0.6-1.1-0.6c-0.5,0-0.8,0.1-1.1,0.6c-0.2,0.2-0.2,0.3-0.2,7.9l0,7.7l-5.1,2
			c-2.8,1.1-5.2,2.1-5.2,2.1c-0.1,0-0.1-0.4-0.2-7.1c0-7.1,0-7.1-0.2-7.4c-0.3-0.4-0.6-0.6-1.1-0.6s-0.8,0.1-1.1,0.6
			c-0.2,0.2-0.2,0.3-0.2,7.4c0,6.7,0,7.1-0.2,7.1c-0.1,0-2.4-1-5.2-2.1l-5.1-2l0-10.4c0-5.7,0-10.4,0-10.4s1.4,0.6,3.1,1.2
			c2.8,1.1,3.1,1.2,3.5,1.2c0.2,0,0.5-0.1,0.6-0.2c0.3-0.2,0.5-0.7,0.5-1.1c0-0.3-0.3-0.8-0.5-1c-0.4-0.3-8.4-3.4-8.7-3.4
			c-0.1,0-3.2,1.2-7,2.7c-3.7,1.5-6.8,2.7-6.9,2.8c-0.1,0.1-0.3,0.3-0.4,0.5C0,16.8,0,17.2,0,28.9V41l0.2,0.3
			C0.4,41.7,0.9,42,1.3,42c0.1,0,3.1-1.2,6.7-2.6l6.4-2.6l6.4,2.6c3.5,1.4,6.5,2.6,6.7,2.6c0.3,0,13.6-5.3,13.9-5.5
			C42,36,42,36.4,42,27.4z M13.1,24.2l0,10.4l-5.1,2c-2.8,1.1-5.2,2.1-5.2,2.1c-0.1,0-0.1-0.5-0.1-10.4l0-10.4l5.2-2.1
			c2.8-1.1,5.2-2.1,5.2-2.1C13.1,13.8,13.1,18.4,13.1,24.2z"/>
	</g>
</g>
</svg>
