<?xml version="1.0" encoding="utf-8"?>
<!-- Generator: Adobe Illustrator 21.1.0, SVG Export Plug-In . SVG Version: 6.00 Build 0)  -->
<svg version="1.1" id="Calque_1" xmlns="http://www.w3.org/2000/svg" xmlns:xlink="http://www.w3.org/1999/xlink" x="0px" y="0px"
	 width="50px" height="50px" viewBox="0 0 50 50" style="enable-background:new 0 0 50 50;" xml:space="preserve">
<style type="text/css">
	.st0{fill:#866298;}
</style>
<path class="st0" d="M24.1,0.1c-3,0.8-4,4.5-1.8,6.6c0.3,0.3,0.8,0.6,1.1,0.8c0.5,0.2,0.7,0.3,1.6,0.3c1,0,1.1,0,1.7-0.3
	c0.8-0.4,1.6-1.3,1.9-2c1-2.5-0.7-5.2-3.4-5.4C24.8,0,24.3,0,24.1,0.1z"/>
<path class="st0" d="M13.8,5c-1,0.4-1.8,1.3-1.9,2.2l-0.1,0.5L10.7,8c-0.6,0.2-1.2,0.4-1.4,0.5c-0.5,0.3-0.6,0.5-0.6,4l0,3.2l-4.4,0
	l-4.4,0v2.4v2.4h25h25v-2.4v-2.4l-4.4,0l-4.4,0l0-3.2c0-3.5,0-3.8-0.6-4c-0.1-0.1-0.8-0.3-1.4-0.5c-1-0.3-1.1-0.4-1.1-0.5
	c0-0.4-0.3-1.1-0.7-1.6c-1.1-1.3-3.1-1.3-4.3-0.1c-0.6,0.6-0.8,1.2-0.8,2.1c0,1.2,0.5,2.1,1.6,2.6c0.5,0.2,0.7,0.3,1.3,0.3
	c0.6,0,0.8,0,1.3-0.3c0.3-0.2,0.7-0.4,0.8-0.6l0.2-0.3l0.8,0.2l0.8,0.2v2.8v2.8h-4.4h-4.4v-2.5c0-1.5,0-2.7-0.1-3
	c-0.1-0.6-0.5-1.4-0.8-1.8L29.3,8l-0.7,0.5c-1.2,0.9-2.2,1.2-3.6,1.2c-1.4,0-2.5-0.4-3.6-1.2L20.7,8l-0.2,0.3
	c-0.3,0.4-0.6,1.2-0.8,1.8c-0.1,0.3-0.1,1.5-0.1,3v2.5h-4.5h-4.4v-2.8V10l0.8-0.2l0.8-0.2l0.2,0.3c0.1,0.2,0.5,0.4,0.8,0.6
	c1.5,0.8,3.3,0.1,4-1.4c0.3-0.6,0.3-1.7,0-2.3C16.8,5.3,15.2,4.6,13.8,5z"/>
<path class="st0" d="M5.3,24.6v2.1H25h19.7v-2.1v-2.1H25H5.3V24.6z"/>
<path class="st0" d="M5.3,31.5v2.9l0.5,0.2c0.7,0.3,1.4,1.1,1.8,1.9C7.8,37,7.9,37.2,7.9,38c0,1.1-0.2,1.9-0.8,2.7l-0.4,0.5L7,41.4
	c0.5,0.3,1.4,1.3,1.7,1.8L9,43.6h5.4h5.4l0.3-0.5c0.4-0.6,1-1.2,1.5-1.6c0.2-0.1,0.4-0.3,0.4-0.3c0,0-0.1-0.2-0.3-0.4
	c-0.7-0.8-1-2.1-0.9-3.2c0.5-3.3,4.4-4.7,6.9-2.4c0.6,0.6,1.2,1.6,1.3,2.5c0.2,1.1-0.2,2.4-0.9,3.2c-0.3,0.4-0.3,0.4-0.1,0.5
	c0.8,0.6,1.4,1.2,1.8,1.9l0.3,0.4h5.5h5.4l0.3-0.5c0.3-0.5,1.2-1.5,1.7-1.8l0.2-0.1l-0.4-0.5c-0.6-0.8-0.8-1.6-0.8-2.7
	c0-0.7,0.1-1,0.4-1.6c0.4-0.8,1.1-1.6,1.8-1.9l0.5-0.2v-2.9v-2.9H25H5.3V31.5z"/>
<path class="st0" d="M3.1,36.2c-1.6,0.6-2,2.6-0.7,3.7c0.4,0.4,0.9,0.5,1.6,0.5c1.1-0.1,1.9-0.9,1.9-1.9c0-0.7-0.1-1.2-0.6-1.7
	C4.8,36.1,3.9,35.9,3.1,36.2z"/>
<path class="st0" d="M24.3,36.2c-0.9,0.3-1.5,1.1-1.5,2.1c0,1.2,0.9,2.2,2.2,2.2c1.2,0,2.2-0.9,2.2-2.2c0-0.7-0.2-1.1-0.6-1.6
	C25.9,36.1,25.1,35.9,24.3,36.2z"/>
<path class="st0" d="M45.6,36.2c-1.7,0.6-2,2.9-0.5,3.9c0.5,0.3,1.3,0.4,1.9,0.2c1-0.3,1.7-1.5,1.4-2.6C48,36.5,46.8,35.8,45.6,36.2
	z"/>
<path class="st0" d="M3,42.5c-0.8,0.2-1.4,0.5-2,1.2c-0.9,1-1,1.3-1,4L0,50h3.8h3.8l0-2.3c0-2.1-0.1-2.3-0.3-2.8
	C6.6,43.1,4.8,42.1,3,42.5z"/>
<path class="st0" d="M24.2,42.5c-1,0.2-1.9,0.8-2.4,1.7c-0.5,0.8-0.6,1.4-0.6,3.7V50H25h3.8v-2.1c0-1.1,0-2.3-0.1-2.5
	c-0.4-1.5-1.6-2.7-3.1-2.9C25,42.4,24.9,42.4,24.2,42.5z"/>
<path class="st0" d="M45.5,42.5c-1.1,0.2-2.2,1.1-2.7,2.1c-0.4,0.8-0.4,1.4-0.4,3.5V50h3.8H50l0-2.3c0-2.2,0-2.4-0.3-2.9
	c-0.5-1.2-1.6-2.1-2.9-2.3C46.2,42.4,46.2,42.4,45.5,42.5z"/>
</svg>
