<?xml version="1.0" encoding="utf-8"?>
<!-- Generator: Adobe Illustrator 21.1.0, SVG Export Plug-In . SVG Version: 6.00 Build 0)  -->
<svg version="1.1" id="Calque_1" xmlns="http://www.w3.org/2000/svg" xmlns:xlink="http://www.w3.org/1999/xlink" x="0px" y="0px"
	 width="75px" height="75px" viewBox="0 0 75 75" style="enable-background:new 0 0 75 75;" xml:space="preserve">
<style type="text/css">
	.st0{fill:#F2EEF7;}
</style>
<g transform="translate(0.000000,512.000000) scale(0.100000,-0.100000)">
	<path class="st0" d="M198.1,5117.3c-20.2-5.4-39.6-19.2-50.9-36.2c-3.1-4.7-7.5-14.1-9.9-21l-4.5-12.4l-0.4-51.6l-0.6-51.6
		l-21.4-0.4l-21.5-0.4v-22v-22l21.4-0.4l21.5-0.4l0.7-42.8c0.9-47,1.9-54.5,10.4-77.5c7.6-20.4,17.3-35,33.9-51.7
		c8.1-8.1,16.4-16.3,18.8-18l4-3.2v-24.2v-24.2h-32.5c-21.1,0-37.6-0.7-46.6-2.2c-30.9-4.7-56.7-17.6-78.6-39.4
		c-17.4-17.6-30.3-39.8-37.4-64.6c-3.2-11.4-3.4-13.8-3.8-96.3L0,4370h287.4h287.5l-0.6,82.5l-0.7,82.4l-3.8,14.6
		c-2.2,8.1-7.2,21.4-11.3,29.6l-7.3,14.8v44.1c0,27.1,0.6,44.3,1.5,44.8c0.7,0.4,44.4,10.4,97,22.1c52.6,11.7,96.9,21.5,98.3,22
		c2.3,0.7,2.5,5.6,2.5,75.5v74.6H628.8H507.2v-120.3c0-66.1-0.4-120-1-119.7c-0.7,0.3-6.5,2.9-12.7,6.2c-6.5,3.1-18,7.3-25.6,9.4
		c-12.9,3.4-17.1,3.7-53.2,4.4l-39.3,0.6v24.6v24.6l8.2,6.3c24.6,18.9,44.3,49.2,53.1,81.8c3.5,13.4,3.8,16.3,4.4,59.2l0.6,45h21.8
		h21.8v22.7v22.7h-22h-22v49.5c0,54.4-0.7,60.7-9,77.2c-8.1,16.5-23.2,31.8-39,39.6c-18.3,9-14.5,8.7-103,9.1
		C213.5,5120.1,208.3,5120,198.1,5117.3z M372.6,5071.5c13.1-6.5,22.3-18.9,24.2-32.5l0.9-6.6H287H176.4l1.2,7.2
		c2.5,16.3,15.1,30.6,30.3,34.7c5.3,1.5,24.8,1.9,81.6,1.6l74.7-0.3L372.6,5071.5z M397.3,4966.4v-22H286.6H175.9v21
		c0,11.6,0.4,21.5,1,22c0.4,0.6,50.3,1,110.7,1h109.6V4966.4z M397.3,4860.8c0-29.3-0.6-40.9-2.3-49.5c-11-53.2-59.8-91-113.5-87.8
		c-17.4,1-28.3,3.8-43.2,11.2c-28.4,14.1-49.7,40.1-58.2,71.7c-2.5,9.7-3.1,17.1-3.7,52l-0.9,40.6h111h110.8V4860.8z M706.5,4798
		v-35l-3.2-0.7c-9.9-2.5-149.5-33.3-150.7-33.3c-0.9,0-1.5,18.2-1.5,52v52h77.7h77.7L706.5,4798L706.5,4798z M261,4681.3
		c18.8-3.5,45.9-2.3,66.4,2.9l4,1v-16.1v-16.1l-5.7-4.5c-21.4-16.8-53.5-17.7-74.2-1.9l-7.3,5.6l-0.4,16.5l-0.4,16.7l3.4-1
		C248.5,4683.8,254.9,4682.5,261,4681.3z M228.2,4608.7c16.7-11.4,36.8-17.4,58.6-17.4c22.3,0,38.4,4.7,57.5,16.5l9.1,5.7l48.1-0.7
		c53.5-0.7,55.1-0.9,76.2-11.3c21.1-10.6,39.6-32,47.6-55.7c3.1-9.1,3.2-12,3.7-70.8l0.4-61.1h-22.1h-22v55v55h-22h-22v-55v-55h-22
		h-22v55v55H286.7H175.9v-55v-55h-22h-22v55v55h-22h-22v-55v-55h-22h-22v55c0,62.9,0.9,69.8,10.4,89.8
		c13.2,27.3,42.1,48.5,71.8,52.8c5.1,0.7,28.7,1.5,52.3,1.6l42.9,0.1L228.2,4608.7z M353.3,4446.8v-33h-65.9h-65.9v33v33h65.9h65.9
		V4446.8z"/>
</g>
</svg>
