<?xml version="1.0" encoding="utf-8"?>
<!-- Generator: Adobe Illustrator 23.0.6, SVG Export Plug-In . SVG Version: 6.00 Build 0)  -->
<svg version="1.1" id="Capa_1" xmlns="http://www.w3.org/2000/svg" xmlns:xlink="http://www.w3.org/1999/xlink" x="0px" y="0px"
	 width="60px" height="18px" viewBox="0 0 60 18" style="enable-background:new 0 0 60 18;" xml:space="preserve">
<style type="text/css">
	.st0{fill:#5E548E;}
</style>
<g>
	<path class="st0" d="M9.7,12.8l-0.4,0.6c0,0.1-0.1,0.1-0.2,0.1c-0.1,0-0.1,0-0.2-0.1l-0.6-0.7l-0.8,0.7c0,0.7,0,1.4,0,2.1l0.8-0.6
		c0.1-0.1,0.2-0.1,0.3,0l0.5,0.6l0.4-0.6c0,0,0.1-0.1,0.1-0.1c0.1,0,0.1,0,0.2,0l0.5,0.5c0-0.7,0-1.4,0-2L9.7,12.8z"/>
	<path class="st0" d="M10.4,15.9l-0.7-0.6L9.3,16c0,0.1-0.1,0.1-0.2,0.1C9.1,16.1,9,16,9,16l-0.6-0.7L7.6,16c0,0.5,0,0.9,0,1.2
		c0,0.1,0.1,0.2,0.2,0.3c0.6,0,1.9,0.2,2.6,0.3c0.2,0,0.3-0.2,0.3-0.3C10.5,17,10.4,16.5,10.4,15.9z"/>
	<path class="st0" d="M7.6,12.9l0.7-0.6c0.1-0.1,0.2-0.1,0.3,0L9.1,13l0.4-0.6c0,0,0.1-0.1,0.1-0.1c0.1,0,0.1,0,0.2,0l0.6,0.5
		c0.1-1.1,0.1-1.9,0.1-1.9c-0.1,0-0.2,0.1-0.3,0.1C10.3,9.7,11.8,7,11.8,7s-0.1,0.2,0.4,0c0.5-0.2,0.6-0.5,0.3-1.2
		c-0.4-0.6,0.6-0.1,0.9,0c0.2,0.1,2.9-2,2.9-2c0.9-1.1-1.7-0.4-1.7-0.4c0.8,1.9-1.2,0.4-1.2,0.4S11.8,5.6,11.6,6
		c-0.2,0.4-0.2,0.8-0.2,0.8C10.9,7.1,10,10.2,9.8,11l-0.2-0.5l-0.4,0.5c-0.1,0-0.2,0-0.3,0l-0.3-0.5L8.3,11c0,0-0.1,0-0.1,0
		C8,10.2,7.1,7.1,6.6,6.8c0,0,0-0.4-0.2-0.8C6.2,5.6,4.6,3.8,4.6,3.8s-2,1.4-1.2-0.4c0,0-2.6-0.7-1.7,0.4c0,0,2.7,2.1,2.9,2
		c0.2-0.1,1.2-0.6,0.9,0C5.2,6.4,5.3,6.8,5.8,7c0.5,0.2,0.4,0,0.4,0s1.4,2.6,1.5,3.9c-0.2,0-0.3,0-0.2,0C7.6,11,7.6,11.8,7.6,12.9z"
		/>
	<path class="st0" d="M5.9,8.8c-0.4-1.2-2.5-2-2.6-2.1c-0.2-0.1-1,0.6-1.1,0.7C2,7.5,2,6.4,2,6.4C1.8,6.3,0.4,6.6,0.4,6.6
		C-0.4,7,0.3,7.3,0.3,7.3s2.3,0.9,3,1.2c0.6,0.4,0.5,0,1-0.5c0.5-0.4,0.1,0.5,0.1,0.8c0,0.3,1.3,0.4,1.3,0.4l1.2,1.3
		c0.1,0.1,0.2,0.1,0.3,0l0,0c0.1-0.1,0.1-0.2,0-0.3L5.9,8.8z"/>
	<path class="st0" d="M6.9,3.9c0.3,0,1.6,0.2,0.5,0.7c0,0-0.6,0.3,0.3,1.2c0.7,0.8,0.7,3.2,0.7,4c0,0.1,0.1,0.3,0.3,0.3
		c0.1,0,0.3-0.1,0.3-0.3c0-0.8-0.1-3.1-0.5-4c0,0,1-2.2-0.2-3.3c0,0-1.5-0.2-1.2-0.4s0.8-0.8,0.8-0.8L6.9,0.7c0,0-1.4-1-0.9,0.4
		C6.4,2.5,6.5,3.9,6.9,3.9z"/>
	<path class="st0" d="M17.6,6.6c0,0-1.4-0.3-1.6-0.2c0,0,0,1.1-0.1,1c-0.1-0.1-0.9-0.8-1.1-0.7c-0.2,0.1-2.2,1-2.6,2.1l-1.3,1.6
		c-0.1,0.1-0.1,0.2,0,0.3l0,0c0.1,0.1,0.2,0.1,0.3,0l1.2-1.3c0,0,1.3-0.1,1.3-0.4c0-0.3-0.4-1.2,0.1-0.8c0.5,0.4,0.4,0.8,1,0.5
		c0.6-0.4,3-1.2,3-1.2S18.5,7,17.6,6.6z"/>
	<path class="st0" d="M9.5,10c0.1,0,0.3-0.1,0.3-0.3c0-0.8,0-3.2,0.7-4c0.8-0.9,0.3-1.2,0.3-1.2c-1.1-0.4,0.1-0.7,0.5-0.7
		c0.3,0,0.4-1.3,0.9-2.8c0.5-1.4-0.9-0.4-0.9-0.4l-0.8,0.5c0,0,0.5,0.6,0.8,0.8S9.9,2.4,9.9,2.4c-1.1,1-0.2,3.3-0.2,3.3
		c-0.4,0.9-0.5,3.3-0.5,4C9.3,9.9,9.4,10,9.5,10z"/>
</g>
<g>
	<path class="st0" d="M30.7,12.8l-0.4,0.6c0,0.1-0.1,0.1-0.2,0.1c-0.1,0-0.1,0-0.2-0.1l-0.6-0.7l-0.8,0.7c0,0.7,0,1.4,0,2.1l0.8-0.6
		c0.1-0.1,0.2-0.1,0.3,0l0.5,0.6l0.4-0.6c0,0,0.1-0.1,0.1-0.1c0.1,0,0.1,0,0.2,0l0.5,0.5c0-0.7,0-1.4,0-2L30.7,12.8z"/>
	<path class="st0" d="M31.4,15.9l-0.7-0.6L30.3,16c0,0.1-0.1,0.1-0.2,0.1c-0.1,0-0.1,0-0.2-0.1l-0.6-0.7L28.5,16c0,0.5,0,0.9,0,1.2
		c0,0.1,0.1,0.2,0.2,0.3c0.6,0,1.9,0.2,2.6,0.3c0.2,0,0.3-0.2,0.3-0.3C31.5,17,31.4,16.5,31.4,15.9z"/>
	<path class="st0" d="M28.6,12.9l0.7-0.6c0.1-0.1,0.2-0.1,0.3,0l0.5,0.6l0.4-0.6c0,0,0.1-0.1,0.1-0.1c0.1,0,0.1,0,0.2,0l0.6,0.5
		c0.1-1.1,0.1-1.9,0.1-1.9c-0.1,0-0.2,0.1-0.3,0.1C31.3,9.7,32.8,7,32.8,7s-0.1,0.2,0.4,0c0.5-0.2,0.6-0.5,0.3-1.2
		c-0.4-0.6,0.6-0.1,0.9,0c0.2,0.1,2.9-2,2.9-2c0.9-1.1-1.7-0.4-1.7-0.4c0.8,1.9-1.2,0.4-1.2,0.4S32.8,5.6,32.6,6
		c-0.2,0.4-0.2,0.8-0.2,0.8c-0.5,0.3-1.4,3.4-1.6,4.2l-0.2-0.5l-0.4,0.5c-0.1,0-0.2,0-0.3,0l-0.3-0.5L29.3,11c0,0-0.1,0-0.1,0
		c-0.2-0.8-1.1-3.9-1.6-4.2c0,0,0-0.4-0.2-0.8c-0.2-0.4-1.8-2.1-1.8-2.1s-2,1.4-1.2-0.4c0,0-2.6-0.7-1.7,0.4c0,0,2.7,2.1,2.9,2
		c0.2-0.1,1.2-0.6,0.9,0c-0.4,0.6-0.2,1,0.3,1.2c0.5,0.2,0.4,0,0.4,0s1.4,2.6,1.5,3.9c-0.2,0-0.3,0-0.2,0
		C28.6,11,28.6,11.8,28.6,12.9z"/>
	<path class="st0" d="M26.9,8.8c-0.4-1.2-2.5-2-2.6-2.1c-0.2-0.1-1,0.6-1.1,0.7c-0.1,0.1-0.1-1-0.1-1c-0.2-0.1-1.6,0.2-1.6,0.2
		c-0.8,0.4-0.1,0.7-0.1,0.7s2.3,0.9,3,1.2c0.6,0.4,0.5,0,1-0.5c0.5-0.4,0.1,0.5,0.1,0.8c0,0.3,1.3,0.4,1.3,0.4l1.2,1.3
		c0.1,0.1,0.2,0.1,0.3,0l0,0c0.1-0.1,0.1-0.2,0-0.3L26.9,8.8z"/>
	<path class="st0" d="M27.8,3.9c0.3,0,1.6,0.2,0.5,0.7c0,0-0.6,0.3,0.3,1.2c0.7,0.8,0.7,3.2,0.7,4c0,0.1,0.1,0.3,0.3,0.3
		c0.1,0,0.3-0.1,0.3-0.3c0-0.8-0.1-3.1-0.5-4c0,0,1-2.2-0.2-3.3c0,0-1.5-0.2-1.2-0.4s0.8-0.8,0.8-0.8l-0.8-0.5c0,0-1.4-1-0.9,0.4
		S27.5,3.9,27.8,3.9z"/>
	<path class="st0" d="M38.6,6.6c0,0-1.4-0.3-1.6-0.2c0,0,0,1.1-0.1,1c-0.1-0.1-0.9-0.8-1.1-0.7c-0.2,0.1-2.2,1-2.6,2.1l-1.3,1.6
		c-0.1,0.1-0.1,0.2,0,0.3l0,0c0.1,0.1,0.2,0.1,0.3,0l1.2-1.3c0,0,1.3-0.1,1.3-0.4c0-0.3-0.4-1.2,0.1-0.8c0.5,0.4,0.4,0.8,1,0.5
		c0.6-0.4,3-1.2,3-1.2S39.5,7,38.6,6.6z"/>
	<path class="st0" d="M30.5,10c0.1,0,0.3-0.1,0.3-0.3c0-0.8,0-3.2,0.7-4c0.8-0.9,0.3-1.2,0.3-1.2c-1.1-0.4,0.1-0.7,0.5-0.7
		c0.3,0,0.4-1.3,0.9-2.8s-0.9-0.4-0.9-0.4l-0.8,0.5c0,0,0.5,0.6,0.8,0.8c0.2,0.2-1.2,0.4-1.2,0.4c-1.1,1-0.2,3.3-0.2,3.3
		c-0.4,0.9-0.5,3.3-0.5,4C30.2,9.9,30.4,10,30.5,10z"/>
</g>
<g>
	<path class="st0" d="M51.7,12.8l-0.4,0.6c0,0.1-0.1,0.1-0.2,0.1c-0.1,0-0.1,0-0.2-0.1l-0.6-0.7l-0.8,0.7c0,0.7,0,1.4,0,2.1l0.8-0.6
		c0.1-0.1,0.2-0.1,0.3,0l0.5,0.6l0.4-0.6c0,0,0.1-0.1,0.1-0.1c0.1,0,0.1,0,0.2,0l0.5,0.5c0-0.7,0-1.4,0-2L51.7,12.8z"/>
	<path class="st0" d="M52.4,15.9l-0.7-0.6L51.3,16c0,0.1-0.1,0.1-0.2,0.1c-0.1,0-0.1,0-0.2-0.1l-0.6-0.7L49.5,16c0,0.5,0,0.9,0,1.2
		c0,0.1,0.1,0.2,0.2,0.3c0.6,0,1.9,0.2,2.6,0.3c0.2,0,0.3-0.2,0.3-0.3C52.5,17,52.4,16.5,52.4,15.9z"/>
	<path class="st0" d="M49.6,12.9l0.7-0.6c0.1-0.1,0.2-0.1,0.3,0l0.5,0.6l0.4-0.6c0,0,0.1-0.1,0.1-0.1c0.1,0,0.1,0,0.2,0l0.6,0.5
		c0.1-1.1,0.1-1.9,0.1-1.9c-0.1,0-0.2,0.1-0.3,0.1C52.3,9.7,53.8,7,53.8,7s-0.1,0.2,0.4,0c0.5-0.2,0.6-0.5,0.3-1.2
		c-0.4-0.6,0.6-0.1,0.9,0c0.2,0.1,2.9-2,2.9-2c0.9-1.1-1.7-0.4-1.7-0.4c0.8,1.9-1.2,0.4-1.2,0.4S53.8,5.6,53.6,6
		c-0.2,0.4-0.2,0.8-0.2,0.8c-0.5,0.3-1.4,3.4-1.6,4.2l-0.2-0.5l-0.4,0.5c-0.1,0-0.2,0-0.3,0l-0.3-0.5L50.3,11c0,0-0.1,0-0.1,0
		c-0.2-0.8-1.1-3.9-1.6-4.2c0,0,0-0.4-0.2-0.8c-0.2-0.4-1.8-2.1-1.8-2.1s-2,1.4-1.2-0.4c0,0-2.6-0.7-1.7,0.4c0,0,2.7,2.1,2.9,2
		c0.2-0.1,1.2-0.6,0.9,0c-0.4,0.6-0.2,1,0.3,1.2c0.5,0.2,0.4,0,0.4,0s1.4,2.6,1.5,3.9c-0.2,0-0.3,0-0.2,0
		C49.6,11,49.6,11.8,49.6,12.9z"/>
	<path class="st0" d="M47.8,8.8c-0.4-1.2-2.5-2-2.6-2.1c-0.2-0.1-1,0.6-1.1,0.7c-0.1,0.1-0.1-1-0.1-1c-0.2-0.1-1.6,0.2-1.6,0.2
		c-0.8,0.4-0.1,0.7-0.1,0.7s2.3,0.9,3,1.2c0.6,0.4,0.5,0,1-0.5c0.5-0.4,0.1,0.5,0.1,0.8c0,0.3,1.3,0.4,1.3,0.4l1.2,1.3
		c0.1,0.1,0.2,0.1,0.3,0l0,0c0.1-0.1,0.1-0.2,0-0.3L47.8,8.8z"/>
	<path class="st0" d="M48.8,3.9c0.3,0,1.6,0.2,0.5,0.7c0,0-0.6,0.3,0.3,1.2c0.7,0.8,0.7,3.2,0.7,4c0,0.1,0.1,0.3,0.3,0.3
		c0.1,0,0.3-0.1,0.3-0.3c0-0.8-0.1-3.1-0.5-4c0,0,1-2.2-0.2-3.3c0,0-1.5-0.2-1.2-0.4s0.8-0.8,0.8-0.8l-0.8-0.5c0,0-1.4-1-0.9,0.4
		S48.5,3.9,48.8,3.9z"/>
	<path class="st0" d="M59.6,6.6c0,0-1.4-0.3-1.6-0.2c0,0,0,1.1-0.1,1c-0.1-0.1-0.9-0.8-1.1-0.7c-0.2,0.1-2.2,1-2.6,2.1l-1.3,1.6
		c-0.1,0.1-0.1,0.2,0,0.3l0,0c0.1,0.1,0.2,0.1,0.3,0l1.2-1.3c0,0,1.3-0.1,1.3-0.4c0-0.3-0.4-1.2,0.1-0.8c0.5,0.4,0.4,0.8,1,0.5
		c0.6-0.4,3-1.2,3-1.2S60.4,7,59.6,6.6z"/>
	<path class="st0" d="M51.5,10c0.1,0,0.3-0.1,0.3-0.3c0-0.8,0-3.2,0.7-4c0.8-0.9,0.3-1.2,0.3-1.2c-1.1-0.4,0.1-0.7,0.5-0.7
		c0.3,0,0.4-1.3,0.9-2.8s-0.9-0.4-0.9-0.4l-0.8,0.5c0,0,0.5,0.6,0.8,0.8s-1.2,0.4-1.2,0.4c-1.1,1-0.2,3.3-0.2,3.3
		c-0.4,0.9-0.5,3.3-0.5,4C51.2,9.9,51.3,10,51.5,10z"/>
</g>
</svg>
