<?xml version="1.0" encoding="utf-8"?>
<!-- Generator: Adobe Illustrator 21.1.0, SVG Export Plug-In . SVG Version: 6.00 Build 0)  -->
<svg version="1.1" id="Layer_1" xmlns="http://www.w3.org/2000/svg" xmlns:xlink="http://www.w3.org/1999/xlink" x="0px" y="0px"
	 width="24.4px" height="16.5px" viewBox="0 0 24.4 16.5" style="enable-background:new 0 0 24.4 16.5;" xml:space="preserve">
<style type="text/css">
	.st0{fill:#614371;}
</style>
<path class="st0" d="M1.3,0c-0.5,0.1-1,0.5-1.2,1L0,1.3v6.9v6.9l0.1,0.3c0.2,0.5,0.6,0.8,1.1,1c0.3,0.1,0.5,0.1,11,0.1
	c11.8,0,10.9,0,11.4-0.3c0.3-0.2,0.5-0.4,0.6-0.8l0.1-0.3V8.2V1.3L24.3,1c-0.2-0.4-0.5-0.7-0.9-0.9L23.1,0L12.3,0C6.3,0,1.4,0,1.3,0
	z M21.8,3.1c0.1,0,0.2,0.1,0.2,0.2c0.2,0.2,0.1,0.6-0.2,0.7c-0.1,0-0.9,0.1-3.1,0.1h-3L15.6,4c-0.3-0.2-0.2-0.7,0.2-0.8
	C15.9,3,21.6,3,21.8,3.1z M6.2,5c0.2,0.2,0.2,0.3,0.2,1.6c0,1.3,0,1.3-0.1,1.4C6.3,8.1,6.1,8.2,6,8.2c-0.2,0.1-3.2,0.1-3.4,0
	c-0.1,0-0.2-0.1-0.3-0.2C2.3,8,2.3,7.9,2.3,6.6c0-1.4,0-1.5,0.2-1.6C2.6,5,3,5,4.4,4.9C6,4.9,6.1,5,6.2,5z M5.4,10.8
	c0.2,0.1,0.3,0.2,0.3,0.5c0,0.2,0,0.2-0.1,0.3l-0.1,0.1H4c-1.3,0-1.4,0-1.5-0.1c-0.3-0.3-0.3-0.7,0.1-0.9
	C2.8,10.7,5.2,10.7,5.4,10.8z M10.1,10.8c0.4,0.2,0.4,0.6,0.1,0.9c-0.1,0.1-0.2,0.1-1.5,0.1H7.3l-0.1-0.1c-0.3-0.3-0.2-0.7,0.2-0.8
	C7.5,10.7,9.9,10.7,10.1,10.8z M14.9,10.8c0.2,0.1,0.3,0.3,0.3,0.5c0,0.1,0,0.2-0.2,0.3l-0.2,0.2h-1.4c-1.5,0-1.5,0-1.7-0.3
	c0-0.1-0.1-0.2,0-0.3c0-0.2,0.2-0.4,0.4-0.4c0.1,0,0.7,0,1.4,0C14.4,10.7,14.7,10.7,14.9,10.8z M19.6,10.8c0.3,0.2,0.3,0.6,0.1,0.8
	l-0.1,0.1h-1.4h-1.4l-0.1-0.1c-0.3-0.2-0.2-0.7,0.1-0.8C16.9,10.7,19.5,10.7,19.6,10.8z M11.7,13.2c0.3,0.2,0.3,0.6,0.1,0.8
	l-0.1,0.1H7.1H2.6L2.4,14c-0.3-0.3-0.2-0.7,0.2-0.8C2.8,13,11.6,13.1,11.7,13.2z"/>
</svg>
