<?xml version="1.0" encoding="utf-8"?>
<!-- Generator: Adobe Illustrator 21.1.0, SVG Export Plug-In . SVG Version: 6.00 Build 0)  -->
<svg version="1.1" id="Calque_1" xmlns="http://www.w3.org/2000/svg" xmlns:xlink="http://www.w3.org/1999/xlink" x="0px" y="0px"
	 width="58.2px" height="45px" viewBox="0 0 58.2 45" style="enable-background:new 0 0 58.2 45;" xml:space="preserve">
<style type="text/css">
	.st0{fill:#866298;}
</style>
<path class="st0" d="M0.9,0.2C0.7,0.3,0.4,0.5,0.3,0.7L0,1l0,21.3C0,43,0,43.7,0.2,44.1c0.3,0.6,0.7,0.9,1.5,0.9s1.2-0.2,1.5-0.9
	c0.2-0.4,0.2-0.8,0.2-7v-6.6h6.2h6.2v6.6c0,6.2,0,6.6,0.2,7c0.3,0.6,0.7,0.9,1.5,0.9c0.8,0,1.2-0.2,1.5-0.9c0.2-0.4,0.2-1,0.2-9.1
	c0-7.5,0-8.9-0.2-9.4c-0.4-1.4-1.2-2.5-2.5-3.1L15.6,22l-6.1,0l-6.1,0V11.6c0-9.8,0-10.3-0.2-10.7C3.1,0.7,2.8,0.4,2.7,0.3
	C2.3,0,1.4-0.1,0.9,0.2z"/>
<path class="st0" d="M55.7,0.2c-0.2,0.1-0.5,0.4-0.6,0.5c-0.2,0.3-0.2,0.4-0.3,10.8l0,10.5l-6,0l-6,0L42,22.4
	c-1.4,0.7-2.3,1.9-2.7,3.4c-0.1,0.4-0.1,3.3-0.1,9.2v8.6l0.3,0.5c0.6,1.2,2.3,1.2,2.9,0c0.2-0.4,0.2-0.9,0.2-7v-6.6h6.1h6.1v6.6
	c0,6.2,0,6.6,0.2,7c0.3,0.6,0.7,0.9,1.5,0.9s1.2-0.2,1.5-0.9c0.2-0.4,0.2-1.2,0.2-21.6s0-21.2-0.2-21.6c-0.1-0.2-0.3-0.5-0.5-0.6
	C57.1,0,56.2-0.1,55.7,0.2z"/>
<path class="st0" d="M10.1,10.8c-0.7,0.3-0.7,0.4-0.7,3.1v2.4l0.3,0.4l0.3,0.4l4.1,0l4.1,0L17,15.8c-0.7-0.8-2-2.2-2.9-3.2l-1.7-1.9
	h-0.9C10.9,10.7,10.4,10.7,10.1,10.8z"/>
<path class="st0" d="M17.1,10.8c0,0.1,10.6,11.8,11.4,12.5c0.6,0.6,0.9,0.6,1.8-0.3c1-1.1,10.9-12.1,10.9-12.3c0-0.1-5-0.1-12-0.1
	C22.2,10.7,17,10.7,17.1,10.8z"/>
<path class="st0" d="M43.2,13.6c-1.5,1.6-2.8,3.1-2.9,3.2l-0.2,0.3l4,0l4,0l0.3-0.4l0.3-0.4v-2.4c0-2.7,0-2.8-0.8-3.1
	c-0.2-0.1-0.8-0.2-1.3-0.2h-0.9L43.2,13.6z"/>
<path class="st0" d="M27.5,34.3v7.1l-1.5,0c-1.3,0-1.5,0.1-1.8,0.3c-1,0.7-1,2.1,0,2.8c0.3,0.2,0.5,0.2,4.7,0.3c4,0,4.4,0,4.8-0.2
	c1.2-0.6,1.2-2.4,0-3c-0.3-0.2-0.7-0.2-1.6-0.2h-1.2v-7.2c0-5.7,0-7.2-0.1-7.1c-1.1,0.4-2,0.5-2.9,0.1l-0.4-0.2L27.5,34.3L27.5,34.3
	z"/>
</svg>
