<?xml version="1.0" encoding="utf-8"?>
<!-- Generator: Adobe Illustrator 21.1.0, SVG Export Plug-In . SVG Version: 6.00 Build 0)  -->
<svg version="1.1" id="Layer_1" xmlns="http://www.w3.org/2000/svg" xmlns:xlink="http://www.w3.org/1999/xlink" x="0px" y="0px"
	 width="57.5px" height="42.2px" viewBox="0 0 57.5 42.2" style="enable-background:new 0 0 57.5 42.2;" xml:space="preserve">
<style type="text/css">
	.st0{fill:#866298;}
</style>
<g>
	<g>
		<path class="st0" d="M23.6,17.6c1.6,1.1,3.1,1.5,5.2,1.5c2.7,0,4.9-0.9,6.8-2.8c1.9-1.9,2.8-4.1,2.8-6.8c0-2.1-0.4-3.6-1.5-5.2
			c-1.4-2.1-3.3-3.5-5.8-4.1c-0.9-0.3-3.1-0.3-4.1-0.1c-3.4,0.7-6.1,3-7.2,6.2C18.2,10.5,19.8,15.1,23.6,17.6z M17.2,15.3
			c0-1.1-0.1-1.6-0.3-2.2c-1.2-3.8-5.1-6.1-9-5.3C6.6,8.1,5.2,8.9,4.1,9.9c-3.8,3.8-2.7,10,2.1,12.3c2.3,1.1,4.9,1,7.1-0.3
			c1-0.6,2.2-1.8,2.8-2.8C16.9,17.9,17.2,16.9,17.2,15.3z M51.8,21.9c1.6-0.9,3-2.6,3.5-4.4c0.4-1.2,0.4-3.2,0-4.4
			c-1.2-3.8-5.1-6.1-9-5.3c-1.3,0.3-2.7,1.1-3.7,2.1c-3.8,3.8-2.7,10,2.1,12.3C47,23.3,49.6,23.2,51.8,21.9z M41.4,28.3
			c-0.8-2.6-2.7-5.2-4.8-6.6c-0.6-0.4-1.3-0.4-2.2,0c-0.8,0.4-2,0.8-3,1l-0.8,0.2L30.7,28c-0.1,5-0.1,5.2-0.3,5.5
			c-0.4,0.5-0.8,0.8-1.4,0.9c-0.7,0.1-1.3-0.2-1.7-0.8l-0.3-0.4L26.8,28l-0.1-5.2l-0.3,0c-0.7-0.1-2.2-0.5-3.1-0.9
			c-1.2-0.5-1.8-0.6-2.5-0.1c-2.1,1.4-4,4-4.8,6.6c-0.6,2-0.6,1.9-0.7,8.1l0,5.8h13.5h13.5l0-5.8C42.1,30.2,42.1,30.3,41.4,28.3z
			 M12.9,24.3c-0.3,0.1-0.8,0.2-1.2,0.3c-1.5,0.4-3.6,0.3-5.2-0.2c-1-0.4-1.5-0.3-2.4,0.2c-1.4,0.9-2.9,2.8-3.5,4.3
			C0,30.7,0,30.7,0,36v4.9l0.3,0.4c0.6,0.8,0.6,0.8,6.1,0.8h5l0-5.9c0-5.5,0.1-6,0.3-7c0.3-1.5,0.8-2.8,1.4-4c0.3-0.5,0.4-1,0.4-1
			C13.5,24.1,13.2,24.2,12.9,24.3z M56.8,28.9c-0.8-2.2-3.4-4.8-4.7-4.8c-0.3,0-0.7,0.1-1,0.2c-1.9,0.7-4.3,0.7-6.2,0
			c-0.5-0.2-1-0.3-1-0.1c0,0,0.2,0.5,0.5,1c0.6,1.1,1,2.5,1.4,4c0.2,1,0.3,1.6,0.3,7l0,5.9l5.1,0c5,0,5.1,0,5.5-0.3
			c0.2-0.1,0.4-0.4,0.6-0.6c0.2-0.3,0.3-0.5,0.3-5.3C57.5,30.7,57.5,30.7,56.8,28.9z"/>
	</g>
</g>
</svg>
