<?xml version="1.0" encoding="utf-8"?>
<!-- Generator: Adobe Illustrator 21.1.0, SVG Export Plug-In . SVG Version: 6.00 Build 0)  -->
<svg version="1.1" id="Layer_1" xmlns="http://www.w3.org/2000/svg" xmlns:xlink="http://www.w3.org/1999/xlink" x="0px" y="0px"
	 width="14.4px" height="13.2px" viewBox="0 0 14.4 13.2" style="enable-background:new 0 0 14.4 13.2;" xml:space="preserve">
<style type="text/css">
	.st0{fill:#231942;}
</style>
<g>
	<path class="st0" d="M14.2,11.1L8.3,0.7C8.1,0.3,7.7,0,7.2,0S6.3,0.3,6.1,0.7L0.2,11.1c-0.2,0.4-0.2,1,0,1.4s0.7,0.7,1.1,0.7h11.8
		c0.5,0,0.9-0.3,1.1-0.7C14.5,12.1,14.5,11.5,14.2,11.1z M13.4,12c-0.1,0.1-0.2,0.2-0.3,0.2H1.3C1.2,12.2,1,12.1,1,12
		s-0.1-0.3,0-0.4L6.9,1.2C7,1.1,7.1,1,7.2,1s0.2,0.1,0.3,0.2l5.9,10.4C13.5,11.7,13.5,11.9,13.4,12z M7.2,8.9c0.2,0,0.5-0.1,0.5-0.4
		c0-1.1,0.1-2.7,0.1-3.8c0-0.4-0.3-0.6-0.6-0.6c-0.4,0-0.6,0.2-0.6,0.6c0,1.1,0.1,2.7,0.1,3.8C6.7,8.8,6.9,8.9,7.2,8.9z M7.2,9.5
		c-0.4,0-0.7,0.3-0.7,0.7s0.3,0.7,0.7,0.7c0.4,0,0.7-0.3,0.7-0.7C7.9,9.8,7.6,9.5,7.2,9.5z"/>
</g>
</svg>
