<?xml version="1.0" encoding="utf-8"?>
<!-- Generator: Adobe Illustrator 21.1.0, SVG Export Plug-In . SVG Version: 6.00 Build 0)  -->
<svg version="1.1" id="Layer_1" xmlns="http://www.w3.org/2000/svg" xmlns:xlink="http://www.w3.org/1999/xlink" x="0px" y="0px"
	 width="18.7px" height="18.2px" viewBox="0 0 18.7 18.2" style="enable-background:new 0 0 18.7 18.2;" xml:space="preserve">
<style type="text/css">
	.st0{fill:#614371;}
</style>
<g>
	<g>
		<path class="st0" d="M4.7,5.4L4.7,5.4c0.5-2.2,1.3-4,2.3-5C7.1,0.2,7.3,0,7.3,0c0,0-0.3,0.1-0.5,0.1C5.2,0.6,3.9,1.4,2.8,2.4
			C2.1,3.2,1.5,4,1,4.9L0.8,5.4h2H4.7z M14,5.3L14,5.3l2,0.1h2L17.7,5c-0.7-1.5-1.9-2.7-3.2-3.6c-0.8-0.5-1.7-1-2.6-1.2
			C11.7,0.1,11.4,0,11.4,0c0,0,0.1,0.2,0.3,0.4C12.7,1.4,13.5,3.2,14,5.3z M6,5.3c0,0,1.5,0,3.4,0c1.8,0,3.4,0,3.4,0
			c0,0-0.1-0.3-0.2-0.6c-0.7-2.6-2-4.3-3.2-4.3c-0.1,0-0.3,0-0.5,0.1c-1.1,0.4-2.2,2-2.7,4.2C6.1,5.1,6,5.3,6,5.3z M4.5,11.6l0-0.1
			c-0.2-0.9-0.2-3.8,0-4.7l0-0.1H2.4c-1.2,0-2.1,0-2.1,0C0.3,6.7,0.1,7.6,0,8C0,8.2,0,8.7,0,9.1c0,0.9,0.1,1.4,0.2,2.1l0.1,0.4
			l2.1,0L4.5,11.6z M9.4,6.6H5.8l0,0.4C5.6,7.7,5.6,8.5,5.6,9.1c0,0.6,0,1.4,0.1,2.1l0,0.4h3.6h3.6l0-0.4c0.2-1.4,0.2-2.8,0-4.2
			l0-0.4H9.4z M18.5,7l-0.1-0.4l-2.1,0l-2.1,0l0,0.1c0.2,0.9,0.2,3.7,0,4.7l0,0.1l2.1,0l2.1,0l0.1-0.4c0.2-0.7,0.2-1.2,0.2-2.1
			C18.7,8.2,18.7,7.7,18.5,7z M4.7,13L4.7,13l-2-0.1h-2L1,13.3c0.4,0.9,1,1.7,1.7,2.4c0.5,0.6,0.9,0.9,1.5,1.3
			c0.8,0.5,1.7,0.9,2.6,1.2c0.2,0.1,0.5,0.1,0.5,0.1c0,0-0.1-0.1-0.3-0.3C6,16.9,5.2,15.1,4.7,13z M12.7,12.9c0,0-1.5,0-3.4,0
			c-1.8,0-3.4,0-3.4,0c0,0,0.1,0.3,0.2,0.6c0.7,2.6,2,4.3,3.2,4.3c1.3,0,2.6-1.8,3.3-4.6C12.7,13.1,12.7,12.9,12.7,12.9z M14,12.9
			L14,12.9c-0.5,2.3-1.3,4-2.3,5c-0.2,0.2-0.3,0.4-0.3,0.4c0,0,0.2-0.1,0.5-0.1c1.1-0.3,2.2-0.8,3.1-1.6c0.4-0.3,1.2-1.1,1.5-1.5
			c0.4-0.4,0.9-1.2,1.1-1.7l0.2-0.5h-2H14z"/>
	</g>
</g>
</svg>
