<?xml version="1.0" encoding="utf-8"?>
<!-- Generator: Adobe Illustrator 21.1.0, SVG Export Plug-In . SVG Version: 6.00 Build 0)  -->
<svg version="1.1" id="Layer_1" xmlns="http://www.w3.org/2000/svg" xmlns:xlink="http://www.w3.org/1999/xlink" x="0px" y="0px"
	 width="18.6px" height="17.8px" viewBox="0 0 18.6 17.8" style="enable-background:new 0 0 18.6 17.8;" xml:space="preserve">
<style type="text/css">
	.st0{fill:#614371;}
</style>
<path class="st0" d="M3.9,0C3.3,0.3,2.1,1.4,1.1,2.7c-0.4,0.5-0.8,1-0.9,1.4L0,4.4l0,0.4c0.4,2.9,2.9,6.8,6.4,9.6
	c2.4,1.9,5,3.2,7.2,3.4c0.4,0,0.4,0,0.6,0c0.9-0.4,3.1-2,3.9-3c0.5-0.6,0.6-0.9,0.4-1.4c-0.2-0.3-0.3-0.5-1.3-1.1
	c-1.9-1.2-3.2-1.9-3.8-1.9c-0.4,0-0.7,0.2-1.4,1c-0.3,0.3-0.5,0.5-0.5,0.5c-0.1,0-0.7-0.2-1.1-0.4C9,10.9,7.9,9.9,7.1,8.7
	C6.8,8.3,6.4,7.5,6.2,7.1L6.1,6.8l0.2-0.1c0.1-0.1,0.3-0.3,0.6-0.5C7.5,5.7,7.7,5.4,7.7,5c0-0.2,0-0.3-0.1-0.5
	C7.5,4.2,7.1,3.4,6.7,2.7C6.3,2,5.3,0.7,5.1,0.4C4.8,0.1,4.2-0.1,3.9,0z"/>
</svg>
