<?xml version="1.0" encoding="utf-8"?>
<!-- Generator: Adobe Illustrator 21.1.0, SVG Export Plug-In . SVG Version: 6.00 Build 0)  -->
<svg version="1.1" id="Layer_1" xmlns="http://www.w3.org/2000/svg" xmlns:xlink="http://www.w3.org/1999/xlink" x="0px" y="0px"
	 width="18px" height="18px" viewBox="0 0 18 18" style="enable-background:new 0 0 18 18;" xml:space="preserve">
<style type="text/css">
	.st0{fill:#FFFFFF;}
</style>
<path d="M9,0c4.9,0,9,4,9,9s-4.1,9-9,9s-9-4.1-9-9S4,0,9,0z"/>
<path class="st0" d="M7.4,12.8c-0.2,0-0.3-0.1-0.4-0.2c-0.2-0.2-0.2-0.7,0-0.9L9.6,9L7,6.2C6.7,6,6.7,5.5,7,5.3
	c0.2-0.2,0.7-0.2,0.9,0L11,8.5c0.1,0.1,0.2,0.3,0.2,0.4c0,0.2-0.1,0.3-0.2,0.4l-3.1,3.1C7.7,12.7,7.6,12.8,7.4,12.8z"/>
</svg>
