<?xml version="1.0" encoding="utf-8"?>
<!-- Generator: Adobe Illustrator 21.1.0, SVG Export Plug-In . SVG Version: 6.00 Build 0)  -->
<svg version="1.1" id="Calque_1" xmlns="http://www.w3.org/2000/svg" xmlns:xlink="http://www.w3.org/1999/xlink" x="0px" y="0px"
	 width="60px" height="39.6px" viewBox="0 0 60 39.6" style="enable-background:new 0 0 60 39.6;" xml:space="preserve">
<style type="text/css">
	.st0{fill:#866298;}
</style>
<g transform="translate(0.000000,512.000000) scale(0.100000,-0.100000)">
	<path class="st0" d="M152.4,5118.9c-11.7-2-22.8-9.7-29-20.4c-1.5-2.6-10.7-26.6-20.4-53.4c-9.6-26.8-18.1-50-18.6-51.6
		c-0.9-2.7-1.2-2.3-3,3.8c-3.3,11.6-2.9,11.5-38.5,11.5c-32.6,0-35.4-0.5-38.1-6.1c-5.9-12.1-6.2-28.4-0.8-42.1
		c3.2-7.8,4.9-8.1,36.7-8.1c15.6,0,28.3-0.5,28.3-0.9c0-0.6-1.3-1.7-2.8-2.3c-5.4-2.5-12.3-9.7-14.4-15.2c-2-5.2-2.1-11.7-2.1-102.9
		c0-90.9,0.1-97.6,2.1-100.4c4.1-6.2,5.3-6.3,45.4-6.3s41.3,0.1,45.4,6.3c1.9,2.7,2.1,6.9,2.5,37.9l0.4,35H300h154.8l0.4-34.9
		c0.4-31.1,0.6-35.3,2.5-38c4.1-6.2,5.3-6.3,45.4-6.3s41.3,0.1,45.4,6.3c2,2.8,2.1,9.5,2.1,100.4c0,91.2-0.1,97.7-2.1,102.9
		c-2.1,5.5-9,12.8-14.4,15.2c-1.5,0.7-2.8,1.8-2.8,2.3c0,0.5,12.7,0.9,28.3,0.9c31.8,0,33.6,0.4,36.7,8.1c5.4,13.7,5.1,30-0.8,42.1
		c-2.7,5.6-5.5,6.1-38.1,6.1c-35.5,0-35.2,0.1-38.5-11.5l-2-6.7l-1.4,4.1c-18.3,51.1-36.5,100.2-38.7,103.8
		c-6.3,10.8-16.8,18.1-29.4,20.4C438.8,5120.4,161.9,5120.4,152.4,5118.9z M455.7,5012.8c11.2-31,20.7-57.5,21-58.9l0.7-2.7H300.2
		c-110.2,0-177.3,0.5-177.3,1.1c0,0.9,35.8,100.8,41,114.3l1.3,3.2l135-0.2l135.2-0.4L455.7,5012.8z M184.1,4909
		c7.2-4.9,9.7-10,9.7-19c0-7-0.4-8.3-3.6-12.5c-7.4-9.1-7.4-9.1-45-9.1c-18.4,0-34.9,0.4-36.6,0.9c-5.1,1.4-11.2,7.4-13.4,13.1
		c-4.1,10.9,0.4,21.7,11.4,27.3c5.1,2.6,5.7,2.7,39.3,2.3C179.7,4911.8,180,4911.8,184.1,4909z M493.7,4909.9
		c10.9-5.6,15.4-16.4,11.3-27.3c-2.2-5.7-8.3-11.7-13.4-13.1c-1.8-0.6-18.2-0.9-36.6-0.9c-37.7,0-37.7,0-45,9.1
		c-3.3,4.1-3.6,5.4-3.6,12.5c0,6.5,0.5,8.7,2.9,12.1c2.8,4.1,7.6,7.8,12.3,9.4c1.3,0.4,16.9,0.7,34.6,0.8
		C487.4,4912.4,488.6,4912.3,493.7,4909.9z"/>
</g>
</svg>
