<?xml version="1.0" encoding="utf-8"?>
<!-- Generator: Adobe Illustrator 21.1.0, SVG Export Plug-In . SVG Version: 6.00 Build 0)  -->
<svg version="1.1" id="Layer_1" xmlns="http://www.w3.org/2000/svg" xmlns:xlink="http://www.w3.org/1999/xlink" x="0px" y="0px"
	 width="27px" height="25.9px" viewBox="0 0 27 25.9" style="enable-background:new 0 0 27 25.9;" xml:space="preserve">
<style type="text/css">
	.st0{fill:#614371;}
</style>
<path class="st0" d="M17.7,11c0.7,0,2.6-0.1,3.4-0.2c1.8-0.2,3.3-0.6,4.2-1c0,0.6,0.1,0.7,0.1,0.8c0.1,0.2,0.3,0.3,0.4,0.3
	c0.3,0.1,0.4,0.1,0.7,0c0.1-0.1,0.3-0.2,0.4-0.4c0-0.1,0.1-0.2,0.1-3.9V6c0-3.5,0-3.5-0.5-4.1l-0.1-0.1c-0.7-0.7-1.8-1.1-3.6-1.5
	c0,0-3.7-0.7-4.2-0.3c-0.2,0.2-0.4,0.5-0.3,0.8c0,0.3,0.2,0.5,0.4,0.6c0.1,0.1,0.2,0.1,1.1,0.2c3.3,0.2,5.3,1,5.5,1.4
	c-0.1,0.3-1.7,1.1-4.9,1.4c-0.9,0.1-3.7,0.1-4.5,0c-2.8-0.3-4.4-0.9-4.9-1.4c0,0,0,0,0,0c0,0,0,0,0,0c0.5-0.5,2.4-1.2,5.5-1.4
	c0.9-0.1,1.5-0.1,1.5-0.8c0-0.2,0-0.4-0.3-0.7C17.4,0,17.2,0,16.2,0h0c-3,0.2-5.2,0.9-6.3,1.8C9.4,2.4,9.4,2.5,9.3,4.3l0,1.1l-1.1,0
	c-1.6,0-2.1,0.1-3.3,0.3C3.4,6,0.8,6.5,0.1,7.9L0,8.2l0,8.8c0,6.3,0,6.3,0.3,6.8c0.2,0.3,0.7,0.7,1.2,0.9c1.5,0.8,4.2,1.2,7.3,1.2
	c4.7,0,8-0.9,8.7-2.5c0.1-0.3,0.1-0.5,0.1-1.9v-1.1l1,0c1.9,0,3.3-0.2,4.8-0.5c1.4-0.3,2.5-0.8,3.1-1.4C27,18,27,17.9,27,14.8v-0.2
	c0-3,0-3-0.2-3.2c-0.2-0.2-0.4-0.3-0.6-0.3c-0.5,0-0.8,0.4-0.8,1.1v0.3c0,0,0,0.1-0.1,0.1c-0.1,0.2-0.8,0.5-1.5,0.7
	c-1.4,0.5-3.4,0.7-5.5,0.7h-0.7L17.7,11L17.7,11z M18.4,15.7c2.8,0,5.4-0.4,7-1.2l0,1.1c0,0.9,0,1.6,0,1.7h0
	c-0.2,0.3-1.2,0.8-3.4,1.2c-1.1,0.2-2.1,0.3-3.4,0.3l-0.9,0l0-3.1H18.4z M12,5.5c0.5,0.1,0.9,0.3,1.4,0.4c-0.8-0.1-1.7-0.3-2.4-0.3
	l0-0.4C11.3,5.2,11.7,5.4,12,5.5z M1.7,8.5C2.4,7.8,5.5,7,9.3,7.1c0.4,0,1,0,1.5,0.1C14,7.4,15.9,8.2,16,8.6c-0.1,0.1-0.6,0.6-2,0.9
	c-3.2,0.8-8,0.8-10.9-0.2C2.2,9,1.8,8.7,1.7,8.5C1.7,8.6,1.7,8.5,1.7,8.5z M16,22.8L16,22.8c-0.7,0.7-2.5,1.2-4.9,1.4
	c-1.1,0.1-3.4,0.1-4.5,0c-2.9-0.3-4.4-0.9-4.9-1.3l-0.1-0.1v-1.6c0-0.4,0-0.8,0-1.1c2.5,1.2,8.1,1.6,12.1,0.7
	c0.7-0.2,1.6-0.5,2.2-0.7V22.8z M16,18L16,18c-0.6,0.6-2.1,1.2-5,1.4c-0.9,0.1-3.7,0.1-4.7,0c-2.1-0.2-3.7-0.6-4.5-1.2
	c-0.2-0.2-0.2-0.2-0.2-1.6v-1.4c0.3,0.1,0.7,0.3,1,0.4c1,0.3,1.9,0.5,3.4,0.7c1.1,0.1,4.6,0.1,5.7,0c1.9-0.2,3.4-0.6,4.4-1V18z
	 M16,13.3L16,13.3c-0.7,0.8-3.4,1.5-7.2,1.5c-3.9,0-6.4-0.7-7.1-1.4l-0.1-0.1v-2.7c0,0,0,0,0.1,0C4.1,11.7,8.9,12,13,11.4
	c1.2-0.2,2.1-0.4,3.1-0.9c0,0.3,0,0.7,0,1.1V13.3z M17.5,7.9C17.1,7,16,6.4,14.1,6c-0.1,0-0.1,0-0.2,0c0.5,0.1,1.1,0.2,1.9,0.2
	c1,0.1,4,0.1,5,0c1.3-0.1,2.5-0.4,3.3-0.6c0.4-0.1,0.8-0.3,1.2-0.5c0,0.3,0,0.6,0,1.1v1.6l-0.1,0.1c-0.4,0.5-2.1,1.1-4.7,1.3
	c-0.9,0.1-2.4,0.1-2.9,0.1V9C17.7,8.3,17.7,8.2,17.5,7.9z"/>
</svg>
