<?xml version="1.0" encoding="utf-8"?>
<!-- Generator: Adobe Illustrator 21.1.0, SVG Export Plug-In . SVG Version: 6.00 Build 0)  -->
<svg version="1.1" id="Calque_1" xmlns="http://www.w3.org/2000/svg" xmlns:xlink="http://www.w3.org/1999/xlink" x="0px" y="0px"
	 width="22px" height="27.6px" viewBox="0 0 22 27.6" style="enable-background:new 0 0 22 27.6;" xml:space="preserve">
<style type="text/css">
	.st0{fill:#614371;}
</style>
<path class="st0" d="M22,27.6H0V20c0-4,0-7.7,0-8.4l0.1-1.8h9.7V4.9l5.9-2.4c1.5-0.6,2.8-1.2,3.9-1.6C21.4,0,21.4,0,21.4,0
	c0.1,0,0.5,0,0.5,0.6c0,0.1,0,0.1,0,0.2s0,0.5,0,0.8c0,0.7,0,1.6,0,2.8c0,2.5,0,5.8,0,9.4L22,27.6L22,27.6z M0.9,26.6h20.1V13.8
	c0-6.4,0-11,0-12.6c-0.9,0.4-2.8,1.2-5,2.1l0,0l-5.3,2.2v5.3H1v0.9C1,12.3,1,16,1,20L0.9,26.6L0.9,26.6z M10.8,24.3h-8V21h8V24.3z
	 M3.7,23.3h6.1v-1.4H3.7V23.3z M10.8,20.4h-8v-3.4h8V20.4z M3.7,19.4h6.1V18H3.7V19.4z M10.8,16.4h-8V13h8V16.4z M3.7,15.5h6.1v-1.4
	H3.7V15.5z"/>
</svg>
