<?xml version="1.0" encoding="utf-8"?>
<!-- Generator: Adobe Illustrator 21.1.0, SVG Export Plug-In . SVG Version: 6.00 Build 0)  -->
<svg version="1.1" id="Layer_1" xmlns="http://www.w3.org/2000/svg" xmlns:xlink="http://www.w3.org/1999/xlink" x="0px" y="0px"
	 width="12.9px" height="17px" viewBox="0 0 12.9 17" style="enable-background:new 0 0 12.9 17;" xml:space="preserve">
<style type="text/css">
	.st0{fill:#f64668;}
</style>
<g>
	<g>
		<path class="st0" d="M3.7,1.5c0-0.5,0.4-0.9,0.9-0.9h3.7c0.5,0,0.9,0.4,0.9,0.9v1h0.7v-1C9.9,0.7,9.2,0,8.3,0H4.6
			C3.7,0,3,0.7,3,1.5v1h0.7V1.5z M1.2,15.5c0,0.8,0.6,1.5,1.3,1.5h7.9c0.8,0,1.3-0.7,1.3-1.5V5.2H1.2V15.5z M8.6,6.8
			c0-0.2,0.1-0.3,0.3-0.3s0.3,0.1,0.3,0.3v7.9c0,0.2-0.1,0.3-0.3,0.3s-0.3-0.1-0.3-0.3V6.8z M6.1,6.8c0-0.2,0.1-0.3,0.3-0.3
			c0.2,0,0.3,0.1,0.3,0.3v7.9c0,0.2-0.1,0.3-0.3,0.3c-0.2,0-0.3-0.1-0.3-0.3V6.8z M3.7,6.8c0-0.2,0.1-0.3,0.3-0.3
			c0.2,0,0.3,0.1,0.3,0.3v7.9C4.3,14.8,4.2,15,4,15c-0.2,0-0.3-0.1-0.3-0.3V6.8z M12.1,2.8H0.8C0.4,2.8,0,3.2,0,3.7
			c0,0.5,0.4,0.8,0.8,0.8h11.2c0.5,0,0.8-0.4,0.8-0.8C12.9,3.2,12.5,2.8,12.1,2.8z"/>
	</g>
</g>
</svg>
