<?xml version="1.0" encoding="utf-8"?>
<!-- Generator: Adobe Illustrator 21.1.0, SVG Export Plug-In . SVG Version: 6.00 Build 0)  -->
<svg version="1.1" id="Layer_1" xmlns="http://www.w3.org/2000/svg" xmlns:xlink="http://www.w3.org/1999/xlink" x="0px" y="0px"
	 width="43px" height="43px" viewBox="0 0 43 43" style="enable-background:new 0 0 43 43;" xml:space="preserve">
<style type="text/css">
	.st0{fill:#F64668;}
	.st1{fill:#FFD2DF;}
	.st2{fill:#41436A;}
</style>
<path class="st0" d="M21.5,0C9.6,0,0,9.6,0,21.5c0,9.3,5.9,17.2,14.1,20.2c2.3,0.8,4.8,1.3,7.4,1.3c2.6,0,5.1-0.5,7.4-1.3
	c8.2-3,14.1-10.9,14.1-20.2C43,9.6,33.4,0,21.5,0z"/>
<path class="st1" d="M30.4,14.8c0,4.9-4,8.9-8.9,8.9s-8.9-4-8.9-8.9l8.9-5.9L30.4,14.8z M30.4,14.8"/>
<path class="st2" d="M26.7,26.7H16.3c-1.2,0-2.2,1-2.2,2.2v12.8c2.3,0.8,4.8,1.3,7.4,1.3c2.6,0,5.1-0.5,7.4-1.3V28.9
	C28.9,27.7,27.9,26.7,26.7,26.7z"/>
<rect x="20" y="26.7" class="st1" width="3" height="3"/>
<path class="st2" d="M30.4,14.8c-3.2-1-6.2-2.5-8.9-4.4c-2.7,2-5.7,3.5-8.9,4.4c0-0.3,0-0.6,0-0.9c0.5-4.5,4.3-8,8.9-8
	s8.4,3.4,8.9,8C30.4,14.2,30.4,14.5,30.4,14.8L30.4,14.8z M30.4,14.8"/>
</svg>
