<?xml version="1.0" encoding="utf-8"?>
<!-- Generator: Adobe Illustrator 21.1.0, SVG Export Plug-In . SVG Version: 6.00 Build 0)  -->
<svg version="1.1" id="Layer_1" xmlns="http://www.w3.org/2000/svg" xmlns:xlink="http://www.w3.org/1999/xlink" x="0px" y="0px"
	 width="12px" height="12px" viewBox="0 0 12 12" style="enable-background:new 0 0 12 12;" xml:space="preserve">
<style type="text/css">
	.st0{fill:#FFFFFF;}
</style>
<path class="st0" d="M10.9,4.9H7.3c-0.1,0-0.2-0.1-0.2-0.2V1.1C7.1,0.5,6.6,0,6,0C5.4,0,4.9,0.5,4.9,1.1v3.6c0,0.1-0.1,0.2-0.2,0.2
	H1.1C0.5,4.9,0,5.4,0,6c0,0.6,0.5,1.1,1.1,1.1h3.6c0.1,0,0.2,0.1,0.2,0.2v3.6C4.9,11.5,5.4,12,6,12c0.6,0,1.1-0.5,1.1-1.1V7.3
	c0-0.1,0.1-0.2,0.2-0.2h3.6C11.5,7.1,12,6.6,12,6C12,5.4,11.5,4.9,10.9,4.9L10.9,4.9z M10.9,4.9"/>
</svg>
