<?xml version="1.0" encoding="utf-8"?>
<!-- Generator: Adobe Illustrator 21.1.0, SVG Export Plug-In . SVG Version: 6.00 Build 0)  -->
<svg version="1.1" id="Layer_1" xmlns="http://www.w3.org/2000/svg" xmlns:xlink="http://www.w3.org/1999/xlink" x="0px" y="0px"
	 width="19.8px" height="29px" viewBox="0 0 19.8 29" style="enable-background:new 0 0 19.8 29;" xml:space="preserve">
<style type="text/css">
	.st0{fill:#231942;}
</style>
<g>
	<g>
		<path class="st0" d="M8.5,0.1c-0.3-0.1-0.7,0-0.8,0.3C7.7,0.4,7.5,1.5,7.4,3.7C7.2,5.4,7.1,6.9,7,7C7,7.2,6.7,7.2,6.5,7.2
			C6.4,7.1,6.3,7,6.3,6.9c0-0.1-0.2-1.6-0.3-3.3C5.8,1.9,5.7,0.5,5.6,0.4C5.5,0.1,5.4,0,5.1,0c-0.2,0-0.3,0-0.4,0.2
			C4.5,0.3,4.4,0.4,4.4,0.5c0,0-0.1,1.5-0.3,3.3C3.8,7.3,3.8,7.2,3.5,7.2C3.3,7.2,3.1,7,3.1,6.9c0-0.4-0.6-6.3-0.6-6.5
			C2.3,0.1,1.9-0.1,1.6,0.1c-0.1,0-0.2,0.1-0.2,0.2C1.3,0.3,1,1.6,0.7,4.1C0.3,6.2,0,8,0,8.2c-0.1,0.8,0.2,1.9,0.7,2.7
			c0.4,0.7,1.3,1.5,2.1,1.8C3,12.9,3,12.9,3,13.1c0,0.1-0.2,3.1-0.5,6.6C2,26.9,2,26.6,2.4,27.4c0.4,0.9,1.3,1.4,2.3,1.6
			c1.3,0.2,2.6-0.5,3.1-1.6c0.4-0.8,0.4-0.5-0.1-7.6c-0.3-3.5-0.5-6.5-0.5-6.7l0-0.3l0.5-0.3c1.2-0.6,2-1.7,2.4-3
			c0.2-0.8,0.2-1.3-0.5-5.5C8.9,0.3,8.8,0.2,8.5,0.1z M19.5,0.1C19.2-0.1,19,0,18.3,0.3c-2.6,1.3-4.4,3.5-4.8,6.1
			c-0.1,0.6-0.1,2.6,0,3.5c0.3,1.9,0.9,3.5,1.8,4.7l0.3,0.5l-0.5,0.5c-0.4,0.4-0.5,0.5-0.5,0.7c0,0.1-0.3,2.4-0.5,5.1
			c-0.5,5.2-0.5,5.2-0.3,5.8c0.5,1.3,1.9,2,3.3,1.8c1.3-0.2,2.4-1.2,2.6-2.4c0-0.2,0.1-4.8,0.1-13.2C19.8-0.7,19.9,0.3,19.5,0.1z"/>
	</g>
</g>
</svg>
