<?xml version="1.0" encoding="utf-8"?>
<!-- Generator: Adobe Illustrator 21.1.0, SVG Export Plug-In . SVG Version: 6.00 Build 0)  -->
<svg version="1.1" id="Layer_1" xmlns="http://www.w3.org/2000/svg" xmlns:xlink="http://www.w3.org/1999/xlink" x="0px" y="0px"
	 width="24px" height="21px" viewBox="0 0 24 21" style="enable-background:new 0 0 24 21;" xml:space="preserve">
<style type="text/css">
	.st0{fill:#614371;}
</style>
<g>
	<g>
		<path class="st0" d="M10.1,8.4c2-1.6,2.3-4.6,0.7-6.6c-1.6-2-4.5-2.3-6.5-0.7C2.3,2.7,2,5.7,3.6,7.7C3.8,7.9,4,8.2,4.2,8.4
			C1.7,9.5,0,12.1,0,15v5.1C0,20.6,0.4,21,0.8,21c0.5,0,0.8-0.4,0.8-0.9V15c0-3.1,2.5-5.6,5.5-5.6c3,0,5.5,2.5,5.5,5.6v5.1
			c0,0.5,0.4,0.9,0.8,0.9c0.5,0,0.8-0.4,0.8-0.9V15C14.3,12.1,12.7,9.5,10.1,8.4z M7.2,7.7c-1.6,0-2.9-1.3-2.9-3s1.3-3,2.9-3
			s2.9,1.3,2.9,3S8.8,7.7,7.2,7.7z M20.4,9.9c1.7-1.5,1.8-4.2,0.3-5.9c-1.5-1.7-4.1-1.9-5.8-0.3c-1.7,1.5-1.8,4.2-0.3,5.9
			c0.8,0.9,1.9,1.4,3.1,1.4c2.6,0,4.6,2.1,4.6,4.7v4.5c0,0.5,0.4,0.9,0.8,0.9c0.5,0,0.8-0.4,0.8-0.9v-4.5C24,13.2,22.6,11,20.4,9.9z
			 M17.7,9.3c-1.3,0-2.4-1.1-2.4-2.5c0-1.4,1.1-2.5,2.4-2.5c1.3,0,2.4,1.1,2.4,2.5C20.1,8.1,19,9.3,17.7,9.3z"/>
	</g>
</g>
</svg>
