<?xml version="1.0" encoding="utf-8"?>
<!-- Generator: Adobe Illustrator 21.1.0, SVG Export Plug-In . SVG Version: 6.00 Build 0)  -->
<svg version="1.1" id="Layer_1" xmlns="http://www.w3.org/2000/svg" xmlns:xlink="http://www.w3.org/1999/xlink" x="0px" y="0px"
	 width="22px" height="29.3px" viewBox="0 0 22 29.3" style="enable-background:new 0 0 22 29.3;" xml:space="preserve">
<style type="text/css">
	.st0{fill:#614371;}
</style>
<g>
	<g>
		<path class="st0" d="M11,0C4.9,0,0,4.9,0,10.8c0,2,0.9,4.1,0.9,4.2c0.3,0.7,0.9,1.7,1.3,2.3l7.5,11.3c0.3,0.5,0.8,0.7,1.3,0.7
			c0.5,0,0.9-0.3,1.3-0.7l7.5-11.3c0.4-0.6,1-1.7,1.3-2.3c0-0.1,0.9-2.2,0.9-4.2C22,4.9,17.1,0,11,0z M19.9,14.5
			c-0.3,0.6-0.8,1.6-1.2,2.1l-7.5,11.3c-0.1,0.2-0.2,0.2-0.3,0L3.3,16.6c-0.4-0.6-0.9-1.5-1.2-2.1c0,0-0.8-2-0.8-3.7
			c0-5.3,4.4-9.6,9.7-9.6s9.7,4.3,9.7,9.6C20.7,12.5,19.9,14.5,19.9,14.5z M11,5.1c-3.2,0-5.8,2.6-5.8,5.7c0,3.2,2.6,5.7,5.8,5.7
			c3.2,0,5.8-2.6,5.8-5.7C16.8,7.7,14.2,5.1,11,5.1z M11,15.3c-2.5,0-4.5-2-4.5-4.5c0-2.5,2-4.5,4.5-4.5c2.5,0,4.5,2,4.5,4.5
			C15.5,13.3,13.5,15.3,11,15.3z"/>
	</g>
</g>
</svg>
