<?xml version="1.0" encoding="utf-8"?>
<!-- Generator: Adobe Illustrator 21.1.0, SVG Export Plug-In . SVG Version: 6.00 Build 0)  -->
<svg version="1.1" id="Layer_1" xmlns="http://www.w3.org/2000/svg" xmlns:xlink="http://www.w3.org/1999/xlink" x="0px" y="0px"
	 width="25.3px" height="27px" viewBox="0 0 25.3 27" style="enable-background:new 0 0 25.3 27;" xml:space="preserve">
<style type="text/css">
	.st0{fill:#231942;}
</style>
<path class="st0" d="M15.4,0.1c-0.1,0.1-0.2,0.2-0.3,0.3C15,0.6,15,0.7,15,4.3V8h-1.7c-1.6,0-1.7,0-1.9,0.1
	c-0.1,0.1-0.2,0.2-0.3,0.3c-0.1,0.2-0.1,0.3-0.1,3.1v2.8h1.3c0.7,0,1.4,0,1.6,0.1c0.9,0.2,1.6,0.9,1.8,1.8c0,0.2,0.1,1,0.1,2.4v2.1
	h4.7h4.7v-6c0-5.9,0-6-0.1-6.2c-0.1-0.1-0.2-0.2-0.3-0.3C24.7,8,24.6,8,23,8h-1.7V4.3c0-3.6,0-3.7-0.1-3.9c-0.1-0.1-0.2-0.2-0.3-0.3
	C20.7,0,20.6,0,18.2,0C15.8,0,15.6,0,15.4,0.1z M19.8,4.8V8h-1.6h-1.6V4.8V1.6h1.6h1.6V4.8z M21.7,11.3c0.2,0.1,0.4,0.4,0.4,0.7
	s-0.2,0.6-0.4,0.7c-0.2,0.1-0.3,0.1-0.7,0.1h-0.5v0.5c0,0.6-0.1,0.8-0.4,1c-0.3,0.1-0.5,0.1-0.7,0c-0.3-0.2-0.4-0.4-0.4-1v-0.5h-2.1
	c-2,0-2.1,0-2.3-0.1c-0.5-0.3-0.5-1,0-1.3l0.2-0.1h3.3C21.4,11.2,21.5,11.2,21.7,11.3z"/>
<path class="st0" d="M5.2,12.9c-0.1,0.1-0.2,0.2-0.3,0.3c-0.1,0.2-0.1,0.3-0.1,1.5v1.3H4.4H4v5.5V27h3.2h3.2v-5.5v-5.5H9.9H9.5v-1.3
	c0-1.2,0-1.3-0.1-1.5c-0.1-0.1-0.2-0.2-0.3-0.3c-0.2-0.1-0.3-0.1-2-0.1C5.5,12.8,5.3,12.8,5.2,12.9z M7.9,15.1v0.8H7.1H6.3v-0.8
	v-0.8h0.8h0.8V15.1z"/>
<path class="st0" d="M0.4,16c-0.1,0.1-0.2,0.2-0.3,0.3C0,16.5,0,16.6,0,21.5s0,4.9,0.1,5.1C0.3,26.9,0.5,27,1.5,27h0.9v-5.5v-5.5
	H1.5C0.7,15.9,0.6,15.9,0.4,16z"/>
<path class="st0" d="M11.9,21.5V27h0.9c1,0,1.2-0.1,1.4-0.4c0.1-0.2,0.1-0.3,0.1-5.1s0-4.9-0.1-5.1c-0.2-0.4-0.4-0.4-1.4-0.4h-0.9
	V21.5z"/>
<path class="st0" d="M15.8,23.8v1.6H19h3.2v0.5c0,0.6,0.1,0.8,0.4,1c0.3,0.1,0.5,0.1,0.7,0c0.3-0.2,0.4-0.4,0.4-1v-0.5h0.5
	c0.6,0,0.8-0.1,1-0.4c0.1-0.2,0.1-0.3,0.1-1.5v-1.3h-4.7h-4.7V23.8z"/>
</svg>
